<?xml version="1.0" encoding="UTF-8"?>
<!-- Generator: Adobe Illustrator 27.5.0, SVG Export Plug-In . SVG Version: 6.00 Build 0)  -->
<svg xmlns="http://www.w3.org/2000/svg" xmlns:xlink="http://www.w3.org/1999/xlink" version="1.1" id="Lager_1" x="0px" y="0px" width="426.1px" height="226.77px" viewBox="0 0 426.1 226.77" style="enable-background:new 0 0 426.1 226.77;" xml:space="preserve"><rect fill="#FFFFFF" x="0px" y="0px" width="426.1px" height="226.77px" />
<style type="text/css">
	.st0{fill:#FFFFFF;}
	.st1{fill:url(#SVGID_1_);}
	.st2{fill:none;stroke:#000000;stroke-width:1.9294;stroke-linecap:round;}
	.st3{fill:none;stroke:#000000;stroke-width:0.9647;stroke-linecap:round;}
	.st4{fill:none;stroke:#000000;stroke-width:1.4471;stroke-linecap:round;}
	.st5{fill:url(#SVGID_00000149352091419330537930000008428646947407738528_);}
	.st6{fill:none;stroke:#000000;stroke-width:0.9647;}
	.st7{fill:url(#SVGID_00000076575176196493724840000016656876681631645100_);}
	.st8{fill:url(#SVGID_00000134960739501738517770000001359852930647142800_);}
	.st9{opacity:0.22;}
	.st10{fill:url(#SVGID_00000072255420218444239480000002869153702781367685_);}
</style>
<rect x="1.888" y="2.264" class="st0" width="423.16" height="222.61" />
<g>
	<g id="Färg_8_">
		
			<linearGradient id="SVGID_1_" gradientUnits="userSpaceOnUse" x1="172.0685" y1="216.884" x2="182.3088" y2="194.4204" gradientTransform="matrix(1 0 0 1 0 -0.6617)">
			<stop offset="0" style="stop-color:#FFFFFF" />
			<stop offset="1" style="stop-color:#EDEDED" />
		</linearGradient>
		<path class="st1" d="M201.883,223.113l3.298-24.982l5.638-17.791c0,0-8.366-1.086-10.146-0.47    c-1.779,0.616-15.077-4.06-15.077-4.06l-9.998-5.874l-5.178-5.633l-12.903,23.1l-14.648,20.581    C142.871,207.982,201.253,223.113,201.883,223.113z" />
	</g>
	<g>
		<path d="M152.718,195.569l4.467-7.921l4.505-7.895l4.507-7.894l4.562-7.856l0.019-0.031l0.057-0.072    c1.048-1.332,1.885-3.022,2.273-4.725c0.199-0.857,0.279-1.737,0.206-2.596c-0.013-0.444-0.111-0.827-0.187-1.3l-0.264-1.435    c-0.648-3.782-1.23-7.556-1.818-11.335c-1.135-7.562-2.216-15.131-3.277-22.705c-1.022-7.583-2.051-15.152-2.929-22.78    c-0.107-0.957-0.208-1.911-0.286-2.893l-0.048-0.763c-0.005-0.134-0.011-0.274-0.005-0.466c-0.002-0.016,0.008-0.155,0.027-0.26    l0.033-0.162c-0.034,0.133-0.004,0.012-0.009,0.03c0.016-0.064,0.027-0.132,0.011-0.075c-0.005,0.06-0.006-0.199-0.036-0.377    l-0.102-0.689c-0.157-0.989-0.23-2.189,0.048-3.329c0.265-1.149,0.849-2.162,1.523-2.981c0.684-0.815,1.456-1.48,2.257-2.044    c0.418-0.289,0.773-0.519,1.259-0.806l0.598-0.32l0.718-0.321c1.858-0.74,3.638-0.922,5.082-1.601    c0.727-0.332,1.393-0.756,1.986-1.316c0.292-0.285,0.594-0.561,0.854-0.897l0.442-0.534c0.145-0.174,0.288-0.35,0.519-0.571    c0.808-0.792,1.62-1.298,2.47-1.769c0.844-0.461,1.701-0.843,2.564-1.183c3.453-1.346,6.969-2.172,10.484-2.935    c3.52-0.736,7.052-1.318,10.581-1.882l1.323-0.208l0.224-0.033l0.167-0.013c0.134-0.004,0.414,0.005,0.544,0.046    c0.329,0.062,0.596,0.198,0.851,0.335c0.963,0.593,1.577,1.354,2.196,2.099c1.19,1.522,2.24,3.065,3.148,4.809    c1.782,3.363,3.358,6.797,4.929,10.243c0.77,1.73,1.522,3.469,2.261,5.215l1.086,2.635c0.343,0.891,0.71,1.797,0.831,2.838    c0.14,1.053-0.217,2.12-0.713,2.94c-0.488,0.842-1.089,1.58-1.67,2.299c-1.19,1.441-2.402,2.837-3.619,4.238l-7.387,8.303    l7.123-8.561c1.181-1.429,2.366-2.866,3.507-4.319c0.574-0.735,1.114-1.478,1.541-2.281c0.433-0.798,0.674-1.657,0.529-2.521    c-0.128-0.863-0.503-1.728-0.875-2.582l-1.175-2.567l-2.442-5.096c-1.64-3.386-3.298-6.78-5.118-10.023    c-0.863-1.58-1.959-3.114-3.094-4.489c-0.567-0.669-1.192-1.336-1.796-1.673c-0.145-0.07-0.288-0.138-0.401-0.149    c-0.087-0.018-0.033-0.005-0.12-0.014l-0.167,0.017c-0.027,0.003,0.085-0.01,0.018-0.001l-0.041,0.008l-0.082,0.015l-1.315,0.243    c-3.506,0.648-7,1.343-10.463,2.131c-3.454,0.796-6.912,1.668-10.147,2.982c-0.806,0.33-1.592,0.695-2.331,1.111    c-0.73,0.406-1.454,0.906-1.955,1.416c-0.107,0.092-0.259,0.275-0.409,0.46l-0.439,0.544c-0.307,0.402-0.678,0.762-1.042,1.12    c-0.744,0.708-1.627,1.279-2.536,1.697c-1.842,0.841-3.675,1.034-5.153,1.658l-0.516,0.229l-0.597,0.322    c-0.292,0.179-0.703,0.438-1.031,0.672c-0.687,0.486-1.308,1.039-1.816,1.648c-0.498,0.615-0.867,1.283-1.029,2.001    c-0.168,0.723-0.141,1.479,0.002,2.369l0.111,0.728c0.03,0.294,0.085,0.514,0.04,1.052c-0.02,0.177-0.034,0.226-0.046,0.278    l-0.027,0.118c0.008-0.024,0.016-0.048,0.021-0.073c0.011-0.046,0.011-0.126,0.011-0.082l0.007,0.251l0.046,0.668    c0.078,0.924,0.18,1.872,0.279,2.816c0.841,7.572,1.842,15.158,2.833,22.732l2.999,22.729c0.5,3.786,0.997,7.58,1.553,11.343    l0.222,1.388c0.065,0.469,0.181,1.025,0.183,1.539c0.063,1.05-0.061,2.099-0.314,3.091c-0.52,1.997-1.436,3.758-2.718,5.314    l0.074-0.103l-4.74,7.733l-4.795,7.696l-4.797,7.694L152.718,195.569z" />
	</g>
	<g>
		<path d="M228.583,107.752c0,0-0.014-0.049-0.04-0.143c-0.012-0.047-0.028-0.106-0.047-0.176c-0.004-0.048-0.028-0.044-0.015-0.147    c0.127-0.001,0.052,0.036,0.08,0.038l0.011,0.033l0.021,0.067c0.106,0.366,0.248,0.906,0.38,1.604    c0.274,1.393,0.571,3.412,0.697,5.857c0.139,2.444,0.109,5.315-0.194,8.368c-0.159,1.525-0.35,3.102-0.65,4.683    c-0.294,1.582-0.647,3.179-1.06,4.758c-0.432,1.573-0.924,3.127-1.46,4.634c-0.527,1.512-1.151,2.954-1.773,4.335    c-1.259,2.757-2.659,5.202-3.98,7.193c-1.311,2.001-2.543,3.55-3.428,4.605c-0.892,1.051-1.434,1.615-1.434,1.615    s0.415-0.675,1.14-1.857c0.715-1.186,1.714-2.889,2.819-4.978c1.098-2.093,2.288-4.58,3.396-7.318    c0.562-1.365,1.067-2.808,1.577-4.273c0.502-1.469,0.955-2.982,1.356-4.511c0.421-1.523,0.784-3.064,1.089-4.594    c0.298-1.531,0.584-3.042,0.786-4.519c0.424-2.951,0.65-5.736,0.751-8.134c0.093-2.398,0.068-4.408,0.001-5.815    c-0.039-0.702-0.067-1.258-0.113-1.631l-0.009-0.067l-0.005-0.031c0.021-0.013-0.059-0.014,0.059-0.01    c0.015-0.02,0.006,0.061,0.012,0.084c0.006,0.072,0.011,0.132,0.015,0.181C228.577,107.701,228.583,107.752,228.583,107.752z" />
	</g>
	<line class="st2" x1="218.388" y1="149.433" x2="204.26" y2="207.117" />
	<path class="st3" d="M173.286,167.585c0,0,13.495,13.833,34.279,12.333" />
	<path class="st2" d="M177.19,83.807c0,0,19.942-4.071,23.522-4.516c3.579-0.444,6.76,5.781,8.189,8.845   c1.429,3.064,7.046,13.283,3.86,16.945s-8.785,7.147-8.785,7.147" />
	<g>
		<path d="M185.415,98.978c0,0,0.209,0.077,0.567,0.19c0.355,0.118,0.853,0.275,1.438,0.44c1.175,0.326,2.687,0.658,4.19,0.68    c0.377,0.041,0.75-0.012,1.122-0.012c0.373,0.002,0.732-0.084,1.092-0.104c0.359-0.029,0.695-0.133,1.031-0.178    c0.339-0.039,0.642-0.149,0.939-0.213c0.288-0.088,0.581-0.114,0.813-0.207c0.236-0.084,0.456-0.14,0.636-0.192    c0.363-0.098,0.586-0.142,0.586-0.142s-0.133,0.183-0.395,0.483c-0.132,0.147-0.292,0.332-0.49,0.526    c-0.187,0.214-0.442,0.381-0.715,0.582c-0.277,0.192-0.568,0.439-0.923,0.59c-0.351,0.159-0.716,0.37-1.123,0.484    c-0.409,0.105-0.828,0.268-1.273,0.303c-0.443,0.052-0.896,0.113-1.349,0.08l-0.678-0.038l-0.663-0.118    c-0.441-0.063-0.853-0.23-1.254-0.357c-0.39-0.166-0.766-0.325-1.1-0.525c-0.338-0.191-0.641-0.398-0.907-0.61    c-0.542-0.404-0.931-0.829-1.182-1.141C185.526,99.186,185.415,98.978,185.415,98.978z" />
	</g>
	<g>
		<path d="M196.07,95.974c0,0,0.338,0.503,0.745,1.144c0.429,0.642,0.927,1.437,1.429,2.23c0.252,0.398,0.507,0.794,0.742,1.187    c0.248,0.38,0.463,0.765,0.656,1.109c0.187,0.349,0.355,0.645,0.461,0.877c0.107,0.23,0.161,0.38,0.161,0.38    s-0.143-0.011-0.383-0.061c-0.235-0.056-0.582-0.133-0.94-0.329c-0.382-0.165-0.776-0.441-1.174-0.779    c-0.384-0.352-0.754-0.782-1.064-1.263c-0.295-0.491-0.546-1.016-0.692-1.545c-0.159-0.523-0.221-1.042-0.218-1.487    C195.781,96.543,196.07,95.974,196.07,95.974z" />
	</g>
	<g>
		<path d="M198.317,99.588c0,0-0.854,1.122-1.909,2.844c-0.255,0.438-0.527,0.909-0.792,1.414c-0.268,0.504-0.511,1.053-0.752,1.614    c-0.251,0.56-0.42,1.168-0.605,1.771c-0.151,0.613-0.297,1.234-0.352,1.865c-0.074,0.628-0.084,1.259-0.039,1.879    c0.048,0.618,0.122,1.232,0.277,1.813c0.149,0.58,0.317,1.146,0.53,1.666c0.093,0.267,0.21,0.515,0.327,0.756    c0.115,0.241,0.203,0.492,0.331,0.707c0.245,0.435,0.446,0.861,0.67,1.209c0.218,0.352,0.391,0.682,0.564,0.927    c0.329,0.508,0.51,0.819,0.51,0.819s-0.286-0.184-0.773-0.54c-0.482-0.361-1.148-0.926-1.839-1.746    c-0.335-0.416-0.712-0.872-1.015-1.43c-0.328-0.539-0.637-1.148-0.863-1.824c-0.119-0.336-0.234-0.681-0.312-1.045    c-0.101-0.358-0.16-0.731-0.203-1.111c-0.101-0.758-0.092-1.542-0.013-2.312c0.166-1.545,0.688-2.999,1.351-4.206    c0.65-1.22,1.448-2.199,2.18-2.957C197.067,100.182,198.317,99.588,198.317,99.588z" />
	</g>
	<line class="st4" x1="203.916" y1="111.62" x2="196.338" y2="117.704" />
	<g>
		<path d="M201.189,116.823c0,0,0.618,2.779,1.545,6.947c0.495,2.073,1.072,4.491,1.691,7.083c0.333,1.291,0.677,2.625,1.027,3.981    c0.354,1.369,0.54,2.844,0.563,4.293c0.064,2.917-0.529,5.808-1.465,8.322c-0.948,2.518-2.221,4.665-3.442,6.374    c-1.237,1.702-2.436,2.958-3.294,3.805c-0.869,0.836-1.398,1.27-1.398,1.27s0.497-0.477,1.313-1.365    c0.816-0.887,1.935-2.209,3.087-3.943c1.154-1.727,2.342-3.881,3.192-6.366c0.878-2.465,1.43-5.271,1.338-8.078    c-0.032-1.409-0.24-2.779-0.56-4.127c-0.332-1.36-0.659-2.698-0.974-3.993c-0.623-2.599-1.113-5.048-1.502-7.152    C201.516,119.665,201.189,116.823,201.189,116.823z" />
	</g>
	<g>
		<path d="M203.06,116.464c0,0,0.504,1.462,1.134,3.697c0.305,1.12,0.671,2.425,1.013,3.838c0.348,1.411,0.676,2.928,0.989,4.449    c0.291,1.526,0.571,3.057,0.768,4.504c0.207,1.446,0.331,2.808,0.402,3.978c0.034,0.586,0.067,1.121,0.044,1.6    c-0.017,0.478-0.001,0.892-0.041,1.233c-0.081,0.678-0.127,1.065-0.127,1.065s-0.004-0.389-0.009-1.068    c0.007-0.337-0.052-0.749-0.083-1.218c-0.027-0.469-0.115-0.996-0.175-1.571c-0.057-0.576-0.166-1.195-0.266-1.851    c-0.093-0.656-0.238-1.343-0.351-2.057c-0.254-1.425-0.541-2.944-0.844-4.459c-0.618-3.032-1.235-6.063-1.698-8.337    C203.351,117.991,203.06,116.464,203.06,116.464z" />
	</g>
	<path class="st2" d="M216.12,107.683" />
	<path class="st4" d="M214.822,108.222l-4.846,6.402c0,0-1.993,0.557-3.617-1.831" />
	<path class="st4" d="M228.58,101.732l-4.003,8.189c0,0-1.293,1.076-2.917-1.311" />
	<path class="st4" d="M221.251,105.985l-3.994,6.078c0,0-1.993,0.557-3.617-1.831" />
	<g>
		<path d="M195.906,69.986c0.008,0.003,0.01-0.102,0.103-0.266c0.099-0.177,0.269-0.399,0.521-0.635    c0.498-0.487,1.281-1.067,2.267-1.651c0.982-0.595,2.169-1.194,3.471-1.741c0.653-0.268,1.326-0.554,2.027-0.788    c0.699-0.239,1.414-0.469,2.131-0.687c0.724-0.195,1.45-0.379,2.17-0.541c0.717-0.178,1.438-0.275,2.131-0.389    c1.39-0.208,2.708-0.293,3.839-0.259c0.566,0.009,1.084,0.056,1.541,0.112c0.458,0.06,0.853,0.132,1.175,0.214    c0.323,0.064,0.571,0.163,0.739,0.216c0.168,0.057,0.256,0.087,0.256,0.087s-0.377,0.017-1.017,0.094    c-0.64,0.068-1.541,0.208-2.61,0.421c-1.068,0.219-2.304,0.509-3.625,0.846c-0.659,0.175-1.339,0.356-2.031,0.54    c-0.693,0.178-1.392,0.383-2.091,0.59c-0.704,0.189-1.404,0.391-2.09,0.602c-0.689,0.206-1.366,0.409-2.022,0.605    c-1.31,0.4-2.531,0.784-3.576,1.127c-1.04,0.353-1.908,0.655-2.485,0.932c-0.287,0.139-0.516,0.259-0.64,0.365    C195.953,69.89,195.912,69.994,195.906,69.986z" />
	</g>
	<g>
		<path d="M214.158,63.252c0,0,0.2-0.081,0.597-0.165c0.396-0.084,0.996-0.169,1.769-0.086c0.771,0.07,1.718,0.337,2.689,0.939    c0.973,0.595,1.907,1.573,2.665,2.798c0.703,1.172,1.364,2.556,2.005,3.973c0.616,1.44,1.23,2.967,1.825,4.563    c0.568,1.605,1.149,3.265,1.693,4.968c0.519,1.712,1.046,3.451,1.515,5.215c0.225,0.886,0.447,1.77,0.649,2.671l0.149,0.679    l0.07,0.348l0.034,0.174l0.018,0.087l0.02,0.125l0.005,0.042c0.01,0.127,0.029,0.19,0.032,0.369    c0.003,0.171,0.003,0.35-0.006,0.513c-0.03,0.271-0.059,0.545-0.114,0.789c-0.422,1.97-1.191,3.553-1.937,5.107    c-0.756,1.54-1.596,2.946-2.402,4.266c-0.812,1.316-1.625,2.525-2.411,3.61c-1.556,2.183-2.995,3.877-4.042,5.014    c-1.058,1.128-1.71,1.711-1.71,1.711s0.571-0.676,1.468-1.94c0.904-1.256,2.129-3.101,3.48-5.39    c1.333-2.297,2.841-5.022,4.145-8.061c0.638-1.5,1.293-3.138,1.533-4.687c0.034-0.194,0.038-0.367,0.052-0.543    c-0.004-0.061-0.007-0.107-0.003-0.161c0.006-0.047-0.026-0.205-0.036-0.302l-0.141-0.541l-0.177-0.631    c-0.241-0.846-0.508-1.703-0.778-2.555c-0.528-1.711-1.056-3.428-1.608-5.104c-0.531-1.684-1.056-3.341-1.591-4.932    c-0.528-1.592-1.023-3.138-1.55-4.572c-0.513-1.451-0.987-2.762-1.542-3.96c-0.503-1.145-1.188-2.046-1.916-2.704    c-0.729-0.664-1.515-1.048-2.191-1.287c-0.681-0.227-1.256-0.305-1.649-0.337C214.371,63.228,214.158,63.252,214.158,63.252z" />
	</g>
	<g>
		<path d="M203.377,65.784c0.007,0.002,0.009-0.095,0.087-0.252c0.087-0.166,0.236-0.39,0.468-0.616    c0.453-0.473,1.178-1.032,2.095-1.589c0.913-0.569,2.022-1.131,3.24-1.642c1.216-0.516,2.542-0.985,3.894-1.351    c1.351-0.369,2.727-0.643,4.032-0.802c1.303-0.165,2.537-0.209,3.592-0.146c1.055,0.049,1.931,0.209,2.529,0.375    c0.301,0.066,0.53,0.167,0.686,0.218c0.155,0.056,0.238,0.085,0.238,0.085s-0.346,0.034-0.951,0.094    c-0.598,0.059-1.441,0.192-2.438,0.374c-0.497,0.101-1.035,0.211-1.604,0.328c-0.566,0.13-1.162,0.267-1.779,0.409    c-1.231,0.302-2.539,0.647-3.846,1.003c-1.307,0.355-2.613,0.721-3.835,1.08c-1.221,0.362-2.361,0.709-3.333,1.024    c-0.968,0.324-1.777,0.605-2.311,0.867c-0.268,0.131-0.474,0.247-0.591,0.347C203.421,65.697,203.381,65.791,203.377,65.784z" />
	</g>
	<g>
		<path d="M220.115,59.654c0,0,0.195-0.079,0.583-0.161c0.386-0.082,0.971-0.169,1.724-0.095c0.751,0.062,1.677,0.307,2.63,0.876    c0.96,0.557,1.885,1.492,2.649,2.668c0.408,0.629,0.684,1.152,1.03,1.838c0.342,0.661,0.649,1.331,0.975,2.025    c0.605,1.402,1.212,2.891,1.803,4.442c0.563,1.563,1.127,3.183,1.671,4.838c0.524,1.664,1.027,3.363,1.508,5.074    c0.233,0.858,0.446,1.723,0.654,2.591l0.3,1.31l0.135,0.676l0.017,0.084l0.018,0.105l0.006,0.041l0.021,0.163    c0.016,0.086,0.022,0.275,0.027,0.428c-0.002,1.15-0.243,2.007-0.492,2.886c-0.26,0.86-0.564,1.67-0.883,2.451    c-0.636,1.562-1.361,2.993-2.065,4.333c-0.706,1.339-1.406,2.58-2.086,3.701c-1.343,2.253-2.549,4.061-3.407,5.315    c-0.878,1.238-1.379,1.946-1.379,1.946s0.399-0.778,1.098-2.139c0.699-1.359,1.684-3.307,2.813-5.663    c1.114-2.36,2.403-5.134,3.473-8.173c0.263-0.758,0.507-1.535,0.697-2.316c0.187-0.759,0.324-1.613,0.286-2.212    c-0.007-0.065,0.004-0.095-0.022-0.225l-0.026-0.162l-0.007-0.04l-0.004-0.02c0.021,0.121,0.003,0.023,0.007,0.045l-0.02-0.075    l-0.156-0.602l-0.358-1.237c-0.258-0.829-0.517-1.662-0.774-2.495c-0.502-1.675-1.041-3.34-1.574-4.977    c-0.507-1.647-1.033-3.257-1.559-4.806c-0.493-1.563-1.01-3.053-1.512-4.456c-0.25-0.698-0.49-1.389-0.742-2.012    c-0.224-0.609-0.547-1.317-0.784-1.821c-0.511-1.103-1.197-1.964-1.914-2.598c-0.722-0.634-1.492-1.003-2.154-1.229    c-0.666-0.216-1.228-0.291-1.611-0.32C220.323,59.631,220.115,59.654,220.115,59.654z" />
	</g>
	<g>
		<path d="M203.313,110.949c0,0-0.62,0.154-1.51,0.335c-0.446,0.092-0.959,0.204-1.498,0.327c-0.273,0.05-0.54,0.153-0.822,0.207    c-0.271,0.085-0.554,0.157-0.817,0.263c-0.262,0.102-0.542,0.18-0.774,0.319c-0.119,0.066-0.246,0.119-0.364,0.179    c-0.109,0.073-0.216,0.144-0.322,0.215c-0.233,0.126-0.368,0.323-0.559,0.47c-0.15,0.176-0.263,0.368-0.403,0.538    c-0.075,0.198-0.158,0.385-0.237,0.557c-0.075,0.173-0.08,0.343-0.119,0.48c-0.061,0.277-0.107,0.45-0.107,0.45    s-0.048-0.155-0.114-0.451c-0.021-0.147-0.096-0.333-0.081-0.548c0.011-0.214,0.025-0.467,0.064-0.743    c0.093-0.251,0.18-0.556,0.338-0.829c0.185-0.24,0.351-0.569,0.618-0.759c0.247-0.227,0.508-0.452,0.81-0.596    c0.289-0.184,0.599-0.291,0.906-0.421c0.624-0.205,1.255-0.337,1.849-0.374c0.593-0.044,1.144-0.031,1.612,0.031    C202.714,110.701,203.313,110.949,203.313,110.949z" />
	</g>
	<g>
		<path d="M214.655,107.705c0,0-0.52,0.258-1.3,0.646c-0.386,0.186-0.829,0.407-1.295,0.646c-0.464,0.244-0.949,0.509-1.402,0.813    c-0.215,0.161-0.462,0.291-0.646,0.476c-0.097,0.088-0.196,0.171-0.3,0.25l-0.253,0.274c-0.184,0.173-0.286,0.379-0.42,0.564    c-0.119,0.191-0.165,0.4-0.259,0.587c-0.042,0.196-0.061,0.387-0.097,0.562c-0.038,0.176,0.007,0.329,0,0.462    c0.007,0.273,0.01,0.429,0.01,0.429s-0.073-0.129-0.19-0.381c-0.046-0.129-0.157-0.277-0.176-0.476    c-0.027-0.196-0.075-0.428-0.076-0.683c0.042-0.245,0.047-0.545,0.157-0.815c0.115-0.264,0.217-0.577,0.417-0.809    c0.175-0.263,0.375-0.506,0.613-0.709c0.221-0.232,0.484-0.388,0.73-0.582c0.52-0.323,1.058-0.596,1.582-0.775    c0.521-0.187,1.018-0.314,1.451-0.381C214.065,107.651,214.655,107.705,214.655,107.705z" />
	</g>
	<line class="st2" x1="173.822" y1="159.359" x2="153.193" y2="194.773" />
	<g>
		<path d="M213.805,109.566c0,0,0.409-0.769,1.135-1.789c0.72-1.028,1.746-2.32,2.84-3.534c1.09-1.22,2.246-2.363,3.133-3.203    c0.447-0.421,0.819-0.773,1.08-1.018c0.249-0.255,0.41-0.404,0.41-0.404s-0.055,0.207-0.182,0.576    c-0.143,0.352-0.368,0.851-0.693,1.401c-0.639,1.112-1.633,2.465-2.742,3.689c-1.102,1.233-2.315,2.342-3.285,3.104    C214.537,109.158,213.805,109.566,213.805,109.566z" />
	</g>
</g>
<g>
	<g id="Färg_1_">
		
			<linearGradient id="SVGID_00000172407600295961230640000014117706882511038882_" gradientUnits="userSpaceOnUse" x1="284.5538" y1="191.7826" x2="293.0861" y2="179.1134" gradientTransform="matrix(0.9084 -0.4181 0.4181 0.9084 -57.9946 151.3245)">
			<stop offset="0" style="stop-color:#FFFFFF" />
			<stop offset="1" style="stop-color:#EDEDED" />
		</linearGradient>
		<polygon style="fill:url(#SVGID_00000172407600295961230640000014117706882511038882_);" points="305.309,207.699     303.705,185.168 304.468,169.106 300.907,170.998 287.386,172.414 276.059,171.054 264.827,167.788 255.714,207.488   " />
	</g>
	<g>
		<path d="M263.187,14.906c1.138-0.634,2.386-1.067,3.684-1.271c1.296-0.212,2.661-0.147,3.972,0.273    c1.313,0.415,2.523,1.263,3.466,2.351c0.954,1.084,1.653,2.384,2.152,3.731c1.017,2.702,1.382,5.561,1.497,8.368    c0.134,2.816-0.039,5.612-0.315,8.379l-0.155-0.773c0.262,0.485,0.453,0.896,0.654,1.347c0.195,0.443,0.376,0.889,0.548,1.338    c0.342,0.899,0.641,1.813,0.891,2.743c0.504,1.857,0.854,3.759,1.04,5.682c0.19,1.921,0.216,3.864,0.056,5.788    c-0.167,1.924-0.491,3.828-0.971,5.683l-0.006-0.576c0.52,2.113,0.886,4.211,1.237,6.332c0.168,1.059,0.334,2.119,0.455,3.187    c0.132,1.065,0.232,2.136,0.33,3.205c0.075,1.073,0.173,2.141,0.189,3.218c0.011,0.538,0.046,1.073,0.037,1.612l-0.005,1.612    c-0.008,0.537-0.05,1.075-0.074,1.61c-0.019,0.536-0.069,1.071-0.127,1.604c-0.06,0.533-0.093,1.067-0.196,1.593l-0.268,1.577    l0.056-1.598c0.034-0.529-0.013-1.064-0.007-1.593c0.01-1.059-0.091-2.118-0.149-3.171l-0.141-1.579    c-0.04-0.526-0.122-1.049-0.181-1.573c-0.121-1.047-0.285-2.091-0.435-3.133c-0.33-2.082-0.742-4.148-1.172-6.207    c-0.219-1.028-0.454-2.053-0.706-3.072c-0.252-1.015-0.513-2.043-0.783-3.028l-0.074-0.273l0.069-0.303    c0.397-1.743,0.647-3.519,0.751-5.303c0.081-1.784,0.061-3.575-0.135-5.35c-0.188-1.774-0.529-3.531-1.011-5.238    c-0.244-0.852-0.512-1.697-0.815-2.523c-0.154-0.412-0.315-0.82-0.486-1.22c-0.167-0.39-0.363-0.812-0.532-1.132l-0.199-0.377    l0.044-0.396c0.149-1.34,0.271-2.681,0.351-4.022c0.078-1.341,0.14-2.679,0.128-4.013c-0.032-2.659-0.25-5.329-0.993-7.789    c-0.381-1.222-0.9-2.383-1.618-3.375c-0.714-0.999-1.665-1.771-2.753-2.286c-1.094-0.511-2.327-0.706-3.57-0.702    C265.672,14.29,264.405,14.488,263.187,14.906z" />
	</g>
	<path class="st6" d="M267.783,168.422c0,0,10.202,7.482,33.766,2.441" />
	<g>
		<path d="M265.341,15.551c0,0,0.235,0.001,0.638,0.081c0.399,0.087,0.984,0.205,1.64,0.538c0.331,0.161,0.675,0.383,1.009,0.692    c0.335,0.303,0.642,0.744,0.795,1.297c0.079,0.269,0.093,0.588,0.074,0.851c-0.014,0.235-0.041,0.503-0.068,0.745    c-0.059,0.497-0.137,0.998-0.248,1.49c-0.411,1.967-1.211,3.894-2.269,4.996c-0.518,0.556-1.098,0.838-1.503,0.932    c-0.204,0.051-0.369,0.055-0.477,0.051c-0.109-0.003-0.167-0.005-0.167-0.005s0.236-0.04,0.59-0.219    c0.358-0.168,0.795-0.546,1.176-1.118c0.785-1.133,1.366-2.98,1.753-4.852c0.088-0.471,0.176-0.942,0.242-1.407    c0.032-0.239,0.059-0.45,0.077-0.69c0.013-0.211,0.021-0.369-0.014-0.548c-0.132-0.701-0.73-1.275-1.258-1.673    c-0.543-0.399-1.05-0.694-1.413-0.875C265.551,15.654,265.341,15.551,265.341,15.551z" />
	</g>
	<path class="st2" d="M264.277,76.434c0.195-1.734,1.157-29.274,1.157-29.274l-1.428-20.038" />
	<path class="st2" d="M272.272,90.717c0,0,18.767-10.187,23.663-12.759c4.896-2.571,13.916,7.849,17.584,12.094   s4.421,9.09,3.359,11.662" />
	<path class="st2" d="M275.703,100.054c0,0,25.006-6.687,28.238-6.534c3.232,0.153,13.588,10.516,15.863,14.359   c2.276,3.842-1.69,10.345-1.69,10.345" />
	<line class="st2" x1="318.295" y1="117.671" x2="315.149" y2="127.302" />
	<path class="st2" d="M314.075,73.53c0,0,3.45-9.256,13.75-5.33" />
	<line class="st2" x1="328.139" y1="68.594" x2="325.494" y2="80.22" />
	<path class="st2" d="M325.349,76.323c0,0,2.612,10.342,1.366,13.735c-1.246,3.394-5.692,14.505-5.692,14.505" />
	<path class="st2" d="M314.389,129.863c0,0-1.537,13.132-10.371,25.187l1.563,48.768" />
	<line class="st2" x1="264.958" y1="26.398" x2="263.881" y2="15.527" />
	<g>
		<path d="M295.48,112.137c0.487,0.186,0.989,0.294,1.482,0.406c0.5,0.086,0.994,0.167,1.492,0.202    c0.249,0.013,0.494,0.041,0.744,0.032c0.248-0.005,0.492,0.021,0.738-0.001c0.491-0.014,0.978-0.071,1.459-0.146    c0.242-0.02,0.479-0.09,0.718-0.132c0.238-0.046,0.476-0.093,0.707-0.172l0.698-0.207l0.683-0.258    c0.462-0.146,0.892-0.396,1.334-0.595c0.222-0.097,0.426-0.244,0.64-0.363l0.639-0.364l1.347-0.766l-0.013,1.648    c-0.001,0.112,0.003,0.284,0.011,0.431l0.037,0.459c0.033,0.305,0.079,0.608,0.142,0.901c0.135,0.581,0.295,1.145,0.554,1.599    c0.255,0.459,0.581,0.799,0.981,1.01c0.392,0.231,0.896,0.308,1.432,0.29l2.045-0.07l-1.386,1.523    c-0.14,0.153-0.318,0.396-0.464,0.611c-0.154,0.222-0.297,0.455-0.423,0.696c-0.259,0.48-0.454,0.992-0.573,1.516    c-0.239,1.048-0.151,2.16,0.324,3.166c0.468,1.002,1.222,1.908,2.099,2.661c0.438,0.38,0.898,0.742,1.38,1.073    c0.48,0.336,0.976,0.651,1.482,0.957c-0.548-0.198-1.102-0.393-1.637-0.643s-1.063-0.529-1.574-0.852    c-1.005-0.658-1.981-1.489-2.657-2.644c-0.339-0.571-0.598-1.22-0.732-1.908c-0.14-0.688-0.131-1.407-0.028-2.095    c0.105-0.69,0.308-1.353,0.584-1.97c0.135-0.311,0.289-0.61,0.459-0.9c0.179-0.296,0.345-0.551,0.594-0.856l0.659,1.453    c-0.726,0.093-1.538,0.069-2.308-0.282c-0.775-0.335-1.398-1.001-1.81-1.702c-0.419-0.709-0.667-1.465-0.805-2.217    c-0.071-0.376-0.119-0.752-0.149-1.128c-0.016-0.188-0.025-0.376-0.031-0.565c-0.006-0.195-0.007-0.366,0.001-0.596l1.334,0.882    l-0.729,0.38c-0.248,0.116-0.482,0.258-0.741,0.351c-0.513,0.19-1.006,0.425-1.537,0.555c-0.262,0.074-0.521,0.156-0.785,0.218    l-0.802,0.136c-0.265,0.053-0.535,0.075-0.804,0.093c-0.27,0.015-0.536,0.056-0.806,0.047c-0.539,0-1.074-0.035-1.604-0.109    c-0.53-0.071-1.054-0.182-1.563-0.341C297.3,113.251,296.319,112.792,295.48,112.137z" />
	</g>
	<g>
		<path d="M299.682,112.082c0,0,0.175,0.034,0.456,0.165c0.28,0.129,0.669,0.352,1.066,0.724c0.204,0.181,0.413,0.396,0.606,0.654    c0.202,0.249,0.374,0.553,0.544,0.872c0.145,0.334,0.309,0.68,0.386,1.069c0.116,0.378,0.145,0.782,0.172,1.186    c0.024,0.403-0.041,0.804-0.082,1.195c-0.087,0.379-0.195,0.747-0.314,1.089c-0.152,0.326-0.311,0.631-0.465,0.912    c-0.17,0.269-0.372,0.492-0.543,0.701c-0.325,0.434-0.722,0.668-0.96,0.856c-0.253,0.176-0.408,0.258-0.408,0.258    s0.035-0.193,0.113-0.499c0.066-0.312,0.232-0.704,0.333-1.195c0.06-0.233,0.126-0.486,0.195-0.753    c0.045-0.267,0.097-0.54,0.163-0.811c0.031-0.279,0.056-0.56,0.102-0.838c-0.017-0.282,0.039-0.563,0.008-0.843    c-0.009-0.561-0.104-1.116-0.223-1.656c-0.078-0.262-0.134-0.534-0.224-0.781c-0.082-0.252-0.16-0.499-0.25-0.724    c-0.176-0.45-0.342-0.846-0.469-1.125C299.765,112.251,299.682,112.082,299.682,112.082z" />
	</g>
	<g>
		<path d="M301.056,118.808c0,0,0.117,0.061,0.283,0.274c0.164,0.202,0.394,0.509,0.65,0.926c0.508,0.834,1.204,2.055,1.875,3.611    c0.67,1.554,1.356,3.426,1.874,5.505c0.53,2.075,0.91,4.35,1.043,6.653c0.062,1.151,0.064,2.307,0.006,3.441    c-0.043,1.136-0.197,2.246-0.362,3.312c-0.091,0.532-0.201,1.051-0.308,1.558c-0.132,0.5-0.262,0.99-0.388,1.466    c-0.284,0.942-0.587,1.819-0.927,2.6c-0.301,0.798-0.69,1.474-0.991,2.088c-0.347,0.59-0.633,1.112-0.895,1.522    c-0.544,0.809-0.867,1.255-0.867,1.255s0.235-0.513,0.664-1.384c0.209-0.439,0.428-0.992,0.695-1.61    c0.22-0.644,0.516-1.345,0.748-2.145c0.26-0.789,0.478-1.664,0.704-2.586c0.204-0.93,0.372-1.918,0.515-2.946    c0.128-1.03,0.207-2.1,0.247-3.189c0.043-1.089,0.025-2.198-0.046-3.304c-0.229-4.436-1.3-8.791-2.35-11.955    c-0.532-1.58-1.025-2.888-1.438-3.768c-0.208-0.438-0.368-0.787-0.499-1.01C301.168,118.899,301.056,118.808,301.056,118.808z" />
	</g>
	<polyline class="st0" points="277.484,70.146 283.584,66.019 285.053,81.191 282.115,83.255 276.467,83.619  " />
	<path class="st2" d="M256.876,202.486c0,0,8.645-36.771,8.59-43.099s-10.428-62.227-9.868-67.114   c0.561-4.886,16.689-16.077,22.509-20.125s15.002-9.854,18.734-7.524s17.379,11.436,18.569,15.247   c1.189,3.811,1.385,12.002,1.385,12.002" />
</g>
<g>
	<g id="Färg_2_">
		
			<linearGradient id="SVGID_00000181082252886876877500000004670982462797949575_" gradientUnits="userSpaceOnUse" x1="370.7857" y1="231.4717" x2="379.318" y2="218.8026" gradientTransform="matrix(0.9084 -0.4181 0.4181 0.9084 -57.9946 151.3245)">
			<stop offset="0" style="stop-color:#FFFFFF" />
			<stop offset="1" style="stop-color:#EDEDED" />
		</linearGradient>
		<polygon style="fill:url(#SVGID_00000181082252886876877500000004670982462797949575_);" points="400.236,207.699     398.632,185.168 399.395,169.106 395.834,170.998 382.313,172.414 370.986,171.054 359.755,167.788 350.641,207.488   " />
	</g>
	<g>
		<path d="M358.114,14.906c1.138-0.634,2.386-1.067,3.684-1.271c1.296-0.212,2.661-0.147,3.972,0.273    c1.313,0.415,2.523,1.263,3.466,2.351c0.954,1.084,1.653,2.384,2.152,3.731c1.017,2.702,1.382,5.561,1.497,8.368    c0.134,2.816-0.039,5.612-0.315,8.379l-0.155-0.773c0.262,0.485,0.453,0.896,0.654,1.347c0.195,0.443,0.376,0.889,0.548,1.338    c0.342,0.899,0.641,1.813,0.891,2.743c0.504,1.857,0.854,3.759,1.04,5.682c0.19,1.921,0.216,3.864,0.056,5.788    c-0.167,1.924-0.491,3.828-0.971,5.683l-0.006-0.576c0.52,2.113,0.886,4.211,1.237,6.332c0.168,1.059,0.334,2.119,0.455,3.187    c0.132,1.065,0.232,2.136,0.33,3.205c0.075,1.073,0.173,2.141,0.189,3.218c0.011,0.538,0.046,1.073,0.037,1.612l-0.005,1.612    c-0.008,0.537-0.05,1.075-0.074,1.61c-0.019,0.536-0.069,1.071-0.127,1.604c-0.06,0.533-0.093,1.067-0.196,1.593l-0.268,1.577    l0.056-1.598c0.034-0.529-0.013-1.064-0.007-1.593c0.01-1.059-0.091-2.118-0.149-3.171l-0.141-1.579    c-0.04-0.526-0.122-1.049-0.181-1.573c-0.121-1.047-0.285-2.091-0.435-3.133c-0.33-2.082-0.742-4.148-1.172-6.207    c-0.219-1.028-0.454-2.053-0.706-3.072c-0.252-1.015-0.513-2.043-0.783-3.028l-0.074-0.273l0.069-0.303    c0.397-1.743,0.647-3.519,0.751-5.303c0.081-1.784,0.061-3.575-0.135-5.35c-0.188-1.774-0.529-3.531-1.011-5.238    c-0.244-0.852-0.512-1.697-0.815-2.523c-0.154-0.412-0.315-0.82-0.486-1.22c-0.167-0.39-0.363-0.812-0.532-1.132l-0.199-0.377    l0.044-0.396c0.149-1.34,0.271-2.681,0.351-4.022c0.078-1.341,0.14-2.679,0.128-4.013c-0.032-2.659-0.25-5.329-0.993-7.789    c-0.381-1.222-0.9-2.383-1.618-3.375c-0.714-0.999-1.665-1.771-2.753-2.286c-1.094-0.511-2.327-0.706-3.57-0.702    C360.6,14.29,359.332,14.488,358.114,14.906z" />
	</g>
	<path class="st6" d="M362.71,168.422c0,0,10.202,7.482,33.766,2.441" />
	<g>
		<path d="M360.268,15.551c0,0,0.235,0.001,0.638,0.081c0.399,0.087,0.984,0.205,1.64,0.538c0.331,0.161,0.675,0.383,1.009,0.692    c0.335,0.303,0.642,0.744,0.795,1.297c0.079,0.269,0.093,0.588,0.074,0.851c-0.014,0.235-0.041,0.503-0.068,0.745    c-0.059,0.497-0.137,0.998-0.248,1.49c-0.411,1.967-1.211,3.894-2.269,4.996c-0.518,0.556-1.098,0.838-1.503,0.932    c-0.204,0.051-0.369,0.055-0.477,0.051c-0.109-0.003-0.167-0.005-0.167-0.005s0.236-0.04,0.59-0.219    c0.358-0.168,0.795-0.546,1.176-1.118c0.785-1.133,1.366-2.98,1.753-4.852c0.088-0.471,0.176-0.942,0.242-1.407    c0.032-0.239,0.059-0.45,0.077-0.69c0.013-0.211,0.021-0.369-0.014-0.548c-0.132-0.701-0.73-1.275-1.258-1.673    c-0.543-0.399-1.05-0.694-1.413-0.875C360.479,15.654,360.268,15.551,360.268,15.551z" />
	</g>
	<path class="st2" d="M359.205,76.434c0.195-1.734,1.157-29.274,1.157-29.274l-1.428-20.038" />
	<path class="st2" d="M367.199,90.717c0,0,18.767-10.187,23.663-12.759c4.896-2.571,13.916,7.849,17.584,12.094   s4.421,9.09,3.359,11.662" />
	<path class="st2" d="M370.63,100.054c0,0,25.006-6.687,28.238-6.534c3.232,0.153,13.588,10.516,15.863,14.359   c2.276,3.842-1.69,10.345-1.69,10.345" />
	<line class="st2" x1="413.222" y1="117.671" x2="410.077" y2="127.302" />
	<path class="st2" d="M409.003,73.53c0,0,3.45-9.256,13.75-5.33" />
	<line class="st2" x1="423.066" y1="68.594" x2="420.421" y2="80.22" />
	<path class="st2" d="M420.276,76.323c0,0,2.612,10.342,1.366,13.735c-1.246,3.394-5.692,14.505-5.692,14.505" />
	<path class="st2" d="M409.316,129.863c0,0-1.537,13.132-10.371,25.187l1.563,48.768" />
	<line class="st2" x1="359.885" y1="26.398" x2="358.808" y2="15.527" />
	<g>
		<path d="M390.407,112.137c0.487,0.186,0.989,0.294,1.482,0.406c0.5,0.086,0.994,0.167,1.492,0.202    c0.249,0.013,0.494,0.041,0.744,0.032c0.248-0.005,0.492,0.021,0.738-0.001c0.491-0.014,0.978-0.071,1.459-0.146    c0.242-0.02,0.479-0.09,0.718-0.132c0.238-0.046,0.476-0.093,0.707-0.172l0.698-0.207l0.683-0.258    c0.462-0.146,0.892-0.396,1.334-0.595c0.222-0.097,0.426-0.244,0.64-0.363l0.639-0.364l1.347-0.766l-0.013,1.648    c-0.001,0.112,0.003,0.284,0.011,0.431l0.037,0.459c0.033,0.305,0.079,0.608,0.142,0.901c0.135,0.581,0.295,1.145,0.554,1.599    c0.255,0.459,0.581,0.799,0.981,1.01c0.392,0.231,0.896,0.308,1.432,0.29l2.045-0.07l-1.386,1.523    c-0.14,0.153-0.318,0.396-0.464,0.611c-0.154,0.222-0.297,0.455-0.423,0.696c-0.259,0.48-0.454,0.992-0.573,1.516    c-0.239,1.048-0.151,2.16,0.324,3.166c0.468,1.002,1.222,1.908,2.099,2.661c0.438,0.38,0.898,0.742,1.38,1.073    c0.48,0.336,0.976,0.651,1.482,0.957c-0.548-0.198-1.102-0.393-1.637-0.643s-1.063-0.529-1.574-0.852    c-1.005-0.658-1.981-1.489-2.657-2.644c-0.339-0.571-0.598-1.22-0.732-1.908c-0.14-0.688-0.131-1.407-0.028-2.095    c0.105-0.69,0.308-1.353,0.584-1.97c0.135-0.311,0.289-0.61,0.459-0.9c0.179-0.296,0.345-0.551,0.594-0.856l0.659,1.453    c-0.726,0.093-1.538,0.069-2.308-0.282c-0.775-0.335-1.398-1.001-1.81-1.702c-0.419-0.709-0.667-1.465-0.805-2.217    c-0.071-0.376-0.119-0.752-0.149-1.128c-0.016-0.188-0.025-0.376-0.031-0.565c-0.006-0.195-0.007-0.366,0.001-0.596l1.334,0.882    l-0.729,0.38c-0.248,0.116-0.482,0.258-0.741,0.351c-0.513,0.19-1.006,0.425-1.537,0.555c-0.262,0.074-0.521,0.156-0.785,0.218    l-0.802,0.136c-0.265,0.053-0.535,0.075-0.804,0.093c-0.27,0.015-0.536,0.056-0.806,0.047c-0.539,0-1.074-0.035-1.604-0.109    c-0.53-0.071-1.054-0.182-1.563-0.341C392.227,113.251,391.246,112.792,390.407,112.137z" />
	</g>
	<g>
		<path d="M394.609,112.082c0,0,0.175,0.034,0.456,0.165c0.28,0.129,0.669,0.352,1.066,0.724c0.204,0.181,0.413,0.396,0.606,0.654    c0.202,0.249,0.374,0.553,0.544,0.872c0.145,0.334,0.309,0.68,0.386,1.069c0.116,0.378,0.145,0.782,0.172,1.186    c0.024,0.403-0.041,0.804-0.082,1.195c-0.087,0.379-0.195,0.747-0.314,1.089c-0.152,0.326-0.311,0.631-0.465,0.912    c-0.17,0.269-0.372,0.492-0.543,0.701c-0.325,0.434-0.722,0.668-0.96,0.856c-0.253,0.176-0.408,0.258-0.408,0.258    s0.035-0.193,0.113-0.499c0.066-0.312,0.232-0.704,0.333-1.195c0.06-0.233,0.126-0.486,0.195-0.753    c0.045-0.267,0.097-0.54,0.163-0.811c0.031-0.279,0.056-0.56,0.102-0.838c-0.017-0.282,0.039-0.563,0.008-0.843    c-0.009-0.561-0.104-1.116-0.223-1.656c-0.078-0.262-0.134-0.534-0.224-0.781c-0.082-0.252-0.16-0.499-0.25-0.724    c-0.176-0.45-0.342-0.846-0.469-1.125C394.692,112.251,394.609,112.082,394.609,112.082z" />
	</g>
	<g>
		<path d="M395.983,118.808c0,0,0.117,0.061,0.283,0.274c0.164,0.202,0.394,0.509,0.65,0.926c0.508,0.834,1.204,2.055,1.875,3.611    c0.67,1.554,1.356,3.426,1.874,5.505c0.53,2.075,0.91,4.35,1.043,6.653c0.062,1.151,0.064,2.307,0.006,3.441    c-0.043,1.136-0.197,2.246-0.362,3.312c-0.091,0.532-0.201,1.051-0.308,1.558c-0.132,0.5-0.262,0.99-0.388,1.466    c-0.284,0.942-0.587,1.819-0.927,2.6c-0.301,0.798-0.69,1.474-0.991,2.088c-0.347,0.59-0.633,1.112-0.895,1.522    c-0.544,0.809-0.867,1.255-0.867,1.255s0.235-0.513,0.664-1.384c0.209-0.439,0.428-0.992,0.695-1.61    c0.22-0.644,0.516-1.345,0.748-2.145c0.26-0.789,0.478-1.664,0.704-2.586c0.204-0.93,0.372-1.918,0.515-2.946    c0.128-1.03,0.207-2.1,0.247-3.189c0.043-1.089,0.025-2.198-0.046-3.304c-0.229-4.436-1.3-8.791-2.35-11.955    c-0.532-1.58-1.025-2.888-1.438-3.768c-0.208-0.438-0.368-0.787-0.499-1.01C396.095,118.899,395.983,118.808,395.983,118.808z" />
	</g>
	<polyline class="st0" points="372.411,70.146 378.511,66.019 379.98,81.191 377.043,83.255 371.394,83.619  " />
	<path class="st2" d="M351.803,202.486c0,0,8.645-36.771,8.59-43.099s-10.428-62.227-9.868-67.114   c0.561-4.886,16.689-16.077,22.509-20.125s15.002-9.854,18.734-7.524s17.379,11.436,18.569,15.247   c1.189,3.811,1.385,12.002,1.385,12.002" />
</g>
<g>
	<g id="Färg_6_">
		
			<linearGradient id="SVGID_00000043416080446504545430000009749022707705941426_" gradientUnits="userSpaceOnUse" x1="8.3367" y1="143.5184" x2="24.7242" y2="136.7706" gradientTransform="matrix(1 0 0 1 0 -0.6617)">
			<stop offset="0" style="stop-color:#FFFFFF" />
			<stop offset="1" style="stop-color:#EDEDED" />
		</linearGradient>
		<polyline style="fill:url(#SVGID_00000043416080446504545430000009749022707705941426_);" points="43.68,143.452 36.933,125.702     33.21,112.202 9.478,119.702 1.139,122.489 11.339,164.952 43.447,143.452   " />
	</g>
	<g id="Färg_5_" class="st9">
		
			<linearGradient id="SVGID_00000017475133955571761870000003342781715494921345_" gradientUnits="userSpaceOnUse" x1="8.4281" y1="143.1148" x2="24.8156" y2="136.367" gradientTransform="matrix(1 0 0 1 0 -0.6617)">
			<stop offset="0" style="stop-color:#FFFFFF" />
			<stop offset="1" style="stop-color:#EDEDED" />
		</linearGradient>
		<polyline style="fill:url(#SVGID_00000017475133955571761870000003342781715494921345_);" points="43.68,142.827 36.933,125.077     33.21,111.577 9.478,119.077 4.623,120.948 11.339,164.327 43.867,145.693   " />
	</g>
	<path class="st2" d="M8.793,120.007c0,0,33.434-13.271,43.189-17.545" />
	<path class="st2" d="M23.578,156.131c0,0,24.479-13.884,38.308-17.422" />
	<path class="st2" d="M48.057,106.553c0,0,7.632-15.55,27.122-13.775" />
	<path class="st2" d="M72.178,94.054c0,0,10.077-5.185,16.105-6.004c6.028-0.819,12.374,1.734,17.089,3.504   c4.715,1.77,8.51,0.993,8.036,5.528c-0.474,4.536-3.104,12.124-11.294,10.847s-11.051,0.2-11.051,0.2" />
	<path class="st2" d="M55.825,130.273c0,0,19.258,13.929,28.354,24.855" />
	<path class="st2" d="M94.825,108.054c-2.16,0.12-9.417,5.775-9.417,5.775" />
	<path class="st2" d="M96.056,108.485c0,0-4.295,7.194-3.54,15.714" />
	<path class="st2" d="M95.266,116.363c0,0,5.267,2.233,7.066,6.295" />
	<path class="st2" d="M100.718,121.72c0,0,13.262,5.083,17.799,20.708" />
	<path class="st6" d="M34.358,113.596c0,0,4.329,18.391,9.061,28.052" />
	<path class="st2" d="M117.442,141.848c0,0,6.648,4.317,7.346,9.567" />
	<g>
		<path d="M111.25,144.802c0,0,0.252-0.095,0.724-0.106c0.466-0.009,1.164,0.077,1.927,0.455c0.19,0.094,0.378,0.21,0.582,0.325    c0.188,0.133,0.379,0.281,0.571,0.439c0.371,0.329,0.744,0.709,1.062,1.157c0.315,0.449,0.616,0.928,0.86,1.449    c0.121,0.26,0.225,0.527,0.33,0.797l0.078,0.203l0.044,0.123l0.031,0.096l0.122,0.384c0.154,0.491,0.306,1.101,0.405,1.648    c0.112,0.553,0.154,1.114,0.189,1.654c0.058,1.085-0.062,2.116-0.289,2.948c-0.212,0.839-0.532,1.47-0.755,1.891    c-0.23,0.419-0.357,0.663-0.357,0.663s-0.024-0.286,0.002-0.774c0.023-0.487,0.068-1.16,0.051-1.933    c-0.024-0.777-0.109-1.654-0.279-2.585c-0.079-0.467-0.207-0.94-0.321-1.425c-0.132-0.489-0.237-0.928-0.413-1.46l-0.114-0.387    l-0.029-0.097l-0.007-0.024c0.012,0.039,0,0.001,0,0.001l-0.016-0.043l-0.063-0.173c-0.088-0.227-0.153-0.467-0.243-0.689    c-0.098-0.217-0.185-0.437-0.27-0.658c-0.102-0.208-0.204-0.413-0.303-0.614c-0.224-0.384-0.439-0.757-0.681-1.087    c-0.25-0.316-0.498-0.614-0.755-0.864c-0.518-0.491-1.039-0.831-1.432-1.033C111.506,144.878,111.25,144.802,111.25,144.802z" />
	</g>
	<g>
		<path d="M116.008,156.887c0,0,0.02-0.054,0.059-0.154c0.047-0.088,0.124-0.265,0.238-0.426c0.217-0.352,0.577-0.809,1.078-1.289    c0.501-0.475,1.146-0.97,1.915-1.359c0.381-0.201,0.799-0.362,1.226-0.51c0.437-0.116,0.879-0.257,1.34-0.297l0.687-0.072    c0.23-0.005,0.46,0.011,0.686,0.018c0.455-0.007,0.895,0.097,1.317,0.188c0.425,0.068,0.811,0.253,1.176,0.395    c0.37,0.132,0.688,0.337,0.975,0.528c0.288,0.188,0.555,0.345,0.758,0.543c0.21,0.186,0.381,0.365,0.521,0.508    c0.278,0.29,0.421,0.468,0.421,0.468s-0.228-0.036-0.598-0.119c-0.184-0.044-0.407-0.091-0.649-0.165    c-0.242-0.074-0.538-0.087-0.831-0.16c-0.298-0.061-0.615-0.127-0.957-0.147c-0.339-0.029-0.681-0.107-1.046-0.094    c-0.361-0.009-0.728-0.041-1.103-0.005l-0.563,0.021l-0.565,0.077c-0.381,0.017-0.749,0.137-1.124,0.189    c-0.366,0.097-0.734,0.177-1.086,0.286c-0.708,0.205-1.363,0.463-1.944,0.68c-0.564,0.245-1.06,0.447-1.397,0.616    c-0.17,0.081-0.304,0.145-0.396,0.188C116.058,156.856,116.008,156.887,116.008,156.887z" />
	</g>
	<g>
		<path d="M149.034,149.363c0,0-0.328-0.338-0.927-0.866c-0.287-0.271-0.67-0.56-1.095-0.889c-0.439-0.311-0.947-0.627-1.519-0.905    c-0.572-0.275-1.215-0.495-1.902-0.634c-0.339-0.091-0.706-0.09-1.067-0.144c-0.371,0.02-0.741-0.026-1.125,0.016    c-0.383,0.034-0.77,0.055-1.161,0.149l-0.589,0.115l-0.592,0.167c-0.399,0.089-0.794,0.236-1.189,0.381    c-0.399,0.128-0.788,0.311-1.179,0.487c-0.392,0.168-0.783,0.35-1.166,0.55l-0.578,0.288c-0.136,0.059-0.369,0.21-0.549,0.31    c-0.795,0.452-1.467,0.881-2.124,1.334c-0.651,0.484-1.259,0.977-1.808,1.484c-0.53,0.524-1.016,1.044-1.416,1.57    c-0.203,0.262-0.39,0.52-0.544,0.782c-0.177,0.25-0.315,0.505-0.447,0.747c-0.258,0.486-0.449,0.935-0.585,1.317    c-0.268,0.767-0.324,1.254-0.324,1.254s-0.113-0.477-0.048-1.343c0.036-0.43,0.112-0.956,0.284-1.536    c0.162-0.583,0.403-1.231,0.758-1.881c0.334-0.667,0.787-1.328,1.316-1.981c0.262-0.328,0.562-0.631,0.854-0.961    c0.309-0.308,0.647-0.59,0.981-0.894c0.7-0.576,1.47-1.156,2.219-1.585c0.206-0.122,0.342-0.225,0.606-0.363l0.614-0.326    c0.409-0.221,0.821-0.443,1.26-0.609c0.432-0.181,0.86-0.368,1.311-0.503c0.444-0.149,0.885-0.299,1.345-0.392    c0.45-0.123,0.907-0.19,1.367-0.231c0.452-0.07,0.912-0.064,1.36-0.067c0.448-0.016,0.893,0.071,1.321,0.118    c0.424,0.113,0.846,0.174,1.235,0.329c0.793,0.253,1.484,0.657,2.073,1.074c0.595,0.413,1.064,0.889,1.458,1.316    c0.384,0.439,0.687,0.846,0.915,1.2c0.244,0.339,0.381,0.635,0.493,0.826C148.976,149.259,149.034,149.363,149.034,149.363z" />
	</g>
	<path class="st2" d="M143.18,156.929" />
	<line class="st2" x1="142.715" y1="155.911" x2="147.99" y2="149.698" />
	<path class="st2" d="M143.799,154.634l-2.713,7.545c0,0-0.581,2.371-3.723,4.625c-3.142,2.254-15.356,5.375-17.217,5.375   c-1.861,0-5.537,1.859-7.943-0.518c-1.964-1.939-17.925-16.24-17.925-16.24" />
	<g>
		<path d="M141.597,143.342c0,0,0.32-0.642,1.052-1.295c0.36-0.333,0.815-0.677,1.348-0.958c0.528-0.291,1.134-0.516,1.762-0.666    c0.32-0.049,0.633-0.131,0.956-0.134c0.32-0.017,0.633-0.031,0.941,0.014c0.305,0.033,0.597,0.07,0.871,0.16    c0.273,0.083,0.526,0.153,0.749,0.279c0.453,0.205,0.79,0.454,1.004,0.667c0.218,0.2,0.326,0.328,0.326,0.328    s-0.172,0.026-0.446,0.048c-0.136,0.009-0.298,0.021-0.475,0.024c-0.183,0.026-0.385,0.055-0.595,0.064    c-0.208,0.004-0.44,0.07-0.673,0.091c-0.232,0.016-0.477,0.075-0.727,0.112c-0.248,0.026-0.505,0.101-0.765,0.14    c-0.26,0.04-0.524,0.117-0.788,0.165c-1.059,0.228-2.14,0.525-3.017,0.691C142.258,143.264,141.597,143.342,141.597,143.342z" />
	</g>
	<line class="st2" x1="150.509" y1="142.679" x2="149.519" y2="151.14" />
	<path class="st2" d="M149.927,151.679l-2.327,15c0,0-0.465,2-2.792,3.625s-16.636,10.625-18.497,11.375   c-1.861,0.75-5.351,2.001-6.631,0.375c-1.28-1.625-29.665-23.125-29.665-23.125s-5.734,0.613-8.917-6.693" />
	<g>
		<path d="M150.867,145.751c0.645-0.01,1.281,0.124,1.909,0.36c0.615,0.253,1.258,0.618,1.716,1.371l0.123,0.202l-0.108,0.368    c-0.377,1.281-0.875,2.503-1.461,3.68c-0.29,0.59-0.624,1.159-0.975,1.719c-0.359,0.557-0.745,1.1-1.212,1.603    c0.05-0.708,0.181-1.377,0.339-2.033c0.166-0.652,0.349-1.295,0.575-1.917c0.448-1.246,0.984-2.449,1.641-3.592l0.014,0.569    c-0.151-0.421-0.55-0.875-1.014-1.251C151.951,146.435,151.418,146.102,150.867,145.751z" />
	</g>
	<g>
		<path d="M85.07,149.633c0,0,0.122,0.174,0.335,0.456c0.21,0.284,0.507,0.676,0.86,1.123c0.353,0.448,0.778,0.936,1.227,1.439    c0.468,0.484,0.948,1.001,1.491,1.437c0.248,0.25,0.544,0.429,0.805,0.653c0.266,0.218,0.56,0.38,0.825,0.582    c0.269,0.194,0.557,0.332,0.815,0.505c0.257,0.181,0.526,0.295,0.766,0.436c0.247,0.119,0.464,0.284,0.675,0.369    c0.208,0.092,0.39,0.194,0.543,0.273c0.304,0.165,0.483,0.279,0.483,0.279s-0.191,0.054-0.534,0.115    c-0.171,0.027-0.382,0.065-0.625,0.084c-0.246,0.04-0.515,0.01-0.814-0.01c-0.298-0.028-0.634-0.026-0.966-0.129    c-0.333-0.094-0.702-0.165-1.054-0.323c-0.347-0.166-0.73-0.304-1.069-0.537c-0.343-0.226-0.702-0.448-1.012-0.738    c-0.321-0.276-0.625-0.571-0.888-0.9c-0.285-0.306-0.503-0.664-0.725-0.994c-0.409-0.689-0.716-1.375-0.877-2.001    c-0.186-0.612-0.247-1.151-0.267-1.526C85.041,149.849,85.07,149.633,85.07,149.633z" />
	</g>
	<g>
		<path d="M110.584,94.486c0,0-0.315-0.004-0.864-0.011c-0.547-0.019-1.333-0.015-2.265-0.015c-0.466,0.003-0.971,0.016-1.497,0.041    c-0.514,0.035-1.099,0.087-1.54,0.246c-0.268,0.019-0.473,0.721-0.625,1.297c-0.155,0.608-0.267,1.254-0.354,1.903    c-0.093,0.648-0.163,1.303-0.195,1.943c-0.014,0.636-0.077,1.283,0.108,1.728c0.158,0.386,0.577,0.769,1.014,0.988    c0.445,0.229,0.915,0.385,1.359,0.494c0.892,0.205,1.672,0.301,2.217,0.336c0.548,0.042,0.861,0.066,0.861,0.066    s-0.309,0.063-0.858,0.129c-0.548,0.05-1.341,0.14-2.305,0.036c-0.481-0.053-1.009-0.15-1.552-0.378    c-0.534-0.234-1.132-0.574-1.492-1.338c-0.298-0.722-0.253-1.432-0.247-2.104c0.024-0.683,0.085-1.366,0.173-2.048    c0.102-0.68,0.23-1.356,0.41-2.021c0.087-0.334,0.204-0.664,0.351-0.993c0.099-0.188,0.22-0.407,0.313-0.499    c0.127-0.182,0.399-0.323,0.55-0.366c0.685-0.208,1.251-0.165,1.807-0.162c0.549,0.018,1.062,0.073,1.533,0.132    C109.365,94.143,110.584,94.486,110.584,94.486z" />
	</g>
	<g>
		<path d="M144.912,147.558c0,0-0.282,0.554-0.705,1.385c-0.203,0.412-0.44,0.886-0.67,1.4c-0.227,0.514-0.464,1.06-0.639,1.623    c-0.203,0.554-0.323,1.125-0.42,1.663c-0.012,0.269-0.074,0.534-0.074,0.784c0.013,0.247-0.014,0.493,0.007,0.714    c0.033,0.218,0.052,0.425,0.071,0.613c0.028,0.184,0.081,0.336,0.108,0.471c0.06,0.274,0.094,0.431,0.094,0.431    s-0.098-0.117-0.261-0.344c-0.075-0.116-0.193-0.249-0.276-0.427c-0.08-0.18-0.17-0.388-0.259-0.623    c-0.085-0.235-0.123-0.505-0.179-0.791c-0.05-0.286-0.043-0.592-0.049-0.911c0.022-0.312,0.047-0.64,0.108-0.963    c0.084-0.314,0.139-0.648,0.252-0.954c0.216-0.621,0.49-1.21,0.803-1.718c0.306-0.514,0.641-0.953,0.951-1.304    C144.393,147.9,144.912,147.558,144.912,147.558z" />
	</g>
	<g>
		<path d="M99.584,132.043c0,0,0.696-0.186,1.748,0.019c0.517,0.109,1.128,0.281,1.725,0.601c0.611,0.293,1.203,0.727,1.758,1.202    c0.257,0.262,0.534,0.504,0.766,0.782c0.234,0.276,0.463,0.55,0.659,0.835c0.397,0.566,0.717,1.128,0.94,1.637    c0.257,0.487,0.373,0.947,0.483,1.249c0.099,0.308,0.146,0.487,0.146,0.487s-0.113-0.142-0.308-0.392    c-0.199-0.245-0.43-0.626-0.769-1.032c-0.164-0.206-0.338-0.431-0.514-0.672c-0.196-0.224-0.404-0.458-0.604-0.71    c-0.2-0.253-0.453-0.465-0.669-0.722c-0.222-0.251-0.485-0.46-0.725-0.696c-0.247-0.226-0.507-0.435-0.763-0.641    c-0.273-0.176-0.514-0.403-0.785-0.553c-0.262-0.169-0.517-0.329-0.769-0.463c-0.249-0.141-0.495-0.252-0.721-0.365    C100.268,132.198,99.584,132.043,99.584,132.043z" />
	</g>
</g>
</svg>
