<?xml version="1.0" encoding="UTF-8"?>
<!-- Generator: Adobe Illustrator 27.9.0, SVG Export Plug-In . SVG Version: 6.00 Build 0)  -->
<svg xmlns="http://www.w3.org/2000/svg" xmlns:xlink="http://www.w3.org/1999/xlink" version="1.1" id="Lager_1" x="0px" y="0px" width="422.038px" height="226.772px" viewBox="0 0 422.038 226.772" style="enable-background:new 0 0 422.038 226.772;" xml:space="preserve"><rect fill="#FFFFFF" x="0px" y="0px" width="422.038px" height="226.772px" />
<style type="text/css">
	.st0{fill:url(#SVGID_1_);}
	.st1{fill:none;stroke:#000000;stroke-width:0.5;stroke-linecap:round;}
	.st2{fill:none;stroke:#000000;stroke-width:2;stroke-linecap:round;}
	.st3{fill:none;stroke:#000000;stroke-linecap:round;}
	.st4{fill:url(#SVGID_00000010278759093040980610000011160978632534466178_);}
	.st5{fill:none;stroke:#000000;}
	.st6{fill:#FFFFFF;}
	.st7{fill:url(#SVGID_00000080168019993822358000000010010128761774587816_);}
	.st8{fill:url(#SVGID_00000024704342757573486140000011608637079506331282_);}
</style>
<g>
	<g id="Färg_2_">
		
			<linearGradient id="SVGID_1_" gradientUnits="userSpaceOnUse" x1="232.0898" y1="236.6733" x2="240.222" y2="224.5983" gradientTransform="matrix(0.9829 -0.1842 0.1842 0.9829 -34.5453 18.0634)">
			<stop offset="0" style="stop-color:#FFFFFF" />
			<stop offset="1" style="stop-color:#EDEDED" />
		</linearGradient>
		<polygon class="st0" points="263.137,221.244 267.462,190.872 270.057,179.789 259.966,178.346 244.271,173.502 234.116,167.401     228.717,162.24 208.583,200.709   " />
	</g>
	<g>
		<path d="M245.951,17.601c0,0,0.052,0.376,0.144,1.035c0.077,0.659,0.227,1.596,0.388,2.713c0.09,0.557,0.186,1.16,0.308,1.784    c0.063,0.311,0.133,0.629,0.222,0.938c0.082,0.295,0.198,0.644,0.311,0.787l0.016,0.021c-0.04-0.039,0.02,0.016,0.02,0.016    c0.034,0.032,0.065,0.059,0.077,0.06l0.146,0.082c0.125,0.061,0.267,0.115,0.416,0.163c0.299,0.094,0.62,0.177,0.949,0.242    c0.659,0.135,1.348,0.201,2.035,0.266c0.687,0.059,1.382,0.074,2.038,0.038c0.324-0.021,0.654-0.052,0.838-0.163    c0.172-0.095,0.39-0.348,0.549-0.602c0.335-0.528,0.565-1.149,0.735-1.748c0.173-0.601,0.294-1.191,0.373-1.743    c0.171-1.103,0.216-2.049,0.221-2.71c0.013-0.662,0.005-1.044,0.005-1.044s0.079,0.371,0.167,1.033    c0.076,0.662,0.168,1.619,0.118,2.779c-0.075,1.154-0.22,2.531-0.932,3.901c-0.201,0.338-0.412,0.671-0.833,0.948    c-0.419,0.244-0.802,0.271-1.165,0.324c-0.733,0.08-1.456,0.057-2.181,0.015c-0.724-0.041-1.442-0.152-2.151-0.302    c-0.354-0.081-0.707-0.165-1.056-0.302c-0.175-0.068-0.35-0.145-0.527-0.244c-0.091-0.056-0.172-0.1-0.286-0.194    c-0.061-0.047-0.091-0.078-0.118-0.107l-0.071-0.075l-0.062-0.084c-0.275-0.438-0.329-0.783-0.418-1.142    c-0.072-0.353-0.119-0.693-0.16-1.024c-0.084-0.66-0.122-1.281-0.146-1.855C245.832,19.121,245.951,17.601,245.951,17.601z" />
	</g>
	<g>
		<path d="M272.434,15.146c0,0-0.181,1.538-0.453,3.845c-0.056,0.573-0.118,1.195-0.182,1.852c-0.053,0.649-0.094,1.356-0.051,2.009    c0.034,0.371,0.067,0.46,0.273,0.606c0.222,0.17,0.53,0.311,0.837,0.446c0.624,0.265,1.308,0.466,1.994,0.639    c0.685,0.183,1.383,0.334,2.068,0.441c0.341,0.054,0.682,0.108,1,0.127c0.148,0.011,0.324,0.007,0.385-0.018    c0.103-0.027,0.224-0.09,0.337-0.17c0.465-0.332,0.858-0.883,1.17-1.417c0.312-0.544,0.577-1.092,0.789-1.615    c0.429-1.046,0.721-1.963,0.899-2.611c0.181-0.651,0.284-1.023,0.284-1.023s-0.021,0.389-0.108,1.065    c-0.098,0.673-0.242,1.642-0.574,2.772c-0.174,0.562-0.376,1.172-0.68,1.785c-0.311,0.606-0.661,1.26-1.303,1.782    c-0.164,0.126-0.348,0.242-0.576,0.318c-0.269,0.084-0.446,0.076-0.645,0.081c-0.379-0.004-0.74-0.033-1.104-0.082    c-0.725-0.1-1.448-0.243-2.168-0.421c-0.717-0.191-1.428-0.415-2.123-0.723c-0.349-0.157-0.688-0.336-1.024-0.616    c-0.09-0.08-0.156-0.133-0.261-0.267c-0.127-0.182-0.093-0.106-0.201-0.356c-0.091-0.274-0.102-0.481-0.111-0.684    c-0.023-0.799,0.095-1.494,0.189-2.165c0.099-0.667,0.231-1.285,0.352-1.856c0.245-1.139,0.51-2.071,0.683-2.725    C272.312,15.513,272.434,15.146,272.434,15.146z" />
	</g>
	<g>
		<path d="M300.413,32.13c0,0-0.456,1.365-1.14,3.412c-0.321,1.017-0.75,2.225-0.99,3.485c-0.029,0.154-0.046,0.308-0.049,0.439    c-0.006,0.053,0.014,0.147,0.002,0.107c0.013,0.036,0.029,0.093,0.04,0.111c0.011,0.01,0.012,0.012,0.023,0.031    c0.122,0.193,0.369,0.403,0.613,0.593c0.505,0.385,1.09,0.718,1.682,1.022c0.59,0.313,1.2,0.596,1.805,0.832    c0.299,0.118,0.606,0.237,0.883,0.304l0.097,0.021c-0.019,0.003,0.064,0.007,0.091,0.01c0.034-0.001,0.069-0.003,0.132-0.014    c0.109-0.022,0.23-0.072,0.349-0.137c0.483-0.264,0.924-0.708,1.297-1.148c0.374-0.447,0.708-0.902,0.994-1.341    c0.576-0.876,1.007-1.655,1.288-2.211c0.286-0.557,0.448-0.875,0.448-0.875s-0.094,0.35-0.299,0.949    c-0.215,0.593-0.525,1.447-1.024,2.415c-0.255,0.48-0.545,0.997-0.916,1.505c-0.377,0.502-0.796,1.03-1.425,1.43    c-0.16,0.096-0.335,0.183-0.54,0.236c-0.095,0.025-0.22,0.045-0.349,0.044c-0.053-0.004-0.051,0.002-0.151-0.01l-0.144-0.022    c-0.364-0.068-0.686-0.172-1.015-0.285c-0.648-0.239-1.286-0.52-1.913-0.837c-0.621-0.331-1.229-0.691-1.803-1.143    c-0.284-0.237-0.561-0.481-0.795-0.878c-0.031-0.055-0.064-0.132-0.091-0.199c-0.022-0.061-0.027-0.089-0.041-0.134    c-0.044-0.211-0.034-0.29-0.031-0.41c0.015-0.213,0.048-0.399,0.087-0.576c0.161-0.704,0.397-1.316,0.615-1.903    c0.22-0.584,0.459-1.119,0.675-1.614C299.71,33.375,300.413,32.13,300.413,32.13z" />
	</g>
	<path class="st1" d="M265.957,49.369c0,0,6.153-0.816,10.068,2.825" />
	<path class="st1" d="M265.598,52.009c0,0,4.352,2.12,10.286,1.908" />
	<path class="st1" d="M285.402,63.377c0,0,6.15,0.845,9.1,5.413" />
	<path class="st1" d="M284.444,65.839c0,0,3.725,3.211,9.523,4.583" />
	<path class="st1" d="M243.061,48.4c0,0,5.826-2.272,10.403,0.338" />
	<path class="st1" d="M243.264,51.059c0,0,4.684,1.022,10.424-0.608" />
	<g>
		<path d="M273.163,14.309c0,0,0.136-0.005,0.362-0.04c0.218-0.022,0.538-0.119,0.921-0.197c0.765-0.176,1.828-0.351,2.908-0.267    c0.536,0.051,1.074,0.139,1.559,0.298c0.487,0.147,0.925,0.346,1.278,0.549c0.359,0.196,0.63,0.408,0.817,0.557    c0.188,0.148,0.288,0.24,0.288,0.24s-0.132-0.035-0.351-0.111c-0.213-0.09-0.531-0.175-0.902-0.286    c-0.372-0.106-0.805-0.218-1.272-0.306c-0.23-0.061-0.478-0.067-0.72-0.118c-0.246-0.031-0.497-0.06-0.748-0.075    c-1.006-0.084-2.03-0.042-2.822-0.053c-0.397-0.006-0.729-0.042-0.968-0.085C273.286,14.369,273.163,14.309,273.163,14.309z" />
	</g>
	<g>
		<path d="M301.449,31.157c0,0,0.132,0.038,0.357,0.074c0.215,0.047,0.548,0.053,0.934,0.097c0.779,0.069,1.845,0.232,2.856,0.647    c0.5,0.216,0.991,0.466,1.412,0.769c0.426,0.292,0.791,0.618,1.076,0.922c0.291,0.299,0.493,0.586,0.632,0.787    c0.14,0.2,0.211,0.319,0.211,0.319s-0.117-0.074-0.306-0.215c-0.179-0.152-0.461-0.333-0.787-0.554    c-0.328-0.217-0.712-0.459-1.134-0.688c-0.203-0.13-0.439-0.212-0.657-0.337c-0.228-0.106-0.459-0.211-0.696-0.304    c-0.94-0.393-1.931-0.671-2.686-0.927c-0.379-0.129-0.687-0.266-0.903-0.382C301.549,31.252,301.449,31.157,301.449,31.157z" />
	</g>
	<g>
		<path d="M247.188,15.076c0,0,0.136-0.005,0.362-0.04c0.218-0.022,0.538-0.119,0.921-0.197c0.765-0.176,1.828-0.351,2.908-0.267    c0.536,0.051,1.074,0.139,1.559,0.298c0.487,0.147,0.925,0.346,1.278,0.549c0.359,0.196,0.63,0.408,0.817,0.557    c0.188,0.148,0.288,0.24,0.288,0.24s-0.132-0.035-0.351-0.111c-0.213-0.09-0.531-0.175-0.902-0.286    c-0.372-0.106-0.805-0.218-1.272-0.306c-0.23-0.061-0.478-0.067-0.72-0.118c-0.246-0.031-0.497-0.06-0.748-0.075    c-1.006-0.084-2.03-0.042-2.822-0.053c-0.397-0.006-0.729-0.042-0.968-0.085C247.31,15.136,247.188,15.076,247.188,15.076z" />
	</g>
	<path class="st2" d="M212.254,194.186c0,0,21.306-39.629,21.244-43.514c-0.063-3.884,3.728-60.119,3.647-62.421   c-0.35-9.881,3.271-35.832,3.38-38.065c0.109-2.233,3.135-29.574,4.175-32.121c1.782-4.363,6.078-6.45,9.811-4.65   c3.733,1.8,3.61,9.782,3.184,13.034c-0.426,3.252-0.907,11.586-4.579,49.254" />
	<path class="st2" d="M254.619,78.109c0,0,7.422-25.317,8.486-30.023c1.064-4.706,4.4-19.406,5.801-25.706   c1.4-6.3,1.707-11.264,8.577-10.763s6.507,8.357,4,19.109s-6.573,45.359-8.767,53.06" />
	<path class="st2" d="M273.776,86.346l10.625-26.359c0,0,11.011-25.074,15.544-28.489c4.842-3.649,10.977-0.821,8.528,7.429   S292.62,79.396,289.3,87.988" />
	<path class="st2" d="M286.399,95.705c0,0,5.29-11.556,8.383-11.967c3.092-0.411,8.881,2.07,7.403,9.16   c-1.478,7.09-6.049,22.89-6.049,22.89" />
	<path class="st2" d="M296.144,109.803c0,0-3.251,13.674-6.33,28.074c-3.079,14.4-12.079,25.788-17.67,30.765   c0,0-6.678,35.483-7.864,43.146" />
	<path class="st3" d="M231.288,163.987c0,0,3.303,10.238,34.331,14.869" />
</g>
<g>
	<g>
		<path d="M97.205,50.068c1.765,2.095,3.12,4.673,3.697,7.553c0.292,1.438,0.319,2.964,0.055,4.454    c-0.258,1.493-0.843,2.927-1.652,4.173c-1.629,2.511-3.974,4.287-6.402,5.595c-1.22,0.659-2.469,1.238-3.745,1.713    c-1.275,0.477-2.568,0.885-3.867,1.245l0.494-0.284c-0.384,0.368-0.741,0.696-1.118,1.025l-1.124,0.968    c-0.759,0.629-1.526,1.243-2.315,1.824c-1.571,1.17-3.185,2.271-4.846,3.287c-1.658,1.019-3.349,1.985-5.101,2.812    c-0.867,0.433-1.754,0.82-2.642,1.202c-0.884,0.393-1.797,0.71-2.694,1.068l0.478-0.38c-0.593,0.824-1.191,1.575-1.82,2.326    c-0.625,0.747-1.265,1.479-1.919,2.195c-1.301,1.44-2.688,2.789-4.132,4.062c-1.441,1.278-2.976,2.435-4.575,3.468    c-0.807,0.506-1.634,0.971-2.478,1.392c-0.849,0.412-1.723,0.758-2.606,1.051c1.664-0.87,3.203-1.942,4.657-3.125    c1.459-1.177,2.814-2.487,4.128-3.837c1.304-1.363,2.541-2.796,3.739-4.264c0.596-0.736,1.177-1.486,1.742-2.248    c0.557-0.762,1.123-1.544,1.636-2.302l0.165-0.244l0.313-0.136c0.856-0.372,1.725-0.702,2.568-1.108    c0.846-0.394,1.692-0.792,2.517-1.236c0.837-0.417,1.645-0.899,2.47-1.344c0.808-0.479,1.626-0.938,2.416-1.454    c1.596-0.997,3.148-2.078,4.654-3.222c0.752-0.574,1.496-1.159,2.231-1.753l1.082-0.914c0.355-0.304,0.714-0.63,1.033-0.929    l0.227-0.213l0.267-0.071c2.495-0.661,4.944-1.492,7.242-2.611c1.147-0.564,2.244-1.221,3.252-1.991    c1.019-0.753,1.938-1.638,2.693-2.655c0.744-1.023,1.318-2.178,1.652-3.431c0.34-1.254,0.403-2.596,0.287-3.937    c-0.115-1.346-0.456-2.68-0.904-3.979C98.495,52.521,97.925,51.251,97.205,50.068z" />
	</g>
	<g id="Färg_1_">
		
			<linearGradient id="SVGID_00000087382280041231207400000003452489839256222628_" gradientUnits="userSpaceOnUse" x1="18.3247" y1="260.8998" x2="25.5108" y2="250.2295" gradientTransform="matrix(1 0 0 1 0 -57.3546)">
			<stop offset="0" style="stop-color:#FFFFFF" />
			<stop offset="1" style="stop-color:#EDEDED" />
		</linearGradient>
		<polygon style="fill:url(#SVGID_00000087382280041231207400000003452489839256222628_);" points="35.095,219.835 44.565,199.88     51.95,184.767 48.178,184.069 34.679,180.962 24.894,174.638 18.751,166.692 0,189.564   " />
	</g>
	<path class="st3" d="M19.844,168.972c0,0,9.74,15.465,30.839,15.137" />
	<g>
		<path d="M36.414,21.356c1.354-0.286,2.752-0.378,4.149-0.291c1.399,0.078,2.801,0.366,4.151,0.891    c1.353,0.515,2.628,1.345,3.703,2.435c1.08,1.087,1.916,2.457,2.465,3.928c1.114,2.96,1.213,6.162,0.913,9.184    c-0.151,1.519-0.383,3.021-0.712,4.492c-0.327,1.471-0.718,2.919-1.15,4.348l-0.049-0.907c0.194,0.453,0.332,0.84,0.483,1.261    c0.144,0.413,0.277,0.829,0.405,1.246c0.244,0.837,0.479,1.677,0.646,2.535c0.182,0.854,0.319,1.719,0.436,2.587    c0.108,0.87,0.18,1.746,0.221,2.625c0.03,0.88,0.03,1.762-0.017,2.645c-0.012,0.441-0.072,0.882-0.105,1.322    c-0.035,0.444-0.104,0.865-0.172,1.305c-0.278,1.727-0.698,3.42-1.233,5.061l0.018-0.614c0.216,0.985,0.39,1.932,0.536,2.903    c0.152,0.965,0.285,1.933,0.401,2.902c0.241,1.938,0.376,3.889,0.444,5.841l0.027,1.465c0.019,0.487-0.015,0.978-0.021,1.466    c-0.008,0.976-0.092,1.952-0.151,2.924c-0.11,0.971-0.202,1.94-0.382,2.897c-0.136,0.962-0.403,1.899-0.62,2.835l0.129-1.444    c0.056-0.477,0.05-0.962,0.077-1.441c0.063-0.957,0.027-1.92,0.03-2.876c-0.04-0.958-0.054-1.913-0.143-2.866    c-0.065-0.953-0.163-1.904-0.257-2.852c-0.118-0.948-0.227-1.894-0.38-2.836c-0.14-0.942-0.289-1.883-0.457-2.82    s-0.35-1.87-0.551-2.797c-0.201-0.923-0.415-1.862-0.637-2.749l-0.074-0.296l0.091-0.319c0.447-1.555,0.781-3.142,0.982-4.742    c0.049-0.392,0.095-0.804,0.12-1.199c0.026-0.398,0.077-0.793,0.083-1.194c0.035-0.799,0.025-1.6-0.008-2.402    c-0.047-0.802-0.119-1.602-0.227-2.4c-0.116-0.796-0.249-1.591-0.425-2.376c-0.168-0.787-0.371-1.565-0.588-2.337    c-0.113-0.384-0.231-0.766-0.358-1.143c-0.126-0.366-0.268-0.766-0.398-1.079l-0.19-0.456l0.142-0.452    c0.43-1.369,0.819-2.749,1.145-4.14c0.323-1.391,0.614-2.787,0.793-4.194c0.183-1.404,0.275-2.817,0.216-4.208    c-0.04-1.391-0.228-2.771-0.638-4.061c-0.411-1.288-1.03-2.49-1.875-3.511c-0.843-1.025-1.917-1.835-3.098-2.459    c-1.183-0.627-2.482-1.027-3.811-1.3C39.162,21.439,37.791,21.302,36.414,21.356z" />
	</g>
	<g>
		<path d="M97.681,52.292c0,0-0.306,0.147-0.842,0.404c-0.538,0.246-1.299,0.623-2.205,1.071c-0.454,0.222-0.938,0.48-1.444,0.749    c-0.5,0.273-1.034,0.586-1.487,0.947c-0.112,0.089-0.212,0.188-0.272,0.269c-0.033,0.042-0.036,0.068-0.036,0.061    c-0.028,0.103-0.022,0.128-0.028,0.18c-0.019,0.268,0.022,0.599,0.066,0.925c0.095,0.659,0.261,1.338,0.454,2.003    c0.185,0.668,0.399,1.332,0.652,1.952c0.13,0.305,0.257,0.614,0.405,0.869c0.036,0.065,0.074,0.121,0.11,0.175    c0.004,0.009,0.065,0.074,0.021,0.037l0.09,0.083c0.067,0.069,0.113,0.092,0.146,0.108c0.031,0.024,0.078,0.05,0.143,0.072    c0.464,0.199,1.063,0.196,1.596,0.138c0.541-0.069,1.061-0.183,1.532-0.328c0.943-0.29,1.721-0.619,2.25-0.883    c0.534-0.26,0.839-0.408,0.839-0.408s-0.068,0.053-0.195,0.152c-0.13,0.094-0.308,0.257-0.56,0.421    c-0.495,0.341-1.214,0.826-2.165,1.244c-0.476,0.205-1.008,0.403-1.601,0.521c-0.592,0.1-1.249,0.214-1.975-0.046    c-0.147-0.035-0.445-0.217-0.536-0.304l-0.094-0.079c-0.098-0.099-0.09-0.098-0.139-0.153c-0.063-0.081-0.122-0.163-0.174-0.243    c-0.206-0.323-0.369-0.645-0.511-0.98c-0.286-0.668-0.522-1.356-0.727-2.057c-0.192-0.706-0.355-1.42-0.45-2.157    c-0.046-0.371-0.07-0.742-0.025-1.163c0.015-0.119,0.047-0.265,0.068-0.326c0.053-0.168,0.133-0.29,0.204-0.377    c0.147-0.178,0.292-0.297,0.436-0.402c0.572-0.414,1.14-0.66,1.679-0.908c0.538-0.242,1.058-0.431,1.536-0.605    c0.958-0.343,1.773-0.566,2.338-0.732C97.352,52.363,97.681,52.292,97.681,52.292z" />
	</g>
	<path class="st2" d="M32.563,80.225c0,0,2.082-23.175,3.338-26.524c1.257-3.348,2.056-21.815,2.056-21.815" />
	<line class="st2" x1="38.672" y1="31.577" x2="38.641" y2="21.024" />
	<line class="st2" x1="90.999" y1="55.645" x2="98.358" y2="52.978" />
	<path class="st2" d="M39.911,110.73c0,0,21.971-1.921,23.937-1.308s9.678,10.25,10.987,14.769c1.309,4.519-2.585,10.83-2.585,10.83   " />
	<path class="st2" d="M54.346,65.999c0,0,1.425-7.929,5.476-8.779c4.674-0.981,8.514-1.092,9.915,3.538" />
	<path class="st2" d="M73.378,86.272c0,0-0.381,9.236,0.117,13.515" />
	<line class="st2" x1="72.471" y1="132.458" x2="71.504" y2="143.627" />
	<g>
		<path d="M56.708,122.933c-0.134,1.067-0.089,2.135,0.175,3.085c0.269,0.951,0.777,1.74,1.472,2.277    c0.68,0.561,1.546,0.848,2.424,1.065c0.449,0.091,0.905,0.158,1.37,0.194c0.466,0.03,0.934,0.061,1.407,0.067l1.236,0.016    l-0.401,1.29c-0.095,0.307-0.194,0.692-0.272,1.048c-0.077,0.365-0.149,0.732-0.202,1.102c-0.125,0.736-0.207,1.479-0.225,2.217    c-0.008,0.369-0.002,0.736,0.019,1.101c0.028,0.364,0.055,0.724,0.104,1.083c0.104,0.713,0.287,1.404,0.564,2.047    c0.136,0.321,0.278,0.645,0.466,0.938c0.17,0.307,0.384,0.581,0.602,0.854c0.229,0.264,0.467,0.52,0.731,0.757    c0.26,0.237,0.542,0.458,0.839,0.657c0.592,0.402,1.24,0.742,1.919,1.021c0.678,0.29,1.389,0.511,2.114,0.729    c-0.373,0-0.751,0.012-1.13,0.001c-0.374-0.042-0.757-0.059-1.134-0.123c-0.749-0.144-1.514-0.323-2.236-0.669    c-0.361-0.165-0.718-0.36-1.06-0.584l-0.508-0.353l-0.47-0.415c-0.299-0.296-0.596-0.603-0.847-0.953    c-0.267-0.336-0.494-0.71-0.696-1.094c-0.397-0.776-0.676-1.612-0.856-2.461c-0.082-0.425-0.157-0.852-0.19-1.282    c-0.034-0.429-0.05-0.857-0.049-1.284c0.005-0.853,0.074-1.698,0.207-2.529c0.07-0.415,0.158-0.825,0.255-1.234    c0.102-0.415,0.204-0.798,0.353-1.242l0.835,1.306c-0.523-0.029-1.048-0.048-1.572-0.138c-0.524-0.083-1.049-0.203-1.57-0.354    c-1.037-0.318-2.074-0.85-2.895-1.709c-0.822-0.853-1.32-2.043-1.388-3.194C56.012,125.017,56.253,123.898,56.708,122.933z" />
	</g>
	<g>
		<path d="M50.074,128.231c0,0,0.535-0.158,1.337-0.395c0.754-0.234,1.659-0.508,2.482-0.9c0.216-0.076,0.409-0.202,0.614-0.297    c0.21-0.089,0.387-0.23,0.589-0.327c0.201-0.1,0.368-0.242,0.555-0.347c0.19-0.102,0.35-0.234,0.516-0.342    c0.153-0.12,0.332-0.202,0.458-0.311c0.128-0.105,0.258-0.189,0.363-0.262c0.215-0.143,0.356-0.222,0.356-0.222    s-0.004,0.16-0.043,0.436c-0.044,0.273-0.105,0.679-0.314,1.098c-0.097,0.214-0.19,0.465-0.353,0.679    c-0.159,0.216-0.311,0.471-0.524,0.673c-0.215,0.198-0.421,0.44-0.686,0.598c-0.254,0.177-0.52,0.347-0.806,0.466    c-1.14,0.529-2.403,0.505-3.241,0.2C50.522,128.717,50.074,128.231,50.074,128.231z" />
	</g>
	<g>
		<path d="M51.613,126.801c0,0,1.945,2.212,4.133,6.119c1.1,1.945,2.243,4.315,3.24,6.97c0.48,1.334,0.969,2.722,1.336,4.18    c0.397,1.447,0.69,2.954,0.941,4.469c0.213,1.523,0.35,3.061,0.376,4.582c0.01,0.761,0.022,1.516-0.046,2.261    c-0.024,0.372-0.048,0.742-0.071,1.109c-0.046,0.365-0.091,0.728-0.136,1.088c-0.166,1.44-0.484,2.809-0.858,4.074    c-0.161,0.641-0.397,1.238-0.609,1.817c-0.202,0.584-0.454,1.123-0.701,1.636c-0.444,1.051-1.021,1.915-1.47,2.706    c-0.517,0.749-0.97,1.394-1.369,1.901c-0.841,0.979-1.328,1.516-1.328,1.516s0.373-0.636,1.026-1.749    c0.311-0.563,0.644-1.273,1.054-2.058c0.333-0.833,0.774-1.73,1.104-2.776c0.185-0.514,0.371-1.049,0.506-1.625    c0.147-0.57,0.34-1.144,0.443-1.764c0.12-0.614,0.272-1.235,0.337-1.89c0.083-0.651,0.199-1.308,0.232-1.991    c0.028-0.339,0.055-0.681,0.083-1.026c0.007-0.346,0.013-0.695,0.021-1.046c0.027-0.7-0.007-1.411-0.02-2.127    c-0.044-1.432-0.199-2.884-0.417-4.325c-0.218-1.442-0.476-2.883-0.837-4.277c-0.343-1.397-0.718-2.768-1.136-4.077    c-0.437-1.301-0.849-2.569-1.31-3.744c-0.452-1.178-0.903-2.285-1.335-3.301C53.048,129.405,51.613,126.801,51.613,126.801z" />
	</g>
	<line class="st2" x1="75.62" y1="135.637" x2="74.834" y2="147.771" />
	<line class="st2" x1="35.301" y1="94.898" x2="43.387" y2="98.064" />
	<line class="st2" x1="35.54" y1="108.443" x2="42.597" y2="110.509" />
	<path class="st2" d="M73.216,149.374c0,0-2.798,12.094-15.769,24.142l-21.749,44.513" />
	<path class="st5" d="M93.766,62.725" />
	<g>
		<path d="M41.91,22.981c0,0,0.278,0.636,0.404,1.669c0.068,0.514,0.099,1.125,0.058,1.779c-0.035,0.655-0.155,1.35-0.346,2.027    c-0.211,0.668-0.465,1.332-0.825,1.877c-0.154,0.289-0.346,0.537-0.537,0.762c-0.178,0.236-0.364,0.441-0.561,0.603    c-0.361,0.358-0.71,0.585-0.963,0.724c-0.247,0.147-0.39,0.22-0.39,0.22s0.099-0.136,0.272-0.373    c0.088-0.112,0.195-0.248,0.317-0.403c0.109-0.164,0.231-0.35,0.365-0.552c0.142-0.192,0.266-0.421,0.397-0.66    c0.139-0.233,0.269-0.487,0.387-0.76c0.137-0.261,0.242-0.549,0.351-0.841c0.124-0.284,0.207-0.592,0.297-0.896    c0.109-0.298,0.161-0.616,0.244-0.919c0.051-0.312,0.136-0.613,0.178-0.914c0.102-0.599,0.17-1.168,0.222-1.663    C41.878,23.672,41.91,22.981,41.91,22.981z" />
	</g>
	<g>
		<path d="M67.451,144.166c0,0-0.29-0.616-0.443-1.629c-0.069-0.505-0.13-1.106-0.085-1.753c0.021-0.649,0.154-1.337,0.352-2.007    c0.129-0.325,0.227-0.662,0.397-0.962c0.146-0.313,0.322-0.599,0.523-0.855c0.096-0.13,0.186-0.262,0.284-0.381    c0.11-0.107,0.218-0.212,0.323-0.315c0.202-0.21,0.409-0.388,0.626-0.514c0.402-0.297,0.778-0.452,1.047-0.54    c0.264-0.096,0.413-0.14,0.413-0.14s-0.118,0.114-0.322,0.313c-0.103,0.092-0.227,0.204-0.369,0.333    c-0.135,0.135-0.269,0.31-0.427,0.475c-0.164,0.161-0.308,0.367-0.459,0.582c-0.163,0.203-0.307,0.438-0.442,0.69    c-0.158,0.235-0.265,0.513-0.391,0.784c-0.142,0.262-0.215,0.567-0.321,0.853c-0.098,0.291-0.174,0.593-0.247,0.89    c-0.048,0.304-0.142,0.595-0.172,0.892c-0.105,0.585-0.146,1.146-0.197,1.632C67.469,143.484,67.451,144.166,67.451,144.166z" />
	</g>
	<polyline class="st6" points="53.01,95.981 61.849,95.981 53.587,104.424 44.653,104.115  " />
	<polyline class="st6" points="99.089,43.534 107.927,43.534 99.665,51.977 90.731,51.668  " />
	<polyline class="st6" points="31.881,18.076 38.32,11.586 37.699,23.802 30.994,30.138  " />
	<polyline class="st6" points="45.544,70.89 53.929,67.895 55.68,90.43 40.016,81.438  " />
	<path class="st2" d="M39.99,97.092c0,0,19.838-1.43,27.091,0.223c7.253,1.653,13.527,21.471,13.531,25.419   c0.004,3.949-3.963,13.506-4.84,15.885" />
	<path class="st2" d="M3.486,185.546c0,0,15.961-18.038,19.572-25.517c3.611-7.48-5.314-55.204-3.571-63.623   c1.743-8.419,26.731-21.042,30.991-24.942s37.607-14.905,40.521-16.037" />
	<g>
		<path d="M66.095,143.301c0,0,0.386,0.648,1.037,1.419c0.154,0.199,0.357,0.383,0.538,0.595c0.207,0.191,0.41,0.4,0.645,0.583    c0.219,0.202,0.473,0.371,0.72,0.554c0.249,0.179,0.526,0.323,0.788,0.49c0.284,0.128,0.553,0.286,0.839,0.403    c0.292,0.098,0.565,0.243,0.852,0.329c0.286,0.081,0.563,0.181,0.829,0.274c0.272,0.056,0.531,0.125,0.773,0.193    c0.481,0.152,0.902,0.196,1.197,0.289c0.296,0.078,0.47,0.137,0.47,0.137s-0.164,0.068-0.46,0.161    c-0.297,0.075-0.725,0.251-1.255,0.273c-0.265,0.026-0.555,0.052-0.862,0.057c-0.306-0.022-0.634-0.044-0.97-0.088    c-0.337-0.044-0.678-0.158-1.026-0.255c-0.348-0.105-0.68-0.289-1.021-0.439c-0.317-0.206-0.649-0.391-0.934-0.639    c-0.287-0.244-0.564-0.491-0.789-0.777c-0.247-0.262-0.424-0.573-0.605-0.847c-0.162-0.29-0.31-0.565-0.406-0.841    C66.019,144.093,66.095,143.301,66.095,143.301z" />
	</g>
	<path class="st3" d="M37.746,33.602" />
</g>
<g>
	
		<linearGradient id="SVGID_00000170971782386248182830000010482648787204803224_" gradientUnits="userSpaceOnUse" x1="126.9081" y1="19.0012" x2="136.7365" y2="42.725" gradientTransform="matrix(1 0 0 -1 0 227.4662)">
		<stop offset="0" style="stop-color:#FFFFFF" />
		<stop offset="1" style="stop-color:#EDEDED" />
	</linearGradient>
	<polygon style="fill:url(#SVGID_00000170971782386248182830000010482648787204803224_);" points="155.776,212.531 167.243,178.797    147.632,174.397 132.479,166.618 130.369,162.094 118.919,176.367 99.485,200.913  " />
	<path class="st3" d="M132.479,166.618c0,0,9.858,11.074,29.97,11.792" />
	<path class="st2" d="M194.947,91.607c0,0,4.988,4.098,6.41,5.632c1.121,1.209-0.157,11.492-1.938,14.721   c-1.781,3.229-5.977,11.823-6.903,23.524c-1.259,15.914-19.848,30.146-23.71,35.359l-10.415,40.148" />
	<path class="st2" d="M99.485,200.913c0,0,32.434-35.396,33.647-43.217c1.213-7.821-5.946-58.614-5.898-61.97   s5.176-11.479,5.176-11.479" />
	<path class="st2" d="M137.149,98.312c0,0-4.971-24.928-5.151-28.315c-0.18-3.386,1.246-25.692,1.246-25.692" />
	<line class="st2" x1="134.829" y1="43.253" x2="134.51" y2="31.567" />
	<line class="st2" x1="184.668" y1="117.957" x2="184.091" y2="105.454" />
	<g>
		<path d="M133.547,31.148c1.206-0.196,2.444-0.243,3.676-0.136c1.233,0.101,2.472,0.356,3.66,0.836    c1.191,0.466,2.334,1.177,3.282,2.162c0.467,0.496,0.901,1.04,1.249,1.646c0.37,0.593,0.643,1.247,0.878,1.91    c0.223,0.669,0.372,1.357,0.482,2.049c0.095,0.692,0.155,1.388,0.161,2.08c0.018,0.714-0.001,1.321,0,1.987    c-0.018,0.665-0.041,1.338-0.086,2.001c-0.074,1.328-0.207,2.662-0.421,4.007c-0.109,0.673-0.24,1.349-0.439,2.031    c-0.095,0.342-0.205,0.684-0.346,1.038c-0.064,0.174-0.15,0.357-0.236,0.54l-0.159,0.291c-0.078,0.119-0.088,0.167-0.287,0.401    l0.226-1.383c0.192,0.446,0.342,0.834,0.495,1.249c0.153,0.409,0.289,0.819,0.427,1.23c0.264,0.824,0.523,1.649,0.721,2.49    c0.414,1.677,0.757,3.37,1.003,5.079c0.125,0.854,0.219,1.713,0.288,2.574c0.071,0.861,0.131,1.721,0.154,2.584    c0.049,0.861,0.036,1.725,0.024,2.586c-0.014,0.861-0.079,1.721-0.117,2.58l-0.114-0.49c0.35,0.718,0.638,1.398,0.916,2.111    c0.27,0.71,0.518,1.427,0.745,2.152c0.452,1.449,0.828,2.928,1.064,4.435c0.234,1.506,0.371,3.034,0.309,4.557    c-0.049,1.522-0.302,3.033-0.771,4.446c0.261-1.475,0.295-2.966,0.187-4.433c-0.125-1.467-0.373-2.914-0.742-4.327    c-0.378-1.409-0.819-2.798-1.362-4.142c-0.269-0.673-0.557-1.336-0.864-1.987c-0.302-0.646-0.626-1.311-0.956-1.898l-0.104-0.184    l-0.01-0.306c-0.027-0.83-0.025-1.658-0.074-2.485c-0.062-0.826-0.08-1.652-0.164-2.474c-0.06-0.824-0.155-1.643-0.259-2.461    c-0.044-0.41-0.112-0.816-0.175-1.223c-0.07-0.405-0.112-0.816-0.188-1.22c-0.258-1.624-0.609-3.23-1.025-4.81    c-0.211-0.789-0.427-1.575-0.666-2.351c-0.123-0.385-0.244-0.773-0.38-1.15c-0.129-0.374-0.278-0.768-0.41-1.09l0.226-1.383    c-0.097,0.113-0.022,0.025-0.018,0.008l0.073-0.13c0.051-0.109,0.105-0.215,0.154-0.344c0.102-0.244,0.195-0.517,0.277-0.799    c0.167-0.561,0.311-1.157,0.436-1.763c0.244-1.216,0.423-2.472,0.545-3.742c0.074-0.634,0.103-1.265,0.171-1.9    c0.04-0.637,0.109-1.331,0.125-1.921c0.029-0.612,0.009-1.219-0.038-1.821c-0.062-0.599-0.157-1.191-0.311-1.762    c-0.154-0.569-0.336-1.136-0.606-1.652c-0.249-0.531-0.577-1.014-0.939-1.47c-0.744-0.895-1.675-1.638-2.722-2.191    c-1.045-0.556-2.189-0.94-3.361-1.209C135.974,31.319,134.767,31.149,133.547,31.148z" />
	</g>
	<path class="st2" d="M151.01,75.83c6.376-3.25,11.725-7.107,17.091-7.412c7.454-0.423,12.24,14.781,14.872,21.277   c1.692,4.175,2.195,16.007,2.195,16.007" />
	<path class="st2" d="M149.945,72.745c0,0,9.028-5.719,17.177-9.775s19.966,22.11,19.966,22.11" />
	<g>
		<path d="M156.298,89.39c0,0,0.156,0.135,0.428,0.333c0.268,0.201,0.648,0.474,1.101,0.719c0.218,0.138,0.48,0.218,0.722,0.335    c0.261,0.069,0.516,0.17,0.788,0.188c0.262,0.07,0.541,0.015,0.811,0.028c0.276-0.073,0.554-0.061,0.835-0.197l0.426-0.136    c0.138-0.079,0.281-0.144,0.422-0.214c0.139-0.076,0.286-0.122,0.425-0.207c0.138-0.088,0.273-0.174,0.408-0.259    c0.273-0.164,0.55-0.313,0.79-0.509c0.248-0.181,0.497-0.34,0.732-0.489c0.231-0.152,0.427-0.321,0.62-0.449    c0.184-0.138,0.36-0.247,0.504-0.341c0.29-0.183,0.473-0.28,0.473-0.28s-0.058,0.2-0.189,0.536    c-0.067,0.166-0.147,0.373-0.257,0.596c-0.11,0.223-0.213,0.495-0.388,0.743c-0.167,0.254-0.354,0.532-0.566,0.813    c-0.199,0.293-0.466,0.556-0.754,0.82c-0.28,0.271-0.581,0.543-0.957,0.745c-0.18,0.109-0.36,0.223-0.547,0.324    c-0.2,0.084-0.411,0.154-0.619,0.227c-0.407,0.165-0.873,0.184-1.312,0.215c-0.443-0.04-0.895-0.071-1.284-0.255    c-0.408-0.132-0.741-0.376-1.051-0.591c-0.283-0.255-0.538-0.5-0.723-0.769c-0.398-0.506-0.597-1.009-0.71-1.359    C156.315,89.605,156.298,89.39,156.298,89.39z" />
	</g>
	<path class="st3" d="M165.136,88.737" />
	<g>
		<path d="M165.136,88.737c-0.145,0.742-0.21,1.489-0.244,2.225c-0.022,0.738-0.023,1.467,0.058,2.184    c0.075,0.716,0.181,1.419,0.365,2.095c0.188,0.674,0.408,1.328,0.693,1.946c0.276,0.623,0.631,1.196,1.009,1.745    c0.179,0.281,0.398,0.534,0.599,0.797c0.227,0.243,0.43,0.506,0.676,0.73c0.466,0.471,0.976,0.895,1.497,1.308    c0.526,0.406,1.089,0.765,1.663,1.106l0.59,0.351l-0.018,0.747c-0.01,0.433,0.011,0.952,0.028,1.434    c0.024,0.491,0.053,0.983,0.108,1.472c0.101,0.979,0.26,1.95,0.489,2.894c0.119,0.47,0.234,0.94,0.377,1.4    c0.146,0.457,0.304,0.909,0.489,1.346c0.186,0.435,0.384,0.865,0.617,1.268c0.229,0.405,0.464,0.81,0.74,1.176    c0.263,0.381,0.566,0.722,0.88,1.052l0.495,0.47l0.532,0.423c0.37,0.258,0.744,0.527,1.155,0.723    c0.397,0.233,0.833,0.374,1.262,0.546c0.442,0.125,0.883,0.292,1.346,0.363c0.457,0.113,0.927,0.152,1.4,0.21    c0.473,0.071,0.951,0.051,1.433,0.081c0.481,0.007,0.966-0.014,1.455-0.021c-0.469,0.131-0.941,0.278-1.421,0.397    c-0.484,0.075-0.969,0.2-1.464,0.234c-0.495,0.052-0.994,0.081-1.497,0.056c-0.505,0.009-1.007-0.074-1.515-0.136    c-0.497-0.12-1.009-0.215-1.495-0.413c-0.498-0.16-0.97-0.405-1.443-0.651c-0.461-0.274-0.902-0.582-1.318-0.933    c-0.411-0.354-0.81-0.731-1.164-1.15c-0.365-0.409-0.7-0.85-0.989-1.318c-0.3-0.462-0.56-0.949-0.802-1.442    c-0.478-0.991-0.862-2.024-1.145-3.08c-0.276-1.058-0.471-2.132-0.602-3.211c-0.07-0.54-0.112-1.082-0.147-1.626    c-0.035-0.553-0.038-1.072-0.018-1.675l0.572,1.097c-1.283-0.792-2.53-1.729-3.56-2.932c-0.268-0.286-0.496-0.619-0.742-0.928    c-0.222-0.333-0.457-0.654-0.652-1.007c-0.417-0.685-0.732-1.44-0.983-2.206c-0.519-1.532-0.671-3.17-0.545-4.733    C164.042,91.586,164.43,90.063,165.136,88.737z" />
	</g>
	<g>
		<path d="M157.697,88.913c1.179,2.412,1.972,5.044,2.404,7.75c0.392,2.706,0.338,5.555-0.513,8.214l-0.017-0.303    c1.432,2.885,2.79,5.81,4.188,8.714c1.385,2.911,2.792,5.809,4.136,8.742l4.076,8.775l3.993,8.82l-0.022-0.039    c0.244,0.398,0.399,0.79,0.542,1.205c0.135,0.413,0.232,0.838,0.295,1.267c0.064,0.428,0.104,0.86,0.102,1.292    c0.006,0.216,0.006,0.431-0.015,0.645c-0.019,0.214-0.019,0.43-0.052,0.642c-0.059,0.425-0.118,0.848-0.227,1.26    c-0.081,0.419-0.226,0.817-0.349,1.221c-0.129,0.402-0.313,0.782-0.466,1.171l-0.561,1.118l0.484-1.154    c0.129-0.399,0.277-0.788,0.388-1.19c0.102-0.405,0.225-0.804,0.284-1.218c0.086-0.408,0.123-0.824,0.16-1.238    c0.022-0.207,0.012-0.415,0.02-0.622c0.009-0.207-0.001-0.414-0.017-0.62c-0.018-0.413-0.076-0.822-0.157-1.223    c-0.077-0.402-0.192-0.794-0.332-1.173c-0.137-0.373-0.312-0.755-0.509-1.057l-0.013-0.02l-0.009-0.019l-4.25-8.68l-4.167-8.725    c-1.402-2.901-2.743-5.836-4.105-8.758c-1.349-2.93-2.739-5.838-4.054-8.786l-0.07-0.156l0.053-0.148    c0.883-2.476,1.026-5.222,0.734-7.886c-0.134-1.338-0.379-2.668-0.71-3.974C158.603,91.452,158.203,90.16,157.697,88.913z" />
	</g>
	<line class="st2" x1="194.707" y1="92.08" x2="189.126" y2="87.411" />
	<g>
		<path d="M188.251,87.369c0,0-0.175,0.357-0.436,0.98c-0.143,0.302-0.272,0.698-0.454,1.118c-0.148,0.442-0.341,0.921-0.501,1.458    c-0.08,0.267-0.163,0.544-0.25,0.832c-0.068,0.29-0.139,0.589-0.211,0.897c-0.172,0.603-0.223,1.266-0.341,1.922    c-0.027,0.671-0.136,1.351-0.075,2.042c0.021,0.344-0.007,0.694,0.051,1.036l0.156,1.03c0.021,0.35,0.145,0.678,0.236,1.012    c0.099,0.332,0.182,0.668,0.27,1.002c0.291,0.623,0.522,1.267,0.803,1.871c0.339,0.572,0.655,1.14,0.953,1.691    c0.359,0.515,0.699,1.002,1.011,1.452c0.158,0.231,0.309,0.452,0.453,0.663c0.162,0.196,0.316,0.381,0.461,0.555    c0.296,0.344,0.541,0.666,0.749,0.929c0.412,0.528,0.64,0.858,0.64,0.858s-0.338-0.157-0.913-0.482    c-0.286-0.164-0.641-0.359-1.034-0.609c-0.199-0.124-0.41-0.256-0.632-0.396c-0.2-0.172-0.411-0.353-0.63-0.542    c-0.436-0.385-0.929-0.791-1.404-1.277c-0.431-0.532-0.884-1.107-1.339-1.718c-0.403-0.65-0.76-1.381-1.127-2.114    c-0.128-0.397-0.257-0.797-0.385-1.199c-0.118-0.406-0.268-0.806-0.307-1.236l-0.168-1.272c-0.063-0.422-0.005-0.85-0.01-1.269    c-0.023-0.845,0.168-1.649,0.299-2.424c0.091-0.382,0.211-0.746,0.323-1.103c0.106-0.359,0.224-0.702,0.38-1.019    c0.146-0.32,0.276-0.634,0.423-0.926c0.164-0.281,0.322-0.552,0.474-0.813c0.29-0.524,0.641-0.948,0.924-1.331    c0.305-0.37,0.576-0.682,0.822-0.917C187.932,87.585,188.251,87.369,188.251,87.369z" />
	</g>
	<g>
		<path d="M189.663,87.122c0,0,0.064,0.062,0.154,0.214c0.094,0.146,0.216,0.371,0.342,0.672c0.26,0.598,0.57,1.499,0.71,2.643    c0.059,0.571,0.091,1.198,0.054,1.861c-0.035,0.645-0.184,1.393-0.286,2.025c-0.071,0.577-0.033,1.252,0.184,1.853    c0.204,0.613,0.546,1.201,0.967,1.741c0.424,0.533,0.892,1.069,1.391,1.532c0.457,0.423,1.07,0.788,1.247,0.51    c0.298-0.319,0.392-1.067,0.453-1.651c0.06-0.617,0.064-1.216,0.074-1.769c0.016-1.108-0.008-2.038-0.019-2.688    c0-0.651,0-1.024,0-1.024s0.24,1.463,0.458,3.692c0.049,0.559,0.083,1.168,0.075,1.825c-0.007,0.329-0.019,0.67-0.081,1.027    c-0.067,0.353-0.139,0.743-0.446,1.12c-0.152,0.18-0.401,0.34-0.654,0.356c-0.244,0.022-0.472-0.027-0.658-0.106    c-0.383-0.155-0.678-0.382-0.98-0.629c-0.54-0.481-1.075-0.977-1.549-1.574c-0.472-0.591-0.903-1.263-1.153-2.032    c-0.254-0.774-0.303-1.578-0.185-2.374c0.154-0.732,0.306-1.292,0.378-1.921c0.09-0.606,0.107-1.189,0.109-1.729    c-0.014-1.08-0.145-1.99-0.291-2.613C189.808,87.461,189.682,87.115,189.663,87.122z" />
	</g>
	<g>
		<path d="M182.43,106.196c-0.014,0.005,0.088-0.064-0.001-0.009c-0.077,0.032-0.181,0.115-0.304,0.217    c-0.245,0.211-0.536,0.573-0.818,1.04c-0.565,0.941-1.041,2.352-1.419,3.825c-0.379,1.472-0.691,3.001-0.968,4.164    c-0.124,0.583-0.261,1.07-0.351,1.415c-0.096,0.344-0.164,0.541-0.164,0.541s-0.215-0.806-0.286-2.032    c-0.074-1.223-0.005-2.879,0.42-4.49c0.4-1.608,1.214-3.16,2.172-3.997c0.467-0.424,0.947-0.658,1.296-0.735    c0.174-0.045,0.317-0.042,0.414-0.028c0.025,0.007,0.044,0.002,0.076,0.032c0.015,0.052-0.034,0.051-0.034,0.051    C182.442,106.194,182.43,106.196,182.43,106.196z" />
	</g>
	<g>
		<path d="M152.676,163.774c0,0,0.169,0.091,0.48,0.165c0.31,0.076,0.753,0.14,1.286,0.151c1.068,0.013,2.479-0.192,3.88-0.531    c1.403-0.326,2.796-0.762,3.864-1.052c1.055-0.324,1.796-0.476,1.796-0.476s-0.613,0.46-1.605,1.012    c-0.505,0.253-1.086,0.575-1.75,0.815c-0.332,0.118-0.664,0.278-1.024,0.371c-0.357,0.1-0.717,0.215-1.082,0.305    c-0.739,0.154-1.485,0.285-2.2,0.297c-0.355,0.021-0.701,0.005-1.028-0.029c-0.327-0.012-0.635-0.091-0.915-0.146    c-0.563-0.133-1.008-0.349-1.291-0.536C152.797,163.934,152.676,163.774,152.676,163.774z" />
	</g>
	<g>
		<path d="M171.537,133.83c0,0,0.17,0.222,0.412,0.654c0.231,0.435,0.556,1.069,0.856,1.874c0.134,0.406,0.305,0.842,0.422,1.322    c0.137,0.474,0.261,0.981,0.359,1.512c0.115,0.528,0.184,1.083,0.263,1.646c0.051,0.565,0.105,1.14,0.139,1.716    c0.035,1.154,0.01,2.307-0.088,3.381c-0.107,1.073-0.254,2.066-0.445,2.902c-0.147,0.844-0.397,1.519-0.518,1.999    c-0.14,0.477-0.233,0.744-0.233,0.744s0.012-0.288,0.055-0.784s0.123-1.199,0.166-2.045c0.03-0.421,0.062-0.876,0.095-1.358    c0.019-0.481,0.039-0.989,0.06-1.514c0.022-0.524-0.004-1.066,0.017-1.615c0.009-0.549-0.03-1.106-0.04-1.663    c-0.021-0.556-0.063-1.112-0.102-1.658c-0.074-0.541-0.088-1.085-0.175-1.598c-0.073-0.516-0.136-1.018-0.226-1.488    c-0.075-0.474-0.18-0.913-0.256-1.327c-0.192-0.813-0.355-1.499-0.511-1.965C171.636,134.097,171.537,133.83,171.537,133.83z" />
	</g>
</g>
<g>
	
		<linearGradient id="SVGID_00000118385156671159379690000016889649416563863714_" gradientUnits="userSpaceOnUse" x1="343.2585" y1="19.0012" x2="353.0869" y2="42.725" gradientTransform="matrix(1 0 0 -1 0 227.4662)">
		<stop offset="0" style="stop-color:#FFFFFF" />
		<stop offset="1" style="stop-color:#EDEDED" />
	</linearGradient>
	<polygon style="fill:url(#SVGID_00000118385156671159379690000016889649416563863714_);" points="372.126,212.531 383.593,178.797    363.982,174.397 348.83,166.618 346.719,162.094 335.27,176.367 315.835,200.913  " />
	<path class="st3" d="M348.83,166.618c0,0,9.858,11.074,29.97,11.792" />
	<path class="st2" d="M411.297,91.607c0,0,4.988,4.098,6.41,5.632c1.121,1.209-0.157,11.492-1.938,14.721   c-1.781,3.229-5.977,11.823-6.903,23.524c-1.259,15.914-19.848,30.146-23.71,35.359l-10.415,40.148" />
	<path class="st2" d="M315.835,200.913c0,0,32.434-35.396,33.647-43.217s-5.946-58.614-5.898-61.97s5.176-11.479,5.176-11.479" />
	<path class="st2" d="M353.499,98.312c0,0-4.971-24.928-5.151-28.315c-0.18-3.386,1.246-25.692,1.246-25.692" />
	<line class="st2" x1="351.18" y1="43.253" x2="350.861" y2="31.567" />
	<line class="st2" x1="401.019" y1="117.957" x2="400.441" y2="105.454" />
	<g>
		<path d="M349.898,31.148c1.206-0.196,2.444-0.243,3.676-0.136c1.233,0.101,2.472,0.356,3.66,0.836    c1.191,0.466,2.334,1.177,3.282,2.162c0.467,0.496,0.901,1.04,1.249,1.646c0.37,0.593,0.643,1.247,0.878,1.91    c0.223,0.669,0.372,1.357,0.482,2.049c0.095,0.692,0.155,1.388,0.161,2.08c0.018,0.714-0.001,1.321,0,1.987    c-0.018,0.665-0.041,1.338-0.086,2.001c-0.074,1.328-0.207,2.662-0.421,4.007c-0.109,0.673-0.24,1.349-0.439,2.031    c-0.095,0.342-0.205,0.684-0.346,1.038c-0.064,0.174-0.15,0.357-0.236,0.54L361.6,53.59c-0.078,0.119-0.088,0.167-0.287,0.401    l0.226-1.383c0.192,0.446,0.342,0.834,0.495,1.249c0.153,0.409,0.289,0.819,0.427,1.23c0.264,0.824,0.522,1.649,0.721,2.49    c0.414,1.677,0.757,3.37,1.003,5.079c0.125,0.854,0.219,1.713,0.288,2.574c0.071,0.861,0.131,1.721,0.154,2.584    c0.049,0.861,0.036,1.725,0.024,2.586c-0.014,0.861-0.079,1.721-0.117,2.58l-0.114-0.49c0.35,0.718,0.638,1.398,0.916,2.111    c0.27,0.71,0.518,1.427,0.745,2.152c0.452,1.449,0.828,2.928,1.064,4.435c0.234,1.506,0.371,3.034,0.309,4.557    c-0.049,1.522-0.302,3.033-0.771,4.446c0.261-1.475,0.295-2.966,0.187-4.433c-0.125-1.467-0.373-2.914-0.742-4.327    c-0.378-1.409-0.819-2.798-1.362-4.142c-0.269-0.673-0.557-1.336-0.864-1.987c-0.302-0.646-0.626-1.311-0.956-1.898l-0.104-0.184    l-0.01-0.306c-0.027-0.83-0.025-1.658-0.074-2.485c-0.062-0.826-0.08-1.652-0.164-2.474c-0.06-0.824-0.155-1.643-0.259-2.461    c-0.044-0.41-0.112-0.816-0.175-1.223c-0.07-0.405-0.112-0.816-0.188-1.22c-0.258-1.624-0.609-3.23-1.025-4.81    c-0.211-0.789-0.427-1.575-0.666-2.351c-0.123-0.385-0.244-0.773-0.38-1.15c-0.129-0.374-0.278-0.768-0.41-1.09l0.226-1.383    c-0.097,0.113-0.022,0.025-0.018,0.008l0.073-0.13c0.051-0.109,0.105-0.215,0.154-0.344c0.102-0.244,0.195-0.517,0.277-0.799    c0.167-0.561,0.311-1.157,0.436-1.763c0.244-1.216,0.423-2.472,0.545-3.742c0.074-0.634,0.103-1.265,0.171-1.9    c0.04-0.637,0.109-1.331,0.125-1.921c0.029-0.612,0.009-1.219-0.038-1.821c-0.062-0.599-0.157-1.191-0.311-1.762    c-0.154-0.569-0.336-1.136-0.607-1.652c-0.249-0.531-0.577-1.014-0.939-1.47c-0.744-0.895-1.675-1.638-2.722-2.191    c-1.045-0.556-2.189-0.94-3.361-1.209C352.325,31.319,351.117,31.149,349.898,31.148z" />
	</g>
	<path class="st2" d="M367.36,75.83c6.376-3.25,11.725-7.107,17.091-7.412c7.454-0.423,12.24,14.781,14.872,21.277   c1.692,4.175,2.195,16.007,2.195,16.007" />
	<path class="st2" d="M366.295,72.745c0,0,9.028-5.719,17.177-9.775s19.966,22.11,19.966,22.11" />
	<g>
		<path d="M372.648,89.39c0,0,0.156,0.135,0.428,0.333c0.268,0.201,0.648,0.474,1.101,0.719c0.218,0.138,0.48,0.218,0.722,0.335    c0.261,0.069,0.516,0.17,0.788,0.188c0.262,0.07,0.541,0.015,0.811,0.028c0.276-0.073,0.554-0.061,0.835-0.197l0.426-0.136    c0.138-0.079,0.281-0.144,0.422-0.214c0.139-0.076,0.286-0.122,0.425-0.207c0.138-0.088,0.273-0.174,0.408-0.259    c0.273-0.164,0.55-0.313,0.79-0.509c0.248-0.181,0.497-0.34,0.732-0.489c0.231-0.152,0.427-0.321,0.62-0.449    c0.184-0.138,0.36-0.247,0.504-0.341c0.29-0.183,0.473-0.28,0.473-0.28s-0.058,0.2-0.189,0.536    c-0.067,0.166-0.147,0.373-0.257,0.596c-0.11,0.223-0.213,0.495-0.388,0.743c-0.167,0.254-0.354,0.532-0.566,0.813    c-0.199,0.293-0.466,0.556-0.754,0.82c-0.28,0.271-0.581,0.543-0.957,0.745c-0.18,0.109-0.36,0.223-0.547,0.324    c-0.2,0.084-0.411,0.154-0.619,0.227c-0.407,0.165-0.873,0.184-1.312,0.215c-0.443-0.04-0.895-0.071-1.284-0.255    c-0.408-0.132-0.741-0.376-1.051-0.591c-0.283-0.255-0.538-0.5-0.723-0.769c-0.398-0.506-0.597-1.009-0.71-1.359    C372.665,89.605,372.648,89.39,372.648,89.39z" />
	</g>
	<path class="st3" d="M381.486,88.737" />
	<g>
		<path d="M381.486,88.737c-0.145,0.742-0.21,1.489-0.244,2.225c-0.022,0.738-0.023,1.467,0.058,2.184    c0.075,0.716,0.181,1.419,0.365,2.095c0.188,0.674,0.408,1.328,0.693,1.946c0.276,0.623,0.631,1.196,1.009,1.745    c0.179,0.281,0.398,0.534,0.599,0.797c0.227,0.243,0.43,0.506,0.676,0.73c0.466,0.471,0.976,0.895,1.497,1.308    c0.526,0.406,1.089,0.765,1.663,1.106l0.59,0.351l-0.018,0.747c-0.01,0.433,0.011,0.952,0.028,1.434    c0.024,0.491,0.053,0.983,0.108,1.472c0.101,0.979,0.26,1.95,0.489,2.894c0.119,0.47,0.234,0.94,0.377,1.4    c0.146,0.457,0.304,0.909,0.489,1.346c0.186,0.435,0.384,0.865,0.617,1.268c0.229,0.405,0.464,0.81,0.74,1.176    c0.263,0.381,0.566,0.722,0.88,1.052l0.495,0.47l0.532,0.423c0.37,0.258,0.744,0.527,1.155,0.723    c0.397,0.233,0.833,0.374,1.262,0.546c0.442,0.125,0.883,0.292,1.346,0.363c0.457,0.113,0.927,0.152,1.4,0.21    c0.473,0.071,0.951,0.051,1.433,0.081c0.481,0.007,0.966-0.014,1.455-0.021c-0.469,0.131-0.941,0.278-1.421,0.397    c-0.484,0.075-0.969,0.2-1.464,0.234c-0.495,0.052-0.994,0.081-1.497,0.056c-0.505,0.009-1.007-0.074-1.515-0.136    c-0.497-0.12-1.009-0.215-1.495-0.413c-0.498-0.16-0.97-0.405-1.443-0.651c-0.461-0.274-0.902-0.582-1.318-0.933    c-0.411-0.354-0.81-0.731-1.164-1.15c-0.365-0.409-0.7-0.85-0.989-1.318c-0.3-0.462-0.56-0.949-0.802-1.442    c-0.478-0.991-0.862-2.024-1.145-3.08c-0.276-1.058-0.471-2.132-0.602-3.211c-0.07-0.54-0.112-1.082-0.147-1.626    c-0.035-0.553-0.038-1.072-0.018-1.675l0.572,1.097c-1.283-0.792-2.53-1.729-3.56-2.932c-0.268-0.286-0.496-0.619-0.742-0.928    c-0.222-0.333-0.457-0.654-0.652-1.007c-0.417-0.685-0.732-1.44-0.983-2.206c-0.519-1.532-0.671-3.17-0.545-4.733    C380.393,91.586,380.78,90.063,381.486,88.737z" />
	</g>
	<g>
		<path d="M374.047,88.913c1.179,2.412,1.972,5.044,2.404,7.75c0.392,2.706,0.338,5.555-0.513,8.214l-0.017-0.303    c1.432,2.885,2.79,5.81,4.188,8.714c1.385,2.911,2.792,5.809,4.136,8.742l4.076,8.775l3.993,8.82l-0.022-0.039    c0.244,0.398,0.399,0.79,0.542,1.205c0.135,0.413,0.232,0.838,0.295,1.267c0.064,0.428,0.104,0.86,0.102,1.292    c0.006,0.216,0.006,0.431-0.015,0.645c-0.019,0.214-0.019,0.43-0.052,0.642c-0.059,0.425-0.118,0.848-0.227,1.26    c-0.081,0.419-0.226,0.817-0.349,1.221c-0.129,0.402-0.313,0.782-0.466,1.171l-0.561,1.118l0.484-1.154    c0.129-0.399,0.277-0.788,0.388-1.19c0.102-0.405,0.225-0.804,0.284-1.218c0.086-0.408,0.123-0.824,0.16-1.238    c0.022-0.207,0.012-0.415,0.02-0.622c0.009-0.207-0.001-0.414-0.017-0.62c-0.018-0.413-0.076-0.822-0.157-1.223    c-0.077-0.402-0.192-0.794-0.332-1.173c-0.137-0.373-0.312-0.755-0.509-1.057l-0.013-0.02l-0.009-0.019l-4.25-8.68l-4.167-8.725    c-1.402-2.901-2.743-5.836-4.105-8.758c-1.349-2.93-2.739-5.838-4.054-8.786l-0.07-0.156l0.053-0.148    c0.883-2.476,1.026-5.222,0.734-7.886c-0.134-1.338-0.379-2.668-0.71-3.974C374.953,91.452,374.554,90.16,374.047,88.913z" />
	</g>
	<line class="st2" x1="411.058" y1="92.08" x2="405.476" y2="87.411" />
	<g>
		<path d="M404.602,87.369c0,0-0.175,0.357-0.436,0.98c-0.143,0.302-0.272,0.698-0.454,1.118c-0.148,0.442-0.341,0.921-0.501,1.458    c-0.08,0.267-0.163,0.544-0.25,0.832c-0.068,0.29-0.139,0.589-0.211,0.897c-0.172,0.603-0.223,1.266-0.341,1.922    c-0.027,0.671-0.136,1.351-0.075,2.042c0.021,0.344-0.007,0.694,0.051,1.036l0.156,1.03c0.021,0.35,0.145,0.678,0.236,1.012    c0.099,0.332,0.182,0.668,0.27,1.002c0.291,0.623,0.522,1.267,0.803,1.871c0.339,0.572,0.655,1.14,0.953,1.691    c0.359,0.515,0.699,1.002,1.011,1.452c0.158,0.231,0.309,0.452,0.453,0.663c0.162,0.196,0.316,0.381,0.461,0.555    c0.296,0.344,0.541,0.666,0.749,0.929c0.412,0.528,0.64,0.858,0.64,0.858s-0.338-0.157-0.913-0.482    c-0.286-0.164-0.641-0.359-1.034-0.609c-0.199-0.124-0.41-0.256-0.632-0.396c-0.2-0.172-0.411-0.353-0.63-0.542    c-0.436-0.385-0.929-0.791-1.404-1.277c-0.431-0.532-0.884-1.107-1.339-1.718c-0.403-0.65-0.76-1.381-1.127-2.114    c-0.128-0.397-0.257-0.797-0.385-1.199c-0.118-0.406-0.268-0.806-0.307-1.236l-0.168-1.272c-0.063-0.422-0.005-0.85-0.01-1.269    c-0.023-0.845,0.168-1.649,0.299-2.424c0.091-0.382,0.211-0.746,0.323-1.103c0.106-0.359,0.224-0.702,0.38-1.019    c0.146-0.32,0.276-0.634,0.423-0.926c0.164-0.281,0.322-0.552,0.474-0.813c0.29-0.524,0.641-0.948,0.924-1.331    c0.305-0.37,0.576-0.682,0.822-0.917C404.283,87.585,404.602,87.369,404.602,87.369z" />
	</g>
	<g>
		<path d="M406.014,87.122c0,0,0.064,0.062,0.154,0.214c0.094,0.146,0.216,0.371,0.342,0.672c0.26,0.598,0.57,1.499,0.71,2.643    c0.059,0.571,0.091,1.198,0.054,1.861c-0.035,0.645-0.184,1.393-0.286,2.025c-0.071,0.577-0.033,1.252,0.184,1.853    c0.204,0.613,0.546,1.201,0.967,1.741c0.424,0.533,0.892,1.069,1.391,1.532c0.457,0.423,1.07,0.788,1.247,0.51    c0.298-0.319,0.392-1.067,0.453-1.651c0.06-0.617,0.064-1.216,0.074-1.769c0.016-1.108-0.008-2.038-0.019-2.688    c0-0.651,0-1.024,0-1.024s0.24,1.463,0.458,3.692c0.049,0.559,0.083,1.168,0.075,1.825c-0.007,0.329-0.019,0.67-0.081,1.027    c-0.067,0.353-0.139,0.743-0.446,1.12c-0.152,0.18-0.401,0.34-0.654,0.356c-0.244,0.022-0.472-0.027-0.658-0.106    c-0.383-0.155-0.678-0.382-0.98-0.629c-0.54-0.481-1.075-0.977-1.549-1.574c-0.472-0.591-0.903-1.263-1.153-2.032    c-0.254-0.774-0.303-1.578-0.185-2.374c0.154-0.732,0.306-1.292,0.378-1.921c0.09-0.606,0.107-1.189,0.109-1.729    c-0.014-1.08-0.145-1.99-0.291-2.613C406.158,87.461,406.032,87.115,406.014,87.122z" />
	</g>
	<g>
		<path d="M398.78,106.196c-0.014,0.005,0.088-0.064-0.001-0.009c-0.077,0.032-0.181,0.115-0.304,0.217    c-0.245,0.211-0.536,0.573-0.818,1.04c-0.565,0.941-1.041,2.352-1.419,3.825c-0.379,1.472-0.691,3.001-0.968,4.164    c-0.124,0.583-0.261,1.07-0.351,1.415c-0.096,0.344-0.164,0.541-0.164,0.541s-0.215-0.806-0.286-2.032    c-0.074-1.223-0.005-2.879,0.42-4.49c0.4-1.608,1.214-3.16,2.172-3.997c0.467-0.424,0.947-0.658,1.296-0.735    c0.174-0.045,0.317-0.042,0.414-0.028c0.025,0.007,0.044,0.002,0.076,0.032c0.015,0.052-0.034,0.051-0.034,0.051    C398.793,106.194,398.78,106.196,398.78,106.196z" />
	</g>
	<g>
		<path d="M369.026,163.774c0,0,0.169,0.091,0.48,0.165c0.31,0.076,0.753,0.14,1.286,0.151c1.068,0.013,2.479-0.192,3.88-0.531    c1.403-0.326,2.796-0.762,3.864-1.052c1.055-0.324,1.796-0.476,1.796-0.476s-0.613,0.46-1.605,1.012    c-0.505,0.253-1.086,0.575-1.75,0.815c-0.332,0.118-0.664,0.278-1.024,0.371c-0.357,0.1-0.717,0.215-1.082,0.305    c-0.739,0.154-1.485,0.285-2.2,0.297c-0.355,0.021-0.701,0.005-1.028-0.029c-0.327-0.012-0.635-0.091-0.915-0.146    c-0.563-0.133-1.008-0.349-1.291-0.536C369.148,163.934,369.026,163.774,369.026,163.774z" />
	</g>
	<g>
		<path d="M387.887,133.83c0,0,0.17,0.222,0.412,0.654c0.231,0.435,0.556,1.069,0.856,1.874c0.134,0.406,0.305,0.842,0.422,1.322    c0.137,0.474,0.261,0.981,0.359,1.512c0.115,0.528,0.184,1.083,0.263,1.646c0.051,0.565,0.105,1.14,0.139,1.716    c0.035,1.154,0.01,2.307-0.088,3.381c-0.107,1.073-0.254,2.066-0.445,2.902c-0.147,0.844-0.397,1.519-0.518,1.999    c-0.14,0.477-0.233,0.744-0.233,0.744s0.012-0.288,0.055-0.784c0.043-0.496,0.123-1.199,0.166-2.045    c0.03-0.421,0.062-0.876,0.095-1.358c0.019-0.481,0.039-0.989,0.06-1.514c0.022-0.524-0.004-1.066,0.017-1.615    c0.009-0.549-0.03-1.106-0.04-1.663c-0.021-0.556-0.063-1.112-0.102-1.658c-0.074-0.541-0.088-1.085-0.175-1.598    c-0.073-0.516-0.136-1.018-0.226-1.488c-0.075-0.474-0.18-0.913-0.256-1.327c-0.192-0.813-0.355-1.499-0.511-1.965    C387.986,134.097,387.887,133.83,387.887,133.83z" />
	</g>
</g>
</svg>
