<?xml version="1.0" encoding="UTF-8"?>
<!-- Generator: Adobe Illustrator 27.5.0, SVG Export Plug-In . SVG Version: 6.00 Build 0)  -->
<svg xmlns="http://www.w3.org/2000/svg" xmlns:xlink="http://www.w3.org/1999/xlink" version="1.1" id="Lager_1" x="0px" y="0px" width="226.8px" height="226.8px" viewBox="0 0 226.8 226.8" style="enable-background:new 0 0 226.8 226.8;" xml:space="preserve"><rect fill="#FFFFFF" x="0px" y="0px" width="226.8px" height="226.8px" />
<style type="text/css">
	.st0{fill:#FFFFFF;}
	.st1{fill:url(#SVGID_1_);}
	.st2{fill:none;stroke:#000000;stroke-width:2;stroke-linecap:round;}
	.st3{fill:none;stroke:#000000;stroke-width:0.5;stroke-linecap:round;}
</style>
<rect y="0" class="st0" width="226.8" height="226.8" />
<linearGradient id="SVGID_1_" gradientUnits="userSpaceOnUse" x1="-255.6718" y1="237.6741" x2="-217.6008" y2="244.7837" gradientTransform="matrix(0.5819 -0.8133 0.8133 0.5819 6.4841 -176.4872)">
	<stop offset="0" style="stop-color:#FFFFFF" />
	<stop offset="1" style="stop-color:#EDEDED" />
</linearGradient>
<polygon class="st1" points="82,199.3 111.3,146.6 88.7,137.3 80.1,118.2 73.7,104.4 68.8,109.7 56.7,118.1 19.4,140.8 " />
<path class="st2" d="M42.1,127.8c0,0,26.4-17.2,33.1-23" />
<path class="st2" d="M169,123.1c1.2-4.8,0.1-15.9-2.8-28c-2.9-12.1-10.7-33.6-17.9-33.7c-4.9,0-9.3,4.1-13.6,4.6  c-4.8,0.6-10.1-2.4-14.3-1.2c-4.7,1.4-7.4,6.9-11.2,8.9c-4.4,2.3-10.4,1.5-13.7,4.1c-4,3.2-4.5,9.4-7.1,12.4  c-5.4,6.3-11.2,2.3-11.1,9.2c0.1,9.3,1.6,25.7,14.5,38.8c2.7,2.7,18,8.9,22.6,8.8c4.6-0.1,8.3-3.2,8.3-3.2" />
<path class="st2" d="M94.8,100.6c0,0,9.2,20,12.7,25.4c3.5,5.3,12.8,13.8,15.2,15.2s12.5,0.9,13.6-0.1" />
<path class="st2" d="M113,87.5c0,0,17.9,44.8,30.6,65.3" />
<path class="st2" d="M142.7,148.9c0,0,2.4,12.9,7.5,15.9c5.9,3.4,13,0.3,14.2-5.3s-1.1-14.8-4.5-18" />
<line class="st2" x1="138" y1="80.2" x2="163" y2="147.1" />
<g>
	<path d="M172,123.6c0,0-0.8,0.7-2,1.9c-0.6,0.6-1.3,1.2-1.9,1.9c-0.4,0.3-0.7,0.7-1.1,1.1c-0.4,0.4-0.7,0.7-1.1,1.1   c-0.4,0.4-0.7,0.8-1.1,1.1c-0.3,0.4-0.7,0.8-1,1.1c-0.3,0.4-0.6,0.7-0.9,1.1c-0.3,0.3-0.6,0.7-0.8,1s-0.5,0.6-0.7,0.8   c-0.2,0.3-0.4,0.5-0.6,0.7c-0.3,0.4-0.5,0.6-0.5,0.6s0-0.3,0.1-0.8s0.3-1.2,0.6-2c0.2-0.4,0.3-0.8,0.5-1.2s0.4-0.9,0.7-1.3   c0.3-0.4,0.6-0.9,0.9-1.3c0.3-0.4,0.7-0.9,1.1-1.3c0.8-0.8,1.6-1.6,2.5-2.2c0.4-0.3,0.9-0.6,1.3-0.8c0.4-0.2,0.8-0.5,1.2-0.6   c0.8-0.4,1.5-0.6,1.9-0.7C171.8,123.7,172,123.6,172,123.6z" />
</g>
<line class="st2" x1="110.3" y1="149.1" x2="86.1" y2="189.6" />
<path class="st2" d="M171.7,114.7c0,0,14,13.4,11.9,20.9c-1.9,6.5-9.7,10.5-9.7,10.5" />
<path class="st2" d="M173.5,145.7l-5,6.4c0,0-1,1.3-1.6,1.5s-1.6-0.8-1.6-0.8" />
<g>
	<path d="M167.3,152c0,0,0.3-0.3,0.8-0.8s1.2-1.2,2.1-2c0.4-0.4,0.9-0.9,1.3-1.4c0.2-0.3,0.4-0.5,0.6-0.8c0.2-0.3,0.4-0.5,0.4-0.8   c0-0.2-0.1-0.6-0.2-0.9c-0.1-0.3-0.3-0.7-0.5-1c-0.4-0.7-0.8-1.3-1.3-1.9c-1-1.2-2.2-2.2-3.5-2.8c-0.3-0.2-0.6-0.3-0.9-0.3   c-0.3,0-0.5,0.1-0.8,0.2c-0.6,0.3-1.1,0.7-1.6,1.1c-1.9,1.5-3.3,2.4-3.3,2.4s0.3-0.3,0.8-0.8s1.2-1.2,2.1-2   c0.5-0.4,0.9-0.9,1.6-1.3c0.3-0.2,0.7-0.4,1.2-0.4s0.9,0.1,1.3,0.3c1.5,0.6,2.8,1.7,3.9,3c0.5,0.6,1,1.3,1.4,2.1   c0.2,0.4,0.4,0.7,0.5,1.1c0.1,0.4,0.2,0.8,0.2,1.3c-0.1,0.5-0.4,0.9-0.6,1.2c-0.2,0.3-0.5,0.6-0.8,0.8c-0.5,0.5-1,0.9-1.5,1.3   c-0.9,0.8-1.8,1.3-2.4,1.7C167.7,151.8,167.3,152,167.3,152z" />
</g>
<g>
	<path d="M160.8,155.7c0,0,0.1,0,0.3-0.1s0.5-0.3,0.4-0.7c-0.1-0.8-0.8-1.8-1.6-2.9c-0.9-1.1-2-2.4-3.3-3.5   c-0.2-0.1-0.4-0.3-0.5-0.3c-0.1-0.1-0.1,0-0.2-0.1c-0.1,0-0.2,0-0.3,0c-0.4,0-0.8,0.1-1.3,0.2c-0.9,0.2-1.7,0.6-2.5,1   s-1.6,1-2.3,1.5c-0.7,0.6-1.3,1.2-1.7,1.9c-0.1,0.2-0.2,0.7-0.2,1.1c0,0.4,0,0.8,0.1,1.2c0.1,0.8,0.3,1.5,0.6,2.2   c0.4,1.4,0.9,2.5,1.2,3.2c0.3,0.8,0.5,1.2,0.5,1.2s-0.3-0.4-0.7-1.1c-0.4-0.7-1-1.8-1.5-3.1c-0.3-0.7-0.5-1.4-0.7-2.2   s-0.4-1.7,0-2.8c0.5-0.9,1.1-1.6,1.9-2.2c0.7-0.6,1.6-1.2,2.4-1.7c0.9-0.5,1.8-0.9,2.8-1.1c0.5-0.1,1-0.2,1.5-0.2   c0.1,0,0.3,0,0.4,0c0.1,0,0.4,0.1,0.4,0.1c0.3,0.1,0.4,0.3,0.6,0.4c0.7,0.6,1.3,1.3,1.8,1.9c0.5,0.6,1,1.3,1.4,1.9   c0.4,0.6,0.7,1.2,1,1.7c0.2,0.5,0.4,1.1,0.4,1.5c0,0.2-0.1,0.4-0.2,0.6c-0.1,0.1-0.3,0.2-0.4,0.2   C160.9,155.7,160.8,155.7,160.8,155.7z" />
</g>
<line class="st2" x1="139.7" y1="77.6" x2="138.3" y2="83.3" />
<g>
	<path d="M151,161.7c0,0,0.5-0.6,1.3-1.4c0.4-0.4,0.9-0.8,1.5-1.2s1.2-0.8,1.9-1.2s1.4-0.7,2-1c0.7-0.3,1.3-0.5,1.9-0.7   c0.6-0.1,1-0.3,1.4-0.3c0.3,0,0.5-0.1,0.5-0.1s-0.2,0.1-0.5,0.2c-0.3,0.1-0.7,0.4-1.2,0.6c-0.5,0.3-1.1,0.6-1.7,0.9   c-0.6,0.4-1.3,0.7-1.9,1.1c-1.3,0.8-2.6,1.5-3.6,2.1C151.7,161.3,151,161.7,151,161.7z" />
</g>
<path class="st3" d="M130.7,116.7c0,0,2.7-4.5,11.5-6.5" />
<path class="st3" d="M131.2,119.2c0,0,7.7-2.8,11.7-7.4" />
<path class="st3" d="M151,108.1c0,0,6.2-0.1,12.7-5.1" />
<path class="st3" d="M163.3,101.8c0,0-6.2,0-12.8,4.9" />
<path class="st3" d="M113.8,128.9c0,0,6.3-0.8,12.2-5.4" />
<path class="st3" d="M94,135.5c0,0,6.3-0.8,12.2-5.4" />
<path class="st3" d="M112.7,128.5c0,0,3.5-4,11.8-6.7" />
<line class="st2" x1="92" y1="100" x2="96" y2="103.1" />
</svg>
