<?xml version="1.0" encoding="UTF-8"?>
<!-- Generator: Adobe Illustrator 27.5.0, SVG Export Plug-In . SVG Version: 6.00 Build 0)  -->
<svg xmlns="http://www.w3.org/2000/svg" xmlns:xlink="http://www.w3.org/1999/xlink" version="1.1" id="Lager_1" x="0px" y="0px" width="226.8px" height="226.8px" viewBox="0 0 226.8 226.8" style="enable-background:new 0 0 226.8 226.8;" xml:space="preserve"><rect fill="#FFFFFF" x="0px" y="0px" width="226.8px" height="226.8px" />
<style type="text/css">
	.st0{fill:#FFFFFF;}
	.st1{fill:url(#SVGID_1_);}
	.st2{fill:none;stroke:#000000;stroke-width:2;stroke-linecap:round;}
	.st3{fill:none;stroke:#000000;}
</style>
<rect y="0" class="st0" width="226.8" height="226.8" />
<g id="Färg_4_">
	
		<linearGradient id="SVGID_1_" gradientUnits="userSpaceOnUse" x1="52.5739" y1="-572.3274" x2="59.4538" y2="-562.1118" gradientTransform="matrix(1 0 0 -1 0 -389.0084)">
		<stop offset="0" style="stop-color:#FFFFFF" />
		<stop offset="1" style="stop-color:#EDEDED" />
	</linearGradient>
	<polygon class="st1" points="72.1,199.1 87.9,177.1 92.9,171.5 83.8,168.4 68.7,159.8 59.9,150.6 55.1,145.4 28.1,171.6  " />
</g>
<path class="st2" d="M36.9,165.9l32.8-36.8c0,0,21.3-37.4,25.8-43.5s21.6-29.5,23.1-30.7s26.4-0.6,28-0.6s12.2,6.1,13.7,6.1" />
<path class="st2" d="M101.3,85l17-12.2c1.2-0.8,3.3-1.5,4.7-1.5l15.8,0.2c1.4,0,3.5,0.7,4.7,1.6L146,75" />
<line class="st2" x1="145.3" y1="74.4" x2="154.7" y2="77.4" />
<g>
	<path d="M110.1,93c1.3-0.5,2.4-1.2,3.6-2c0.3-0.2,0.6-0.4,0.8-0.6c0.3-0.2,0.5-0.4,0.8-0.6c0.5-0.4,1-0.9,1.5-1.3   c0.3-0.2,0.5-0.5,0.7-0.7s0.5-0.5,0.7-0.7c0.5-0.5,0.9-1,1.3-1.5s0.8-1.1,1.2-1.6c0.2-0.3,0.4-0.6,0.5-0.8l0.5-0.8l0.4-0.7l0.8,0.4   c0.2,0.1,0.5,0.2,0.7,0.3c0.3,0.1,0.5,0.2,0.8,0.3c0.5,0.2,1.1,0.3,1.6,0.4c1.1,0.2,2.2,0.2,3.3,0c2.2-0.3,4.3-1.3,6.2-2.6l0.6-0.4   l0.6,0.4c0.3,0.2,0.7,0.5,1.1,0.7c0.4,0.2,0.8,0.4,1.2,0.6c0.8,0.4,1.7,0.7,2.5,1c0.9,0.3,1.7,0.5,2.6,0.6c0.4,0.1,0.9,0.1,1.3,0.1   c0.4,0,0.9,0,1.3-0.1c0.4-0.1,0.9-0.1,1.3-0.2c0.4-0.1,0.9-0.3,1.3-0.4c0.4-0.2,0.8-0.4,1.2-0.6s0.8-0.5,1.2-0.7   c0.7-0.5,1.4-1.2,2.1-1.9c0.3-0.3,0.6-0.7,0.9-1.1l0.9-1.1l-0.6,1.3c-0.2,0.4-0.5,0.8-0.8,1.2c-0.5,0.8-1.2,1.5-1.9,2.2   c-0.4,0.3-0.7,0.7-1.1,0.9c-0.4,0.3-0.8,0.5-1.3,0.8c-0.4,0.2-0.9,0.4-1.4,0.6s-1,0.3-1.5,0.4c-2,0.4-4.1,0.3-6-0.3   c-1-0.3-1.9-0.6-2.8-1c-0.5-0.2-0.9-0.4-1.3-0.7c-0.4-0.2-0.9-0.5-1.3-0.8h1.1c-1,0.8-2.1,1.4-3.3,1.9s-2.5,0.9-3.8,1   c-1.3,0.2-2.6,0.1-3.9-0.1c-0.6-0.1-1.3-0.3-1.9-0.5c-0.3-0.1-0.6-0.2-0.9-0.4c-0.3-0.1-0.6-0.3-0.9-0.5l1.2-0.3   c-0.4,0.6-0.8,1.2-1.2,1.7c-0.5,0.5-0.9,1.1-1.4,1.6s-1,1-1.5,1.5c-0.3,0.2-0.5,0.5-0.8,0.7s-0.5,0.5-0.8,0.7   c-0.6,0.4-1.1,0.8-1.7,1.2c-0.3,0.2-0.6,0.4-0.9,0.5c-0.3,0.2-0.6,0.3-0.9,0.5c-0.6,0.3-1.3,0.6-1.9,0.8   C111.5,92.6,110.8,92.8,110.1,93z" />
</g>
<g>
	<path class="st2" d="M129.3,51.2l4.4-3.2c1.3-0.9,3.5-1.4,5.1-1.1l23.3,4.4c1.5,0.3,3.4,1.6,4.2,3l4.9,8.2" />
</g>
<line class="st2" x1="159.5" y1="61.4" x2="170" y2="64.9" />
<line class="st2" x1="169.7" y1="59.9" x2="179.5" y2="68" />
<g>
	<path d="M133.3,67.5c0.6,0.5,1.4,0.7,2.1,0.9c0.7,0.2,1.4,0.4,2.2,0.5c0.4,0.1,0.7,0.1,1.1,0.1c0.4,0,0.7,0.1,1.1,0.1   c0.4,0,0.7,0,1.1,0h1.1c0.4,0,0.7,0,1.1-0.1l1.1-0.1c0.7-0.1,1.5-0.1,2.2-0.2s1.5-0.2,2.2-0.3l2.2-0.4l0.3-0.1l0.3,0.2   c0.4,0.2,0.8,0.4,1.2,0.5c0.4,0.2,0.8,0.3,1.2,0.5c0.8,0.3,1.7,0.5,2.6,0.7c0.9,0.2,1.7,0.3,2.6,0.4c0.9,0.1,1.8,0.1,2.6,0   c1.7-0.2,3.5-0.7,4.9-1.7c0.4-0.2,0.7-0.5,1.1-0.8c0.3-0.3,0.7-0.6,1-0.9s0.6-0.7,0.9-1c0.3-0.3,0.6-0.7,0.8-1.1   c-0.2,0.4-0.4,0.9-0.6,1.3c-0.2,0.4-0.5,0.8-0.7,1.2c-0.3,0.4-0.6,0.8-0.9,1.1c-0.3,0.3-0.7,0.7-1,1c-0.4,0.3-0.8,0.6-1.2,0.9   c-0.4,0.2-0.8,0.5-1.3,0.7c-0.4,0.2-0.9,0.4-1.4,0.5s-1,0.3-1.4,0.3c-0.5,0.1-1,0.2-1.5,0.2s-1,0-1.5,0c-1,0-1.9-0.1-2.9-0.3   c-1-0.2-1.9-0.4-2.8-0.7c-0.5-0.2-0.9-0.3-1.4-0.5s-0.9-0.4-1.4-0.6l0.6,0.1l-2.3,0.3c-0.4,0.1-0.8,0.1-1.2,0.1l-1.2,0.1   c-0.8,0.1-1.6,0.1-2.3,0.1c-0.8,0-1.6,0-2.4-0.1s-1.6-0.1-2.3-0.3c-0.4-0.1-0.8-0.1-1.2-0.2s-0.8-0.2-1.1-0.3   c-0.8-0.2-1.5-0.5-2.2-0.9C134.5,68.6,133.8,68.1,133.3,67.5z" />
</g>
<g>
	<path d="M136.9,68.1c0,0,0,0.3-0.2,0.7c-0.2,0.4-0.5,0.9-1,1.2c-0.4,0.4-0.9,0.6-1.4,0.7c-0.4,0.1-0.7,0.1-0.7,0.1s0.2-0.3,0.4-0.6   c0.3-0.3,0.6-0.7,1-1s0.8-0.6,1.2-0.8C136.6,68.2,136.9,68.1,136.9,68.1z" />
</g>
<g>
	<path d="M165.3,71.8c0,0,1,0.1,2.5,0.1c0.4,0,0.7,0,1.2,0c0.4,0,0.8,0,1.3,0c0.4,0,0.9-0.1,1.3-0.1c0.4-0.1,0.9-0.1,1.3-0.2   c0.4-0.1,0.9-0.2,1.3-0.3c0.2-0.1,0.4-0.1,0.6-0.2c0.2-0.1,0.4-0.1,0.6-0.2c0.4-0.1,0.8-0.3,1.1-0.5c0.2-0.1,0.4-0.2,0.5-0.2   c0.2-0.1,0.3-0.2,0.5-0.3c0.3-0.2,0.6-0.3,0.9-0.5c0.2-0.2,0.5-0.3,0.6-0.4c0.4-0.2,0.6-0.4,0.6-0.4s-0.1,0.2-0.3,0.6   c-0.1,0.2-0.2,0.4-0.4,0.7c-0.2,0.3-0.4,0.5-0.7,0.8c-0.1,0.1-0.3,0.3-0.4,0.5c-0.2,0.1-0.3,0.3-0.5,0.4c-0.4,0.3-0.7,0.6-1.2,0.8   c-0.4,0.2-0.9,0.5-1.4,0.6c-0.5,0.2-1,0.3-1.5,0.4s-1.1,0.1-1.6,0.2c-0.5,0-1,0-1.5-0.1c-1-0.1-1.8-0.4-2.6-0.6   C166.1,72.5,165.3,71.8,165.3,71.8z" />
</g>
<g>
	<path d="M138.6,85c0,0,0.1,0.1,0.2,0.3c0.1,0.2,0.2,0.5,0.2,0.9s0,0.8-0.1,1.2c-0.1,0.4-0.3,0.9-0.5,1.3s-0.4,0.8-0.7,1.2   c-0.2,0.4-0.5,0.7-0.8,0.9c-0.5,0.5-0.9,0.8-0.9,0.8s0.1-0.5,0.4-1.1c0.3-0.6,0.7-1.4,1-2.2c0.2-0.4,0.4-0.8,0.5-1.2   c0.2-0.4,0.3-0.7,0.4-1C138.5,85.5,138.6,85,138.6,85z" />
</g>
<path class="st2" d="M135.7,86.5c0,0,3,26.2,3.6,31s7.6,7.6,9.4,7.9s9.9,0.4,9.9,0.4s20.1-12.6,26,0.5" />
<path class="st2" d="M73.7,197.2l27.1-36.2c0,0,26.1-2.7,36.6-10.4c12.8-9.3,12.8-6.6,22.6-7.1c4.7-0.2,10.9-0.1,14.9-5.9  s3.3-5.2,3.3-5.2" />
<line class="st2" x1="184.6" y1="126.3" x2="175.8" y2="133" />
<g>
	<path d="M121.7,88.9c0,0.9,0,1.9-0.2,2.8c-0.1,0.9-0.3,1.9-0.6,2.8c-0.1,0.5-0.3,0.9-0.4,1.4l-0.5,1.3l-0.6,1.3   c-0.2,0.4-0.5,0.8-0.7,1.3c-0.2,0.4-0.5,0.8-0.8,1.2c-0.3,0.4-0.5,0.8-0.8,1.2l-0.9,1.1c-0.3,0.4-0.7,0.7-1,1   c-0.4,0.3-0.7,0.7-1.1,1l-1.1,0.9c-0.4,0.3-0.8,0.6-1.2,0.8l-1.2,0.8l0.4-0.7c0,2.2-0.1,4.4-0.3,6.5c-0.2,2.2-0.4,4.3-0.7,6.5   c-0.1,1.1-0.3,2.2-0.5,3.2c-0.2,1.1-0.4,2.1-0.6,3.2c-0.4,2.1-1,4.3-1.6,6.3c-0.3,1-0.7,2.1-1,3.1c-0.4,1-0.8,2.1-1.2,3.1   c-0.4,1-0.9,2-1.4,3l-0.8,1.4L102,145c-0.6,0.9-1.2,1.8-1.9,2.7c-0.3,0.4-0.7,0.8-1.1,1.2s-0.8,0.8-1.2,1.1c-0.8,0.7-1.7,1.4-2.6,2   c-0.5,0.3-0.9,0.5-1.4,0.8l-1.5,0.6l1.4-0.8c0.4-0.3,0.9-0.6,1.3-0.9c0.8-0.7,1.6-1.4,2.4-2.2c0.4-0.4,0.7-0.8,1-1.2   s0.7-0.8,0.9-1.3c0.6-0.9,1.2-1.8,1.7-2.7l0.7-1.4l0.7-1.4c0.4-1,0.9-1.9,1.2-2.9c0.7-2,1.4-4,1.9-6.1c0.3-1,0.5-2.1,0.8-3.1   c0.2-1,0.5-2.1,0.7-3.1c0.4-2.1,0.8-4.2,1.1-6.3c0.3-2.1,0.6-4.2,0.8-6.4c0.2-2.1,0.4-4.3,0.5-6.4v-0.5l0.4-0.3l1.2-0.7   c0.4-0.2,0.8-0.4,1.2-0.7l1.1-0.8c0.4-0.2,0.7-0.6,1-0.9s0.7-0.6,1-0.9l0.9-1c0.3-0.3,0.6-0.7,0.9-1.1s0.6-0.7,0.8-1.1   c0.2-0.4,0.5-0.8,0.7-1.2l0.7-1.2l0.6-1.2c0.2-0.4,0.4-0.9,0.5-1.3c0.3-0.9,0.6-1.8,0.8-2.7C121.4,90.8,121.6,89.9,121.7,88.9z" />
</g>
<g>
	<path d="M158.7,125.1c0,0,0,0.7,0.1,1.6c0,0.5,0.1,1,0.2,1.6c0.1,0.6,0.2,1.2,0.3,1.8c0.1,0.3,0.1,0.6,0.2,0.9   c0.1,0.3,0.2,0.6,0.3,0.9c0.2,0.6,0.4,1.1,0.6,1.5c0.1,0.2,0.2,0.4,0.3,0.6c0.1,0.2,0.2,0.3,0.2,0.4c0.1,0.3,0.2,0.4,0.2,0.4   s-0.1-0.1-0.4-0.3c-0.2-0.2-0.5-0.5-0.9-0.9c-0.2-0.2-0.3-0.4-0.5-0.7c-0.2-0.2-0.3-0.5-0.5-0.8c-0.3-0.6-0.5-1.2-0.7-1.9   c-0.1-0.7-0.2-1.3-0.2-2c0-0.6,0-1.2,0.1-1.7C158.4,125.7,158.7,125.1,158.7,125.1z" />
</g>
<path class="st3" d="M57,146.5c0,0,5.6,12.2,31.6,24.3" />
<g>
	<path d="M151.7,80.1c0,0-0.5,0.1-1.3,0.1c-0.4,0-0.9-0.1-1.3-0.2c-0.5-0.1-1-0.3-1.5-0.6c-0.2-0.1-0.5-0.3-0.7-0.4   c-0.2-0.2-0.4-0.3-0.6-0.5c-0.4-0.4-0.6-0.8-0.7-1.2c-0.1-0.2-0.1-0.4-0.1-0.6s0-0.3,0-0.4c0-0.2,0.1-0.4,0.1-0.4s0.1,0.1,0.1,0.3   c0.1,0.2,0.2,0.5,0.4,0.8s0.5,0.6,0.8,0.8c0.2,0.1,0.4,0.3,0.5,0.4c0.2,0.1,0.4,0.2,0.6,0.4c0.4,0.2,0.9,0.4,1.3,0.6   c0.4,0.2,0.8,0.3,1.2,0.5C151.2,79.9,151.7,80.1,151.7,80.1z" />
</g>
<g>
	<path d="M158.8,62.2c0,0,0.1,0.2,0.2,0.5c0.1,0.3,0.3,0.7,0.7,1.1c0.3,0.4,0.8,0.8,1.3,1.3c0.5,0.4,1.1,0.8,1.8,1.2   c0.3,0.2,0.6,0.4,1,0.5c0.3,0.2,0.6,0.3,0.9,0.5c0.3,0.1,0.6,0.3,0.9,0.4c0.1,0,0.4,0,0.6-0.1c0.5-0.2,0.8-0.6,1.1-0.8   c0.2-0.2,0.4-0.4,0.4-0.4s-0.1,0.2-0.2,0.5c-0.2,0.3-0.4,0.7-0.9,1.1c-0.3,0.2-0.5,0.4-1.1,0.4c-0.4-0.1-0.7-0.2-1.1-0.3   c-0.7-0.2-1.4-0.6-2.1-1c-1.3-0.8-2.6-1.9-3.1-3c-0.2-0.3-0.2-0.5-0.3-0.8c-0.1-0.2-0.1-0.5-0.1-0.6   C158.8,62.4,158.8,62.2,158.8,62.2z" />
</g>
<g>
	<path d="M173.7,70.6c0,0-0.4,0-0.9-0.2s-1.1-0.6-1.7-1.1c-0.5-0.5-0.9-1.1-1.1-1.6c-0.2-0.5-0.3-0.9-0.3-0.9s0.3,0.2,0.7,0.5   s0.9,0.8,1.4,1.2c0.5,0.5,0.9,0.9,1.3,1.3C173.4,70.4,173.7,70.6,173.7,70.6z" />
</g>
</svg>
