<?xml version="1.0" encoding="UTF-8"?>
<!-- Generator: Adobe Illustrator 27.5.0, SVG Export Plug-In . SVG Version: 6.00 Build 0)  -->
<svg xmlns="http://www.w3.org/2000/svg" xmlns:xlink="http://www.w3.org/1999/xlink" version="1.1" x="0px" y="0px" width="452.032px" height="226.772px" viewBox="0 0 452.032 226.772" style="enable-background:new 0 0 452.032 226.772;" xml:space="preserve"><rect fill="#FFFFFF" x="0px" y="0px" width="452.032px" height="226.772px" />
<style type="text/css">
	.st0{fill:url(#SVGID_1_);}
	.st1{fill:url(#SVGID_00000114073521268099201760000014277765302541656979_);}
	.st2{fill:url(#SVGID_00000062182182018835540350000000261746910531821450_);}
	.st3{fill:#FFFFFF;}
	.st4{fill:#FFFDFC;}
	.st5{fill:#1D1D1B;}
	.st6{fill:none;stroke:#1D1D1B;stroke-width:1.595;stroke-linecap:round;}
	.st7{fill:none;stroke:#1D1D1B;stroke-width:1.9937;stroke-linecap:round;}
	.st8{fill:none;stroke:#1D1D1B;stroke-width:0.9969;}
	.st9{fill:none;stroke:#1D1D1B;stroke-width:0.9969;stroke-linecap:round;}
	.st10{fill:none;stroke:#1D1D1B;stroke-width:0.4984;}
	.st11{stroke:#000000;stroke-width:0.7252;stroke-miterlimit:10;}
	.st12{stroke:#000000;stroke-width:0.4593;stroke-miterlimit:10;}
	.st13{stroke:#000000;stroke-width:0.4984;stroke-miterlimit:10;}
	.st14{stroke:#000000;stroke-width:0.2991;stroke-miterlimit:10;}
	.st15{stroke:#000000;stroke-width:0.2417;stroke-miterlimit:10;}
	.st16{fill:none;stroke:#000000;stroke-width:1.5471;stroke-miterlimit:10;}
	.st17{fill:none;stroke:#000000;stroke-width:0.7252;stroke-miterlimit:10;}
</style>
<g id="Layer_2">
	
		<linearGradient id="SVGID_1_" gradientUnits="userSpaceOnUse" x1="168.1284" y1="143.2393" x2="191.7607" y2="106.3137" gradientTransform="matrix(0.9988 0.049 -0.049 0.9988 -3.6812 -11.3149)">
		<stop offset="0" style="stop-color:#FFFFFF" />
		<stop offset="1" style="stop-color:#EDEDED" />
	</linearGradient>
	<path class="st0" d="M176.932,81.188l-36.759,34.349c0,0,4.259,41.884,37.416,44.257l18.334-35.335   C195.922,124.458,161.834,118.179,176.932,81.188z" />
	
		<linearGradient id="SVGID_00000018918196477995491930000002549722313127529611_" gradientUnits="userSpaceOnUse" x1="23.2558" y1="200.3216" x2="41.7331" y2="171.4508" gradientTransform="matrix(0.9988 0.049 -0.049 0.9988 -3.6812 -11.3149)">
		<stop offset="0" style="stop-color:#FFFFFF" />
		<stop offset="1" style="stop-color:#EDEDED" />
	</linearGradient>
	<path style="fill:url(#SVGID_00000018918196477995491930000002549722313127529611_);" d="M19.583,139.977L4.266,153.628   c0,0-11.277,50.031,21.881,52.404L56.78,167.72C56.78,167.72,13.019,165.518,19.583,139.977z" />
	
		<linearGradient id="SVGID_00000044870089326738275790000012096322683051805593_" gradientUnits="userSpaceOnUse" x1="337.5632" y1="184.8958" x2="356.0404" y2="156.025" gradientTransform="matrix(0.9988 0.049 -0.049 0.9988 -3.6812 -11.3149)">
		<stop offset="0" style="stop-color:#FFFFFF" />
		<stop offset="1" style="stop-color:#EDEDED" />
	</linearGradient>
	<path style="fill:url(#SVGID_00000044870089326738275790000012096322683051805593_);" d="M334.268,139.977l-15.316,13.651   c0,0-11.277,50.031,21.881,52.404l30.633-38.312C371.466,167.72,327.704,165.518,334.268,139.977z" />
</g>
<g id="Lager_1">
	<path class="st3" d="M-8.728,144.358l-0.193,0.193L-8.728,144.358z" />
	<g>
		<path class="st4" d="M178.186,82.928c7.504-6.865,11.938-17.504,28.31-16.132s62.759,13.386,65.487,15.788    c2.729,2.403,9.891,17.161,13.643,21.966c3.752,4.805,7.845,15.788,10.573,20.25c2.729,4.462,11.256,22.31,10.915,25.742    c-0.341,3.432-2.388,5.835-3.752,6.865c-1.364,1.03-1.023-0.686-1.364,1.03c-0.341,1.716-1.364,5.492-3.07,7.208    c-1.705,1.716-4.434,5.148-9.209,4.462c-4.775-0.686-4.434-1.03-7.163,0.686s-5.704,5.081-8.868,2.746    c-3.164-2.335-9.209-8.924-10.573-10.983s-6.48-10.297-6.48-10.297s-5.798,1.03-7.504,3.089s-4.434,5.835-4.434,5.835    s-6.139-3.432-6.139-4.805c0-1.373,0-2.403,0-4.805c0-2.403,2.046-1.373-2.388-3.775c-4.434-2.403-7.504-8.581-7.504-8.581    s-9.209-11.67-10.915-11.67s-9.891,0.343-12.62-2.403c-2.729-2.746-4.573-6.633-5.798-4.119c-1.226,2.515-0.682,5.148-3.411,3.432    c-2.729-1.716-18.418-11.67-18.418-11.67s-3.752-17.161-3.411-18.534" />
		<g>
			<path class="st5" d="M298.691,162.83c0,0-0.227-0.315-0.623-0.867c-0.383-0.558-0.97-1.331-1.651-2.258     c-0.351-0.456-0.726-0.953-1.144-1.448c-0.209-0.246-0.431-0.493-0.664-0.718c-0.214-0.217-0.512-0.459-0.651-0.491     c-0.156-0.037-0.46,0.03-0.793,0.132c-0.323,0.103-0.661,0.228-0.995,0.374c-0.672,0.287-1.336,0.647-1.995,1.009     c-0.657,0.366-1.302,0.764-1.889,1.19c-0.29,0.205-0.585,0.436-0.772,0.643c-0.186,0.234-0.244,0.445-0.306,0.77     c-0.1,0.62-0.038,1.294,0.098,1.911c0.137,0.62,0.325,1.202,0.531,1.73c0.427,1.051,0.889,1.9,1.253,2.466     c0.363,0.572,0.571,0.9,0.571,0.9s-0.067-0.069-0.194-0.201c-0.121-0.136-0.324-0.314-0.538-0.58     c-0.442-0.518-1.055-1.288-1.629-2.332c-0.268-0.53-0.551-1.119-0.749-1.788c-0.195-0.668-0.344-1.409-0.267-2.235     c0.038-0.389,0.186-0.914,0.469-1.269c0.296-0.363,0.596-0.604,0.909-0.857c0.631-0.483,1.297-0.903,1.979-1.301     s1.393-0.74,2.119-1.044c0.365-0.148,0.732-0.291,1.124-0.39c0.195-0.051,0.398-0.093,0.612-0.119     c0.115-0.009,0.209-0.023,0.367-0.015c0.081,0.001,0.134,0.008,0.172,0.015l0.105,0.017l0.112,0.034     c0.541,0.223,0.755,0.519,1.027,0.789c0.245,0.281,0.456,0.563,0.654,0.842c0.398,0.555,0.73,1.097,1.022,1.605     C298.112,161.381,298.691,162.83,298.691,162.83z" />
		</g>
		<g>
			<path class="st5" d="M281.059,165.084c0,0-0.217-0.301-0.597-0.829c-0.368-0.534-0.924-1.277-1.579-2.162     c-0.331-0.441-0.696-0.912-1.088-1.395c-0.392-0.464-0.849-0.988-1.298-1.302c-0.205-0.243-0.966,0.024-1.579,0.259     c-0.643,0.252-1.291,0.572-1.922,0.916c-0.635,0.338-1.26,0.702-1.845,1.093c-0.569,0.405-1.182,0.771-1.443,1.239     c-0.228,0.405-0.271,1.054-0.157,1.613c0.111,0.573,0.305,1.122,0.519,1.616c0.446,0.983,0.91,1.787,1.262,2.327     c0.348,0.548,0.547,0.862,0.547,0.862s-0.273-0.252-0.717-0.731c-0.429-0.488-1.065-1.183-1.651-2.168     c-0.291-0.492-0.576-1.057-0.759-1.724c-0.17-0.661-0.29-1.453,0.128-2.298c0.425-0.757,1.081-1.183,1.676-1.618     c0.617-0.427,1.261-0.819,1.923-1.183c0.669-0.35,1.353-0.674,2.065-0.939c0.355-0.137,0.726-0.243,1.12-0.32     c0.234-0.03,0.513-0.06,0.658-0.032c0.249,0.001,0.565,0.166,0.709,0.282c0.664,0.514,1.024,1.08,1.412,1.612     c0.37,0.534,0.683,1.057,0.961,1.544C280.505,163.699,281.059,165.084,281.059,165.084z" />
		</g>
		<g>
			<path class="st5" d="M305.701,151.296c0,0-0.565-0.782-1.412-1.954c-0.428-0.579-0.915-1.263-1.47-1.958     c-0.273-0.351-0.562-0.706-0.87-1.04c-0.3-0.32-0.654-0.681-0.929-0.81c-0.074-0.032-0.039-0.021-0.179-0.025     c-0.032,0.01-0.13,0.019-0.222,0.044c-0.186,0.042-0.392,0.101-0.594,0.18c-0.403,0.161-0.809,0.344-1.2,0.533     c-0.776,0.39-1.506,0.773-2.125,1.116c-0.622,0.34-1.137,0.635-1.495,0.853c-0.355,0.219-0.549,0.374-0.549,0.374     s0.088-0.239,0.355-0.588c0.262-0.351,0.685-0.807,1.247-1.287c0.564-0.475,1.259-0.988,2.081-1.426     c0.408-0.225,0.847-0.434,1.331-0.593c0.242-0.079,0.495-0.155,0.779-0.195c0.142-0.018,0.283-0.029,0.491-0.013     c0.099,0.006,0.375,0.063,0.511,0.149c0.571,0.336,0.855,0.727,1.172,1.116c0.302,0.39,0.569,0.784,0.818,1.169     c0.486,0.777,0.904,1.516,1.234,2.164C305.343,150.393,305.701,151.296,305.701,151.296z" />
		</g>
		<path class="st6" d="M143.947,111.661c2.822-3.15,44.992-43.638,62.242-45.789c13.119-1.635,59.567,15.38,59.567,15.38    s7.465-0.803,13.546,13.435l16.779,27.686l11.256,27.816c0,0,2.185,8.207-7.955,8.551" />
		<path class="st7" d="M179.207,153.9c0,0,12.045-22.745,18.9-30.36" />
		<path class="st7" d="M193.533,116.724c0,0,11.324,10.517,24.39,11.888" />
		<path class="st7" d="M266.857,99.477l15.986,25.376l18.567,38.481c0,0-2.363,7.179-10.988,6.527    c-7.537-0.57-10.66-9.906-10.66-9.906" />
		<line class="st7" x1="267.876" y1="95.805" x2="269.821" y2="104.182" />
		<path class="st7" d="M251.876,107.243l15.027,27.303l16.852,33.565c0,0-6.11,9.738-13.231,3.094    c-4.242-3.959-18.568-23.992-18.568-23.992l-17.188-27.865l-2.591-1.585" />
		<path class="st7" d="M215.189,123.104l16.323,21.211c0,0,9.51,9.135,15.73-1.745" />
		<path class="st7" d="M237.926,151.932c0,0-1.03,4.73,3.732,8.02" />
		<line class="st7" x1="243.431" y1="161.126" x2="251.077" y2="153.871" />
		<line class="st7" x1="248.191" y1="154.283" x2="254.507" y2="153.713" />
		<path class="st8" d="M177.79,86.121c0,0-13.387,27.168,15.646,37.917" />
		<path class="st9" d="M252.446,87.996c0,0,7.943,1.102,10.134,10.474" />
		<path class="st10" d="M280.23,127.392c0,0-8.61,3.326-9.98,4.98" />
		<path class="st10" d="M280.384,129.891c0,0-3.367,2.24-8.217,3.859" />
		<path class="st10" d="M263.94,134.84c0,0-5.039,4.59-10.517,6.519" />
		<path class="st10" d="M262.874,133.412c0,0-7.839,3.294-10.702,6.402" />
		<path class="st10" d="M292.724,120.982c0,0-3.331,0.402-7.194,3.887" />
		<path class="st10" d="M293.922,122.323c0,0-1.58,2.136-8.66,4.022" />
	</g>
	<g>
		<path d="M1009.18,252.059c0.104,0.103,0.307,0.357,0.562,0.204l0.313-0.446c-0.165-0.236-0.325-0.472-0.501-0.707    C1009.428,251.419,1009.31,251.736,1009.18,252.059z" />
		<path d="M1014.686,274.129c-0.256,0-0.152-0.357-0.408-0.102l-2.039-0.408l-0.102,0.102c-1.07-0.406-2.242-0.102-3.312-0.254    c-0.205,0.152-0.357-0.408-0.459,0c-0.458-0.052-0.918,0-1.324-0.052c-0.255-0.306-0.51,0.255-0.715-0.101    c-0.713,0.254-1.324,0-2.088,0.101l-0.205-0.204l-0.152,0.204c-0.663-0.101-1.684-0.101-2.346,0v-0.051    c-0.102,0-0.305,0.153-0.459,0.051c-0.108-0.358-0.187-0.722-0.272-1.085c-0.548,0.726-1.089,1.452-1.615,2.178    c0.063,0.196,0.124,0.389,0.41,0.282c0.306-0.306,0.713,0,1.07-0.203c0.203,0.305,0.459-0.103,0.764-0.154    c4.843-0.051,10.703-0.152,15.852,0.868c0.152-0.052,0.408,0.151,0.459-0.153C1016.776,274.741,1015.757,274.23,1014.686,274.129z    " />
		<path d="M1045.012,242.019c-0.204-0.459-0.254-1.02-0.51-1.428c0.152-0.765-0.816-0.918-0.715-1.63h-0.102    c-0.254,0.05-0.051-0.256-0.102-0.306c-0.307-0.104-0.713-0.256-0.814-0.56c-0.459,0.101-0.204-0.511-0.613-0.511    c-0.865,0.561-2.088-0.153-2.854,0.458c-1.172-0.102-2.65,0.053-3.924-0.152c-0.511,0.102-0.611-0.203-1.071-0.203l-2.191-0.563    c-2.599-0.355-4.841-1.986-7.492-1.273c-0.356-0.254-0.611,0.459-1.071,0.459c-0.152,0.969-1.324,0.969-1.834,1.682    c-3.873,3.619-8.256,7.596-11.416,11.773c-0.532-0.455-1.092-0.118-1.617,0.23c0.193,0.238,0.373,0.476,0.557,0.714    c0.134-0.091,0.261-0.193,0.397-0.28l0.153,0.152c-0.093,0.168-0.165,0.349-0.238,0.528c0.176,0.236,0.336,0.472,0.501,0.707    l1.369-1.95c0.152-0.05,0.305-0.152,0.254-0.406c1.123-1.529,2.447-2.854,3.772-4.232c0.561-0.609,1.07-0.916,1.528-1.527    c0.459-0.306,0.867-1.019,1.377-1.07c0.662-0.918,1.631-1.834,2.549-2.447c0.611-0.661,1.172-1.324,1.938-1.733    c0.254,0.152,0.406-0.764,0.508-0.152c0.408-0.051,0.307-0.714,0.714-0.867c0.917-0.764,2.396-0.816,3.415-0.307    c0.153,0.154,0.509-0.05,0.561,0.205l0.102-0.102c2.243,0.56,4.485,0.968,6.627,1.528c-0.104,0.255-0.561,0.306-0.816,0.46    c-0.814,0.764-0.714,2.191-0.714,3.312h0.102c0,0.356,0,0.661-0.153,0.967l0.306,0.053c0.255,1.629,0.611,3.16,1.836,4.332    c1.02,0.457,2.191,0.406,3.414,0.355c0.306-0.051,0.611-0.305,0.866-0.101c0.612-0.358,1.376-0.306,2.038-0.306    c0.459-0.256,0.765-0.766,1.274-0.613c-0.407,0.357-0.305,1.174-0.917,1.377c0,0.052-0.051,0.254-0.203,0.203    c-0.205,0.256-0.459,0.51-0.766,0.715c-0.102,0.203-0.457-0.051-0.406,0.254c-1.785,0.969-3.467,2.039-5.557,2.243    c-0.408,0-0.969,0.306-1.273,0l-0.307,0.255c-0.51-0.204-1.02,0.152-1.58,0.152c-0.459-0.102-1.07,0.204-1.578,0.053    c-0.46-0.256-0.867,0.151-1.377-0.053c-0.255,0.307-0.715-0.152-0.867,0.357c-0.203,0.307,0.103,0.662,0.357,0.816    c-0.357,0.305-0.561,0.865-1.021,1.119c-0.306,0.562-1.019,1.019-1.019,1.784c0.203,0.153,0.307,0.46,0.561,0.358    c0.203-0.053,0.254-0.307,0.357-0.459c0.61-0.815,1.376-1.938,2.293-2.65c0.662-0.102,1.631-0.052,2.242,0.051    c-0.051,0.051-0.051,0.102-0.102,0.102c0,0.102-0.051,0.256-0.204,0.307c0.204,1.07,0.561,2.09,0.968,3.158    c0.053,0.46,0.256,0.971,0.307,1.428c0.254,0.153,0.356,0.408,0.459,0.714c0.051,0.356,0.51,0.714,0.561,1.172    c0.357,0.663,0.714,1.427,1.172,2.142c1.224,2.701,2.65,5.453,4.383,7.848c0.664,0.205,1.07,0.766,1.479,1.377    c0.51,0.051,0.254,0.408,0.713,0.611v-0.051c-0.51-0.561-0.917-1.018-1.375-1.58c0.102-0.307-0.203-0.458-0.357-0.663    c-3.058-4.128-5.453-8.817-6.932-13.761c-0.205-0.918-0.611-1.938-0.51-2.955c0.459,0,1.07-0.357,1.377,0.102    c0.509-0.307,1.172-0.307,1.732-0.459c0.153-0.305,0.458,0.051,0.611-0.153c1.428-0.204,2.803-0.968,4.129-1.528    c0.051-0.307,0.51-0.053,0.561-0.408c0.662-0.203,1.121-0.713,1.733-1.223c0.306,0.254,0.151-0.256,0.355-0.357    c0.511-0.256,0.511-0.766,0.919-1.121v-0.154c0.458-0.662,0.764-1.528,0.968-2.344c-0.05-0.306,0.407-0.51,0.204-0.766    C1045.114,244.211,1045.319,243.039,1045.012,242.019z" />
		<path d="M1025.085,238.299l-0.104,0.865h-0.051c-0.152,1.123-0.306,2.346-0.406,3.568c-0.053,0-0.104,0.053-0.205,0    c0.051-0.357,0.102-0.458,0-0.816l0.102-0.151c0.051-0.204-0.152,0-0.102-0.204l0.102,0.051c0.051-0.256-0.051-0.561,0.051-0.867    c-0.102-0.152-0.102-0.406-0.051-0.561c0.153-0.051,0.254-0.256,0.104-0.357h-0.053c0.307-0.05,0.102-0.663,0.203-0.815    c-0.05-0.561,0.205-1.172,0.357-1.682c0.103-0.205,0.358-0.152,0.51-0.205C1025.848,237.535,1025.237,237.941,1025.085,238.299z" />
		<path class="st3" d="M1041.137,238.706c0.715,1.121,0.154,2.498,0.459,3.619c0.51,0.765-0.459,1.528,0.357,2.14    c0,0.256,0,0.561-0.203,0.713c0.102,0,0.355-0.049,0.406,0.205c0.46,0.561-0.355,0.916-0.406,1.376    c-0.766,0.255-1.428,0.255-2.242,0.407c-0.971,0.205-1.581,0.205-2.702,0.205c-0.663,0.102-0.917-0.408-1.427-0.612    c-0.611-0.61-0.511-1.63-0.816-2.446c-0.052-1.223-0.816-2.548,0-3.619h-0.204c-0.052-0.102,0.102-0.102,0.102-0.152    c0-0.051-0.051-0.051-0.102-0.051c0.102-0.102,0.102-0.254,0.305-0.254c0,0,0.104,0.254,0.154,0.102    c0.05-0.102,0-0.205-0.102-0.205h-0.053l0.154-0.152l0.05,0.407l0.866-0.61l-0.05-0.051c0.204,0,0.255,0,0.407-0.154v-0.1    c0.307-0.105,1.174-0.51,1.682-0.715C1038.844,238.859,1040.069,238.196,1041.137,238.706z" />
		<path d="M1023.453,238.553c-0.052,0.104,0,0.357-0.204,0.51c0.102,0.255-0.205,0.255,0,0.56c-0.306,1.428-0.356,3.109-0.205,4.486    c0.154,0.305,0.205,0.713,0.205,1.02c0.204,0.66,0.357,1.375,0.715,1.986c-0.104,0-0.256,0.154-0.41,0.051    c-0.764-0.917-0.711-2.141-0.815-3.107c0.153-0.103,0.051-0.408,0.051-0.562c-0.152-0.05-0.102-0.203-0.102-0.406h0.102    c0.153-0.305-0.357-0.613-0.051-0.918c0.104-0.611,0-1.02,0.254-1.528c0.051-0.306,0-0.917,0.051-1.276    C1022.892,238.962,1023.35,238.806,1023.453,238.553z" />
		<path class="st3" d="M1042.412,240.541c0-0.051,0-0.153,0.103-0.153v-0.204C1042.464,240.287,1042.821,240.541,1042.412,240.541z" />
		<path class="st3" d="M1042.922,240.592c0.866,1.377,1.121,3.109,0.714,4.741c-0.458,0.101,0.152,0.456-0.305,0.61    c0.051,0.102,0,0.306-0.053,0.459c-0.203-0.305,0.104-0.918-0.457-1.121c-0.154-0.969-0.51-2.04-0.307-2.956    c0.052-0.255-0.103-0.409-0.103-0.714h-0.05c-0.205-0.203,0.204-0.051,0.101-0.256c-0.459-0.508,0.358-0.457,0.458-0.712    c-0.05-0.205-0.204,0-0.151-0.256C1042.973,240.338,1042.872,240.541,1042.922,240.592z" />
		<path d="M1024.421,243.904l-0.102,0.969c-0.152,0.051-0.255-0.051-0.306-0.152c0.101,0,0.255-0.152,0.204-0.256    c-0.051-0.051-0.104-0.051-0.153-0.051c-0.051-0.254,0.153,0,0.204-0.152c0.051-0.255-0.255-0.459-0.204-0.611h0.103v0.152h0.051    c0.102-0.254,0-0.713,0.152-0.867C1024.625,243.241,1024.268,243.65,1024.421,243.904z" />
		<path d="M1023.657,243.599L1023.657,243.599L1023.657,243.599z" />
		<rect x="1024.524" y="244.312" width="0.05" height="0.051" />
		<polygon points="1024.217,245.333 1024.167,245.228 1024.217,245.228   " />
		<path d="M1024.217,245.789c-0.051,0-0.153-0.201-0.051-0.355h0.051V245.789z" />
		<path d="M1042.157,252.773c1.021,0.407,1.785,0.561,2.702,1.07c3.466,1.273,6.829,2.701,10.244,3.976    c0.663,0.458,1.427,0.661,2.142,0.916c0.051,0,0.051-0.05,0.051-0.101l0.102,0.256c2.09,0.967,4.484,1.629,6.575,2.953    c0.204,0.155,0.306,0.41,0.407,0.664c-0.152,0.203-0.307,0.459-0.561,0.307c-3.873-2.039-7.9-3.519-11.773-5.148    c-3.057-1.07-5.861-2.344-8.919-3.415c-0.205,0.204-0.356-0.255-0.561-0.204c-0.815-0.305-1.632-0.356-2.294-0.917    c-0.051-0.407,0.358-0.61,0.662-0.765C1041.24,252.722,1041.903,252.314,1042.157,252.773z" />
		<path d="M1080.078,252.978c0.561-0.104,0.61,0.508,0.917,0.916c0.307,1.173,0.408,2.344,0.816,3.465    c0.051,0.357,0,0.918,0.355,1.225l-0.051,0.151c0.357,1.224,0.714,2.498,1.225,3.619c0.05,0.561,0.61,1.173,0.457,1.784    c0.562,0.459,0.765,1.273,1.172,1.836c0.154,0.662,0.154,1.324,0.459,1.935c-0.151,0.613,0.204,1.377,0.051,1.836    c0.153,0.61,0.153,1.326,0,1.936l0.205,0.205c-0.307,0.307-0.052,1.018-0.256,1.428c0.051,0.457-0.051,0.916-0.051,1.375    c0,0.662-0.355,1.223-0.203,1.887c-0.357,0.355-0.103,0.865-0.407,1.273c0.05,0.459-0.256,0.865-0.153,1.325    c-0.562,1.987-0.969,4.229-1.529,6.321c0,0.305-0.051,0.61-0.154,0.916c-0.05,0.969-0.355,1.783-0.457,2.701    c-0.104,0.152-0.357,0.408-0.104,0.51c-0.406,0.611-0.406,1.324-0.713,2.039c-0.918,0.866-1.834,2.037-3.109,2.395    c-1.121,0.663-2.496,0.969-3.771,1.377c-0.663,0.203-1.376,0.152-2.091,0.407c-0.151-0.103-0.356-0.204-0.561-0.05    c-0.406,0-0.814-0.205-1.223,0c-0.357-0.205-0.865-0.408-1.324-0.561c-0.867,0.967-1.938,1.936-3.008,2.701    c-1.02,0.611-2.089,1.477-3.363,1.477c-1.02-0.51-1.938-0.765-3.008-1.121c-6.014-2.039-12.182-4.281-17.889-7.289    c-0.51,0.459-0.307-0.56-0.715-0.254c-0.254-0.357-0.662-0.152-1.018-0.203c-2.193-0.205-4.283-1.172-6.219-2.293l-0.052,0.051    c-0.356-0.56-1.07-0.867-1.427-1.478c-4.586-3.059-9.328-6.474-13.558-10.193c-0.356-0.357-1.274-0.765-0.968-1.479    c0.152-0.256,0.561-0.459,0.662-0.152c2.548,2.293,4.893,4.078,7.493,6.166c2.292,1.478,4.229,3.314,6.573,4.689    c0.358-0.205,0.51,0.306,0.766,0.355c0.101,0.205,0.408,0.613,0.611,0.715l0.203-0.051c0,0.407,0.611,0.713,0.969,0.867    c0.459,0.254,0.662,0.51,1.122,0.56c0.306,0.457,1.069,0.51,1.63,0.713l0.103-0.103c-0.051,0.255,0.204,0.103,0.204,0.255    c0.51,0.152,1.122,0.205,1.58,0.306c0-0.306,0.307-0.407,0.561-0.61c0.561,0,0.867,0.662,1.428,0.814l1.324,0.152v0.611    c1.784,0.814,3.466,1.835,5.403,2.549l0.1-0.051c0.613,0.561,1.377,0.51,2.091,0.969c4.026,1.58,8.104,3.058,12.028,4.435    c2.956-0.56,5.045-3.108,6.982-5.403c1.783-4.791,3.261-9.734,3.821-14.882h-0.101c0.256-0.204,0.256-0.612,0.256-0.917    c-0.46-1.174-0.971-2.396-1.632-3.467c0-0.152,0.101-0.203,0.051-0.355c0.255-0.154,0.561-0.053,0.815-0.104    c0.967,0.867,1.02,2.091,1.631,3.109c-0.051-0.051-0.154,0.256,0,0.307c0.256,0.101,0,0.561,0.203,0.764    c0.153,0.561,0.357,1.324-0.254,1.631c-0.408,1.937-0.662,3.926-1.121,6.015c-0.307,0.355-0.104,0.815-0.409,1.171    c-0.712,2.805-1.528,5.556-2.853,8.003l-0.408,0.306c0.254,0.357,0.663,0.255,1.07,0.255c2.039,0.05,3.771-0.357,5.605-1.071    c0.867-0.355,1.734-0.662,2.6-1.273c0.562-0.509,1.223-0.969,1.529-1.834c0.357-0.357,0.408-1.02,0.459-1.529    c1.275-4.843,1.376-10.498,1.326-15.24c0-0.814-0.256-1.682-0.256-2.445c-0.611-1.58-1.785-2.752-2.957-3.926    c-0.102-0.152-0.356-0.051-0.305-0.305c-0.408-0.561-1.275-0.714-1.223-1.479c0.203-0.408,0.305,0.102,0.611,0.152    c0.866,0.154,1.121,1.02,1.885,1.429c1.733,1.528,3.109,3.313,3.312,5.555c-0.407,0.511,0.103,1.121,0,1.682    c-0.203,0.816,0,1.581,0,2.395c-0.203,0.205,0.053,0.358,0,0.611c0.203-0.152,0.256-0.662,0.256-0.967    c0.357-2.447,0.611-5.453,0.102-7.748c0.051-0.867-0.102-1.631-0.459-2.345c-0.306-1.631-1.631-2.548-2.752-3.618    c0,0.05-0.051,0.05-0.102,0.05c0.051-0.356-0.866-0.458-0.357-0.865c0.256-0.205,0.561-0.306,0.918-0.155    c0.306-0.101,0.459,0.41,0.713,0.309c-0.713-1.836-1.121-3.822-1.682-5.709c-0.305-0.46-0.203-1.071-0.407-1.581    c-0.102-0.255-0.051-0.661-0.356-0.866c-0.664,0.611-1.479,0.866-2.039,1.531l0.051,0.508c-0.203-0.357-0.611,0.053-0.814-0.254    l0.611,0.967c0.355,0.104,0.306,0.611,0.561,0.867c0.356,0.765,1.121,1.631,1.631,2.293c0.356,0.051,0.254-0.102,0.51-0.051    v-0.203c0,0.458,0.865-0.307,0.968,0.357c0,0.61-1.274,0.254-0.611,0.967l-0.153,0.154c0,0.101,0.204,0.05,0.153,0.203    c-0.51,0.052-1.02-0.203-1.325-0.663c-0.816-1.121-1.682-2.446-2.65-3.567c-0.205-0.56-0.663-1.173-1.224-1.477    c-0.255-0.051-0.255,0.407-0.511,0.56c-0.559,0.56-1.222,1.122-1.935,1.529c-0.203,0.103-0.307-0.102-0.459-0.152    c0.152-0.662,1.07-0.867,1.58-1.427c0.408-0.255,0.51-0.866,0.918-1.07c-0.254-0.256-0.561,0.204-0.814-0.103    c-0.716,0.152-1.48,0.458-2.193,0.51c-0.408,0.357-0.969,0.458-1.223,0.969l0.051,0.05c-0.611,0.46-0.51,1.122-1.121,1.582    c-0.153-0.205-0.51-0.308-0.663-0.562c0.153-0.816,0.663-1.581,1.173-2.242v-0.154c0.305-0.101,0.713-0.203,0.918-0.561    c0.355-0.102,0.917-0.102,1.172-0.459c0.406,0.307,0.662-0.254,1.02-0.305c0.764,0.152,1.885-0.307,2.496,0.408    c0.307,0.355,0.611,0.815,0.969,1.121c-0.05,0.05,0,0.05,0,0.101c-0.05-0.255,0.306-0.458,0-0.611    c0.816-0.153,1.783-0.61,2.344-1.273c-1.121-0.409-2.038,0.305-3.006,0.611c-0.307-0.053-0.51-0.307-0.714-0.51    c0.103-0.662,0.97-0.715,1.427-1.071c0.408-0.101,0.969-0.05,1.479-0.204C1078.803,252.773,1079.671,252.263,1080.078,252.978z" />
		<path d="M1011.475,253.334c0.408,1.173,0.612,2.599,0.867,3.873c0.814,3.873,2.445,7.494,3.924,11.008    c-0.051-0.05-0.102,0-0.152,0c-0.203-0.764-0.969-1.629-1.072-2.445h-0.202l-0.052,0.307c-0.102,0-0.254-0.051-0.357-0.204    c0.205-0.306-0.356-0.407-0.152-0.765c-0.204-0.102-0.305-0.459-0.254-0.561c-0.104-0.408-0.357-0.918-0.561-1.427    c0.152-0.357-0.408-0.409-0.154-0.766c-0.406-0.306-0.306-0.765-0.406-1.071c-0.664-1.271-0.971-3.006-1.326-4.535    c-0.459-0.765-0.254-1.834-0.713-2.65c0.051-0.203-0.103-0.662,0.203-0.814C1011.221,253.232,1011.271,253.486,1011.475,253.334z" />
		<path class="st3" d="M1076.815,255.474l0.104,0.153L1076.815,255.474z" />
		<path d="M1076.255,262.814c0.255,0.355,0.46,0.764,0.815,1.121c0.766-0.408,1.376-1.02,1.886-1.732    c0.152-0.307-0.102-0.409,0.051-0.715c0.408-0.05,0.715,0.154,1.121,0.051c0.205,0.255-0.305,0.255-0.101,0.51    c-0.663,0.715-1.122,1.58-1.987,2.09c-0.053,0.254-0.256,0.357-0.408,0.562c0.152,0.254,0.204,0.661,0.102,1.018    c-0.254,0.307-0.561,0.153-0.867-0.051c-0.102-0.152-0.151-0.356-0.307-0.152c-1.527,1.223-1.986,2.904-3.566,4.025    c-0.713,0.357-1.428-0.051-2.039-0.406c0-0.205-0.255-0.357-0.203-0.56c0.611-0.409,0.969,0.305,1.479,0.459    c0.917-0.358,1.631-1.326,2.242-2.143c0.56-0.56,1.07-1.019,1.477-1.579c0.103-0.153,0.561-0.204,0.306-0.51    c-1.427-1.682-2.498-3.518-3.772-5.25c-0.969,1.631-2.039,3.058-3.059,4.639c-0.254,0.357-0.713,0.815-1.119,0.357v-0.408    c1.478-1.172,2.293-2.803,3.209-4.383c0.256-0.102,0.459-0.305,0.664-0.355c0.051-0.053,0.102-0.105,0.102-0.205    c-0.255-0.154-0.307,0.051-0.561-0.154c-2.497-0.05-4.689,1.938-5.607,4.18c0,0.104,0.052,0.154,0.102,0.205    c-0.356,0.152-0.153,0.662-0.306,0.916c-0.408,0-0.918-0.203-1.121-0.611c0.203-0.305,0.05-0.764,0.355-1.02    c0.664-2.293,2.652-3.72,4.689-4.536c0.611,0.052,1.121-0.509,1.682-0.151c0.357,0,0.715,0.102,0.969-0.053l-0.153-0.151    c0.205-0.153,0.356,0.151,0.56,0.256C1074.167,259.501,1074.828,261.388,1076.255,262.814z" />
		<polygon class="st3" points="1014.176,263.832 1014.024,263.781 1014.126,263.781   " />
		<path d="M1069.017,265.412c0.358,0.562,1.021,1.275,0.663,2.039c0.611,1.784,1.631,3.312,2.395,4.893    c-0.05,0.205,0.051,0.613-0.254,0.715c-0.407,0.102-0.459-0.357-0.713-0.51c-0.766-1.275-1.428-2.803-2.142-4.18l-0.661-1.376    c-0.97,0.561-1.938,1.632-2.855,2.294c-0.459,0.203-0.867,0.713-1.377,0.865c-0.457,0.204-1.07,0.409-1.07,1.021    c0.664,1.528,1.123,3.21,2.346,4.384c1.682,0.561,3.211-0.867,4.435-1.836c0.204-0.254,0.56-0.611,0.865-0.816    c0.357,0.41-0.255,0.971-0.458,1.377c-0.307,0.307-0.713,0.867-1.273,1.02l-0.715,0.509c-0.256,0.052-0.51,0.256-0.713,0.307    c-0.204,0.306-0.307,0.05-0.561,0.1c-0.307,0.205-0.918-0.1-1.07,0.255c-0.46,0-0.664-0.306-0.867-0.662    c-0.713-0.408-1.172-0.969-1.631-1.682l0.052-0.051c-0.612-0.867-0.816-1.885-1.274-2.752c0.254-0.357,0.408-0.867,0.051-1.225    c0.764,0.152,1.07-0.662,1.631-1.068c0.203,0.102,0.51,0.102,0.561,0.355c0.307-0.203,0.663-0.459,0.969-0.663    c0.918-0.661,1.834-1.528,2.65-2.446c-0.307-0.611-1.02-0.459-1.58-0.561c-0.51,0.051-0.918,0.307-1.479,0.357    c-1.377,0.662-2.803,1.121-3.363,2.701c-0.562,0.256-0.562,0.916-0.713,1.375c-0.359,1.225-0.561,2.957-0.154,4.18    c0,0.409,0.051,0.816,0.154,1.225c0.355,0.814,0.406,1.834,0.866,2.598c0.255,0.715,0.509,1.428,0.916,2.09    c0.356,0.459,0.714,1.123,1.326,1.428c0.153,0,0.306,0.205,0.356,0.356c-0.102,0.204-0.102,0.409-0.356,0.46    c-0.409-0.102-0.816-0.307-1.173-0.46c-0.153-0.255-0.305-0.458-0.561-0.561c-1.225,1.325-1.58,2.854-2.346,4.434    c0,0.612-0.508,1.173-0.508,1.837c-0.408,1.121-0.153,2.395-0.816,3.464c-0.152,0.05-0.254-0.151-0.357-0.255    c-0.203-1.273,0.205-2.648,0.307-3.822c0.867-2.242,1.58-4.688,3.16-6.523c-0.969-1.732-1.479-3.822-2.039-5.76    c-0.561-3.211,0-6.728,2.752-8.766c1.428-0.918,3.007-1.684,4.844-1.631C1068.049,264.547,1068.356,264.955,1069.017,265.412z" />
		<polygon class="st3" points="1014.737,265.515 1014.686,265.26 1014.737,265.412   " />
		<polygon class="st3" points="1014.839,265.668 1014.839,265.566 1014.94,265.566   " />
		<path d="M1014.94,266.484c0,0.051,0.051,0.102,0.102,0.152l0.104-0.102c-0.104,0.152,0.255,0.305,0.306,0.561    c-0.153,0.408,0.306,0.713,0.255,1.119c0.152-0.101,0.255,0.053,0.306,0.205l-0.153-0.205c-0.254,0.41,0.51,0.46,0.307,0.92    c0.561,0.967,1.121,2.088,1.631,3.108c-0.611-0.97-1.326-1.835-1.784-3.058c-0.101,0-0.153-0.102-0.101-0.205    c-0.205-0.152-0.359-0.406-0.256-0.56c-0.357-0.306-0.357-0.764-0.51-1.171c0-0.358-0.766-0.663-0.408-1.071    C1014.991,266.228,1014.89,266.33,1014.94,266.484z" />
		<path d="M1016.317,268.574c-0.051,0-0.102-0.154,0-0.205C1016.317,268.42,1016.419,268.523,1016.317,268.574z" />
		<path d="M1016.878,269.541l-0.152-0.102c-0.051-0.204-0.204-0.611-0.408-0.765    C1016.622,268.828,1016.725,269.287,1016.878,269.541z" />
		<polygon points="1017.03,269.949 1016.878,269.746 1017.03,269.847   " />
		<path d="M1017.54,270.867c-0.203-0.104-0.407-0.561-0.458-0.918C1017.235,270.254,1017.286,270.612,1017.54,270.867z" />
		<path d="M1050.924,272.447c1.427,0.561,2.548,1.986,3.618,3.006c0,0.153,0.204,0.409-0.103,0.409    c-0.305-0.052-0.407-0.256-0.764-0.256c-0.916-0.509-1.426-1.478-2.09-2.191c-0.51-0.051-0.764-0.611-1.324-0.56    c-0.51-0.611-1.377-0.714-2.091-1.019c-0.255,0-0.61,0.051-0.765-0.205c0.102-0.254,0.307-0.408,0.561-0.509    C1049.038,271.428,1050.109,271.733,1050.924,272.447z" />
		<path class="st3" d="M1070.241,273.976c0.051,0.051-0.051,0.051-0.051,0.102C1070.138,274.027,1070.19,273.976,1070.241,273.976z" />
		<path class="st3" d="M1069.833,274.433c-0.05,0-0.102,0.104-0.05-0.051L1069.833,274.433z" />
		<path class="st3" d="M1083.848,278.054l-0.051,0.356L1083.848,278.054z" />
		<path d="M1054.747,278.92c0.307-0.102,0.713,0.306,1.07,0.154c1.834,0.406,3.466,0.916,5.097,1.782    c0.051,0.051,0.204,0.255,0,0.255c-0.61-0.255-1.224-0.713-1.784-0.816c-1.988-0.713-4.026-0.611-6.115-1.02    c-1.479,0.715-2.242,1.377-3.518,2.498v-0.051c-0.611,0.102-0.408,0.969-1.121,1.07c0.459-1.58,2.243-2.65,3.465-3.567    C1052.606,278.564,1053.829,278.715,1054.747,278.92z" />
	</g>
	<g>
		<g>
			<path class="st11" d="M132.168,109.54c-0.037-0.408-0.08-0.815-0.108-1.224c-0.022-0.327-0.071-0.674,0.396-0.869     c0.093,0.139,0.234,0.271,0.282,0.432c0.815,2.707,0.885,5.477,0.579,8.258c-0.086,0.78-0.406,1.539-0.661,2.293     c-0.073,0.216-0.269,0.419-0.46,0.559c-0.728,0.533-1.439,1.109-2.226,1.539c-2.356,1.288-4.725,2.554-7.126,3.756     c-2.597,1.3-5.238,2.51-7.851,3.777c-1.099,0.533-2.254,0.942-3.212,1.772c-0.589,0.511-1.37,0.791-2.035,1.222     c-3.219,2.09-6.351,4.327-9.658,6.264c-4.609,2.701-9.343,5.188-14.031,7.752c-1.37,0.749-2.779,1.428-4.15,2.175     c-0.742,0.404-1.431,0.905-2.164,1.326c-0.64,0.367-1.309,0.683-1.965,1.023c-0.558,0.29-1.119,0.574-1.671,0.875     c-0.328,0.179-0.598,0.471-1.032,0.145c-0.134-0.101-0.465,0.042-0.699,0.101c-2.503,0.629-5.034,1.044-7.621,1.068     c-1.796,0.017-3.528-0.382-5.255-0.804c-0.322-0.079-0.818-0.15-0.683-0.633c0.118-0.421,0.543-0.227,0.854-0.172     c4.392,0.78,8.713,0.327,13.011-0.708c0.997-0.24,1.893-0.614,2.78-1.137c2.265-1.337,4.559-2.628,6.894-3.837     c7.475-3.869,14.85-7.911,21.92-12.497c1.264-0.82,2.564-1.587,3.867-2.345c0.42-0.244,0.901-0.381,1.354-0.567     c0.174-0.072,0.357-0.128,0.521-0.219c3.377-1.875,6.734-3.786,10.132-5.621c2.531-1.367,5.12-2.624,7.669-3.958     c0.603-0.316,1.155-0.734,1.714-1.128c0.146-0.103,0.276-0.28,0.333-0.45c0.191-0.573,0.437-1.149,0.498-1.741     c0.202-1.946,0.22-3.9-0.025-5.847c-0.026-0.21-0.124-0.411-0.189-0.616L132.168,109.54z" />
			<path class="st12" d="M98.022,77.251c-0.171,0.038-0.312,0.069-0.572,0.127c1.274-1.533,2.556-2.937,2.922-4.902     c-0.685-0.536-1.699-0.616-2.078-1.539c0.92,0.547,1.888,0.627,2.899,0.459c0.089-0.015,0.248-0.02,0.265,0.018     c0.168,0.391,0.524,0.263,0.786,0.259c2.605-0.039,4.912-0.897,6.689-2.833c0.686-0.747,1.089-1.762,1.604-2.664     c0.184-0.321,0.318-0.671,0.472-1.001c0.489,0.11,0.52,0.414,0.484,0.721c-0.194,1.663-0.763,3.143-2.063,4.27     c-2.395,2.078-4.681,2.774-8.335,2.477c-0.399,1.615-1.229,3.047-2.334,4.336c0.517,0.902,0.623,1.861,0.672,2.824     c0.14,2.721,0.273,5.445-0.174,8.15c-0.174,1.056-0.416,2.103-0.689,3.138c-1.161,4.409-1.12,8.721,1.043,12.844     c1.096,2.089,2.277,4.134,3.433,6.222c0.295-0.098,0.53-0.164,0.755-0.253c2.164-0.862,4.316-1.748,6.245-3.093     c0.289-0.202,0.614-0.383,0.949-0.472c0.189-0.05,0.492,0.045,0.638,0.186c0.234,0.224,0.123,0.519-0.085,0.732     c-0.131,0.135-0.309,0.224-0.462,0.339c-2.018,1.512-4.296,2.515-6.613,3.446c-0.267,0.107-0.49,0.372-0.759,0.421     c-0.507,0.093-1.046,0.166-1.546,0.085c-0.361-0.059-0.36-0.456-0.046-1.09c-0.222-0.309-0.467-0.637-0.699-0.974     c-1.438-2.09-2.639-4.311-3.624-6.651c-1.277-3.034-1.48-6.191-0.964-9.4c0.327-2.035,0.821-4.043,1.17-6.075     c0.461-2.687,0.761-5.392,0.53-8.127C98.48,78.546,98.357,77.877,98.022,77.251z" />
			<path class="st13" d="M40.054,74.414c-0.086,0.254-0.121,0.471-0.225,0.648c-1.072,1.833-1.924,3.774-2.618,5.772     c-2.402,6.911-4.816,13.818-7.099,20.769c-1.606,4.89-2.756,9.911-3.619,14.99c-0.7,4.12-1.319,8.255-1.986,12.381     c-0.131,0.809-0.322,1.608-0.501,2.491c-0.406-0.273-0.321-0.596-0.312-0.863c0.064-1.813,0.092-3.63,0.235-5.437     c0.431-5.471,1.476-10.839,2.726-16.174c1.882-8.034,4.778-15.734,7.578-23.465c0.796-2.196,1.654-4.374,2.591-6.513     c0.57-1.302,1.335-2.52,2.034-3.763C39.102,74.818,39.453,74.483,40.054,74.414z" />
			<path class="st14" d="M51.384,60.482c0.317-0.938,0.582-1.774,0.881-2.598c0.918-2.538,1.946-5.028,3.321-7.357     c0.209-0.354,0.482-0.669,0.686-1.025c0.819-1.428,2.132-2.142,3.636-2.595c1.923-0.579,3.904-0.843,5.888-1.068     c3.593-0.406,7.199-0.565,10.805-0.222c2.631,0.25,5.161,0.935,7.556,2.082c1.264,0.605,2.277,1.535,3.133,2.612     c0.904,1.137,1.736,2.336,2.539,3.548c0.668,1.007,1.252,2.07,1.868,3.111c0.456,0.77,1.025,1.51,0.666,2.545     c-0.524,0.017-0.703-0.464-0.928-0.837c-0.736-1.225-1.425-2.48-2.171-3.699c-0.602-0.984-1.229-1.956-1.906-2.889     c-0.514-0.709-1.109-1.361-1.692-2.017c-1.111-1.247-2.583-1.923-4.096-2.5c-0.358-0.136-0.807-0.005-1.203-0.068     c-0.864-0.137-1.72-0.323-2.581-0.481c-2.196-0.403-4.412-0.32-6.626-0.27c-3.235,0.073-6.44,0.433-9.6,1.135     c-0.845,0.188-1.646,0.569-2.476,0.833c-0.273,0.087-0.575,0.082-0.947,0.129c-1.06,1.313-1.929,2.837-2.581,4.476     c-0.803,2.019-1.563,4.056-2.3,6.1c-0.232,0.644-0.805,0.823-1.276,1.146C51.886,60.639,51.677,60.533,51.384,60.482z" />
			<path class="st11" d="M132.151,109.503c-0.07,0.283-0.037,0.658-0.444,0.692c-0.408,0.035-0.663-0.233-0.815-0.578     c-0.447-1.015-0.363-2.042-0.009-3.059c0.461-1.325,0.907-2.656,1.412-3.964c0.695-1.8,0.712-3.34-1.462-5.076     c-0.807-0.644-1.697-1.262-2.65-1.622c-1.35-0.511-2.782-0.465-4.169,0.054c-2.08,0.778-3.839,2.028-5.161,3.805     c-2.242,3.012-3.562,6.425-4.003,10.163c-0.176,1.493,0.002,2.968,0.551,4.381c0.375,0.966,0.878,1.836,1.811,2.374     c0.084,0.049,0.141,0.147,0.276,0.292c-0.714,0.148-1.25-0.084-1.759-0.39c-0.655-0.393-1.09-0.991-1.439-1.658     c-0.831-1.586-1.082-3.299-0.925-5.049c0.404-4.498,2.057-8.481,5.149-11.783c1.746-1.865,3.882-3.129,6.425-3.575     c1.094-0.192,2.138-0.145,3.12,0.584c0.738,0.548,1.642,0.865,2.45,1.324c0.89,0.506,1.643,1.181,2.247,2.019     c0.883,1.225,1.103,2.544,0.619,3.986c-0.464,1.382-0.926,2.765-1.348,4.16c-0.165,0.547-0.259,1.124-0.312,1.694     c-0.043,0.467,0.073,0.926,0.453,1.263C132.168,109.54,132.151,109.503,132.151,109.503z" />
			<path class="st12" d="M85.486,68.185c3.055-1.862,6.355-2.394,9.8-2.515c-0.089-0.129-0.195-0.309-0.326-0.467     c-0.787-0.952-1.592-1.889-2.364-2.853c-0.289-0.361-0.548-0.761-0.74-1.18c-0.185-0.403-0.013-0.774,0.316-0.901     c0.312-0.12,0.545,0.023,0.769,0.425c0.213,0.381,0.413,0.78,0.688,1.113c1.24,1.503,2.496,2.993,3.764,4.472     c0.613,0.715,0.62,0.841-0.135,1.43c0.491,1.106,0.172,2.086-0.537,2.984c-1.576,1.998-3.488,3.596-5.856,4.513     c-2.237,0.866-4.541,0.998-6.774-0.099c-0.506-0.249-0.946-0.64-1.397-0.99c-0.145-0.113-0.243-0.297-0.338-0.462     c-0.138-0.242-0.145-0.522,0.12-0.639c0.147-0.065,0.461,0.002,0.559,0.124c0.382,0.473,0.911,0.684,1.42,0.95     c0.647,0.339,1.334,0.488,2.051,0.513c1.849,0.063,3.596-0.323,5.168-1.325c1.484-0.945,2.806-2.087,4.008-3.384     c0.876-0.945,0.724-1.949,0.323-2.992c-0.062-0.16-0.305-0.327-0.483-0.352c-0.618-0.085-1.253-0.202-1.865-0.138     c-1.687,0.177-3.368,0.452-4.96,1.067c-0.783,0.303-1.542,0.698-2.259,1.139c-0.961,0.591-1.463,0.528-2.01-0.457     c-0.774-1.393-1.485-2.821-2.277-4.203c-0.792-1.383-0.449-2.635,0.334-3.847c1.192-1.847,3.283-2.337,5.285-1.89     c0.53,0.118,1.036,0.348,1.551,0.532c0.102,0.036,0.24,0.071,0.285,0.15c0.096,0.171,0.143,0.371,0.21,0.559     c-0.171,0.047-0.353,0.154-0.511,0.126c-0.236-0.041-0.455-0.179-0.683-0.274c-1.225-0.509-2.465-0.704-3.751-0.219     c-1.366,0.515-2.159,1.609-2.224,3.107c-0.455,0.736,0.069,1.288,0.377,1.854c0.682,1.254,1.406,2.485,2.12,3.721     C85.223,67.915,85.35,68.026,85.486,68.185z" />
			<path class="st12" d="M60.731,75.65c-0.367-0.897-0.367-0.897,0.326-1.032c0.243,0.217,0.439,0.432,0.671,0.596     c1.599,1.127,3.377,1.83,5.305,2.065c1.788,0.218,3.588,0.41,5.386,0.444c2.563,0.049,4.831-0.815,6.698-2.635     c1.929-1.881,2.721-4.18,2.537-6.833c-0.068-0.033-0.09-0.043-0.111-0.053c-0.044,0.114-0.089,0.227-0.133,0.339     c-2.35-0.042-3.906,0.975-5.059,2.601c0.08,0.086,0.166,0.177,0.333,0.355c-0.396,0.21-0.814,0.63-1.122,0.559     c-1.082-0.248-2.144-0.62-3.18-1.032c-0.871-0.346-1.401-1.121-1.928-1.86c-0.301-0.422-0.599-0.852-0.84-1.31     c-0.119-0.227-0.189-0.542-0.139-0.788c0.242-1.198,0.882-2.122,1.999-2.662c0.44-0.212,0.609-0.144,0.973,0.279     c-0.428,0.127-0.904,0.199-1.314,0.405c-0.623,0.313-0.931,0.943-1.117,1.57c-0.078,0.263,0.133,0.645,0.284,0.935     c0.131,0.252,0.409,0.427,0.541,0.68c0.823,1.566,2.09,2.507,3.82,2.82c0.269,0.049,0.538,0.097,0.807,0.143     c0.025,0.004,0.053-0.009,0.055-0.009c0.555-0.588,1.07-1.188,1.643-1.726c0.842-0.79,1.858-1.238,3.004-1.4     c0.993-0.141,1.295-0.479,1.391-1.566c0.472,0.405,0.645,0.911,0.772,1.43c0.391,1.6,0.257,3.178-0.322,4.703     c-1.084,2.854-3.084,4.769-5.997,5.647c-0.909,0.274-1.87,0.476-2.816,0.512c-3.279,0.128-6.501-0.247-9.576-1.476     c-0.754-0.301-1.454-0.743-2.212-1.137c-0.344,0.284-0.694,0.587-1.058,0.871c-1.726,1.35-3.676,1.924-5.846,1.605     c-0.999-0.147-1.984-0.39-2.972-0.608c-0.237-0.052-0.462-0.17-0.686-0.271c-0.244-0.111-0.569-0.203-0.451-0.567     c0.1-0.311,0.397-0.237,0.635-0.191c0.751,0.145,1.497,0.317,2.25,0.45c0.592,0.104,1.189,0.189,1.787,0.24     c1.465,0.126,2.825-0.194,4.053-1.032C59.642,76.358,60.171,76.019,60.731,75.65z" />
			<path class="st12" d="M124.159,53.127c-1.449-0.88-2.797-1.694-4.138-2.52c-0.227-0.14-0.455-0.306-0.621-0.51     c-0.158-0.194-0.234-0.492,0.023-0.657c0.152-0.098,0.436-0.128,0.594-0.05c0.661,0.324,1.302,0.691,1.942,1.058     c1.305,0.75,2.591,1.535,3.912,2.256c0.565,0.308,0.621,0.839,0.766,1.346c0.009,0.03-0.188,0.12-0.327,0.206     c0.023,0.069,0.035,0.177,0.089,0.256c1.59,2.325,1.082,4.638-0.084,6.911c-0.927,1.806-2.356,3.166-4.062,4.222     c-1.836,1.136-3.844,1.179-5.878,0.757c-0.77-0.16-1.515-0.466-2.251-0.759c-0.279-0.111-0.499-0.37-0.753-0.568     c0.303-0.52,0.593-0.575,1.075-0.423c1.307,0.414,2.649,0.67,4.037,0.596c1.271-0.068,2.385-0.497,3.4-1.278     c1.998-1.537,3.405-3.477,4.151-5.897c0.275-0.891,0.446-1.766-0.195-2.596c-0.144-0.187-0.219-0.445-0.274-0.682     c-0.067-0.29-0.079-0.593-0.129-0.998c-0.088-0.001-0.297-0.033-0.496,0.002c-1.519,0.265-2.976,0.74-4.371,1.393     c-0.778,0.364-1.453,0.833-1.762,1.732c-0.219,0.637-0.555,0.735-1.162,0.462c-0.265-0.12-0.513-0.313-0.722-0.521     c-0.543-0.541-1.076-1.094-1.582-1.669c-0.434-0.492-0.83-1.019-1.237-1.534c-0.49-0.619-0.21-1.632,0.401-2.252     c1.053-1.068,2.357-1.78,3.858-2.054c0.065-0.012,0.143,0.044,0.145,0.045c-0.963,0.605-1.958,1.212-2.933,1.85     c-0.499,0.327-0.812,0.804-0.926,1.408c-0.076,0.401-0.052,0.759,0.252,1.07c0.249,0.254,0.467,0.539,0.714,0.796     c0.607,0.633,1.218,1.261,1.837,1.882c0.151,0.152,0.338,0.268,0.524,0.412c0.262-0.447,0.429-0.951,0.769-1.262     c0.496-0.454,1.079-0.862,1.693-1.126c1.003-0.431,2.062-0.73,3.098-1.085C123.707,53.286,123.876,53.226,124.159,53.127z" />
			<path class="st13" d="M72.406,44.398c-0.214-0.601,0.073-1.043,0.323-1.446c0.506-0.815,1.027-1.631,1.634-2.37     c0.729-0.887,1.511-1.74,2.347-2.525c1.071-1.006,2.414-1.425,3.858-1.316c1.578,0.119,3.152,0.328,4.718,0.565     c3.561,0.539,6.989,1.587,10.349,2.863c1.843,0.7,3.724,1.342,5.469,2.242c1.184,0.611,2.252,1.52,3.065,2.652     c2.084,2.901,3.712,6.036,4.828,9.438c0.009,0.026,0.018,0.052,0.026,0.078c0.142,0.506,0.063,0.85-0.239,0.923     c-0.427,0.103-0.588-0.222-0.711-0.529c-0.288-0.714-0.56-1.436-0.819-2.161c-0.896-2.51-2.238-4.776-3.744-6.952     c-0.616-0.891-1.383-1.626-2.286-2.226c-0.431-0.286-0.825-0.627-1.246-0.928c-0.153-0.109-0.33-0.192-0.507-0.256     c-2.473-0.893-4.947-1.786-7.424-2.666c-2.851-1.014-5.814-1.549-8.782-2.058c-0.512-0.088-1.025-0.193-1.542-0.223     c-1.697-0.101-3.265,0.265-4.575,1.424c-1.537,1.359-2.679,3.04-3.792,4.743C73.134,44.008,72.983,44.418,72.406,44.398z" />
			<path class="st15" d="M58.345,118.735c0.601,0.463,0.854,1.105,0.941,1.782c0.418,3.242,0.493,6.457-0.56,9.629     c-1.345,4.052-3.422,7.645-6.658,10.421c-4.219,3.618-9.122,5.586-14.732,5.555c-1.402-0.008-2.159-0.195-3.017-0.76     c0.184-0.001,0.368-0.012,0.551,0c6.818,0.419,12.828-1.532,17.756-6.36c2.755-2.699,4.519-6.047,5.597-9.762     c0.876-3.017,0.936-6.071,0.457-9.152C58.611,119.63,58.46,119.185,58.345,118.735z" />
			<path class="st12" d="M112.781,65.182c-0.421,0.17-0.694,0.28-1.016,0.409c-0.36-0.64-0.708-1.258-1.078-1.918     c-1.189,0.007-2.354,0.164-3.49,0.431c-1.169,0.275-2.313,0.665-3.459,1.032c-0.469,0.15-0.964,0.314-0.984,0.963     c-0.634-0.362-0.692-0.789-0.174-1.125c0.385-0.25,0.83-0.422,1.267-0.574c1.87-0.65,3.795-1.053,5.764-1.249     c0.216-0.021,0.431-0.051,0.74-0.088c-0.167-0.308-0.303-0.564-0.444-0.819c-0.954-1.734-1.908-3.467-2.862-5.201     c-0.013-0.024-0.025-0.049-0.037-0.074c-0.325-0.728-0.247-0.856,0.593-0.962c0.042-0.338-0.155-0.507-0.44-0.573     c-0.663-0.153-1.325-0.355-1.997-0.408c-1.406-0.11-2.779,0.157-4.125,0.557c-0.235,0.07-0.463,0.169-0.685,0.275     c-1.109,0.529-1.32,0.897-1.234,2.182c-0.132,0.036-0.286,0.077-0.453,0.122c0.268,0.794,0.506,1.525,0.763,2.25     c0.258,0.726,0.484,1.47,0.819,2.159c0.33,0.678,0.778,1.297,1.249,2.063c-0.253-0.025-0.462,0.017-0.559-0.068     c-0.264-0.233-0.54-0.487-0.703-0.792c-0.349-0.652-0.675-1.324-0.929-2.018c-0.453-1.24-0.839-2.505-1.269-3.753     c-0.131-0.379-0.317-0.739-0.531-1.229c0.295,0.046,0.502,0.078,0.758,0.118c0.236-1.072,1.11-1.502,2.019-1.83     c1.799-0.648,3.66-0.947,5.566-0.672c0.553,0.08,1.087,0.344,1.613,0.564c0.498,0.209,0.705,0.663,0.579,1.15     c-0.129,0.497,0.055,0.858,0.277,1.236c0.85,1.446,1.714,2.883,2.552,4.336c0.229,0.398,0.379,0.842,0.576,1.259     c0.056,0.119,0.129,0.247,0.23,0.326C112.292,63.746,112.339,64.52,112.781,65.182z" />
			<path class="st12" d="M51.844,62.414c-0.006,0.116-0.013,0.249-0.027,0.495c-0.133-0.149-0.253-0.224-0.246-0.286     c0.033-0.311,0.099-0.619,0.171-1.03c0.516-0.11,1.091-0.28,1.679-0.35c4.506-0.537,9.01-1.105,13.565-0.909     c0.49,0.021,0.982-0.002,1.472,0.016c0.993,0.037,1.839,0.519,2.664,0.991c1.612,0.923,3.169,1.942,4.785,2.856     c0.756,0.428,1.588,0.725,2.4,1.044c0.687,0.27,1.399,0.479,2.093,0.733c0.228,0.084,0.476,0.186,0.635,0.355     c0.123,0.13,0.192,0.397,0.15,0.57c-0.031,0.129-0.268,0.259-0.431,0.29c-0.175,0.032-0.382-0.022-0.556-0.09     c-1.885-0.738-3.768-1.484-5.649-2.233c-0.564-0.225-1.112-0.475-1.337-1.12c-0.033-0.094-0.127-0.185-0.215-0.238     c-1.217-0.723-2.291-1.725-3.73-2.013c-0.693-0.139-1.401-0.232-2.106-0.269c-2.709-0.139-5.409,0.038-8.105,0.3     c-1.496,0.146-2.995,0.274-4.487,0.455c-0.618,0.075-1.218,0.283-1.832,0.399C52.466,62.432,52.181,62.404,51.844,62.414z" />
			<path class="st15" d="M63.379,117.907c-0.141-0.337-0.315-0.664-0.418-1.012c-0.444-1.502-0.464-3.036-0.275-4.578     c0.354-2.891,1.224-5.637,2.313-8.321c1.614-3.976,3.353-7.892,5.462-11.632c1.621-2.875,3.404-5.637,5.54-8.162     c1.147-1.356,2.484-2.471,3.954-3.441c0.067-0.045,0.145-0.08,0.222-0.101c0.046-0.012,0.101,0.012,0.279,0.039     c-0.467,0.426-0.841,0.852-1.293,1.165c-1.534,1.059-2.726,2.454-3.86,3.904c-2.156,2.758-3.834,5.813-5.447,8.91     c-1.868,3.588-3.472,7.297-4.875,11.087c-1.238,3.346-2.06,6.791-1.686,10.415c0.058,0.562,0.149,1.121,0.225,1.681     C63.474,117.875,63.426,117.891,63.379,117.907z" />
			<path class="st15" d="M68.839,91.198c-0.326,0.315-0.638,0.539-0.851,0.835c-2.725,3.785-4.421,8.017-5.369,12.574     c-0.628,3.02-1.126,6.057-1.319,9.142c-0.154,2.459,0.009,4.893,0.443,7.315c0.146,0.812,0.28,1.628,0.388,2.446     c0.04,0.303-0.011,0.617-0.021,0.927c-0.111,0.034-0.223,0.068-0.334,0.102c0.001-0.14,0.024-0.284-0.002-0.419     c-0.43-2.298-0.966-4.576-1.081-6.927c-0.152-3.099,0.149-6.163,0.705-9.198c0.401-2.19,0.871-4.376,1.463-6.52     c0.975-3.532,2.603-6.766,4.787-9.707c0.193-0.26,0.437-0.493,0.695-0.69C68.537,90.927,68.759,90.951,68.839,91.198z" />
			<path class="st13" d="M40.513,75.615c-0.065-0.255-0.156-0.412-0.126-0.541c0.042-0.178,0.155-0.35,0.271-0.498     c1.65-2.086,3.279-4.19,4.968-6.244c1.448-1.762,3.082-3.347,4.828-4.812c0.168-0.14,0.332-0.31,0.528-0.383     c0.144-0.054,0.417-0.03,0.487,0.066c0.078,0.107,0.024,0.348-0.034,0.508c-0.042,0.116-0.182,0.199-0.283,0.291     c-2.985,2.729-5.571,5.815-8.002,9.041c-0.575,0.763-1.239,1.462-1.892,2.162C41.092,75.385,40.812,75.456,40.513,75.615z" />
			<path class="st13" d="M113.807,43.808c0.808,0.518,1.802,0.659,2.519,1.45c0.708,0.782,1.641,1.358,2.472,2.029     c0.256,0.207,0.561,0.418,0.37,0.813c-0.128,0.265-0.449,0.192-0.91-0.178c-0.705-0.566-1.419-1.12-2.114-1.696     c-0.858-0.712-1.804-1.248-2.903-1.458c-1.233-0.236-2.468-0.482-3.712-0.646c-1.458-0.192-2.889,0.035-4.288,0.472     c-0.157,0.049-0.31,0.145-0.466,0.147c-0.144,0.002-0.376-0.057-0.415-0.153c-0.06-0.146-0.054-0.417,0.042-0.511     c0.207-0.201,0.472-0.401,0.745-0.464c0.903-0.209,1.814-0.418,2.733-0.513C109.282,42.955,112.519,43.389,113.807,43.808z" />
			<path class="st15" d="M63,81.605c0.596,0.024,0.69,0.361,0.758,0.621c0.249,0.952,0.569,1.907,0.647,2.879     c0.183,2.296-0.212,4.531-0.84,6.747c-0.768,2.711-2.335,4.942-3.97,7.149c-0.076,0.102-0.19,0.176-0.29,0.266     c-0.293-0.226-0.124-0.421-0.02-0.587c0.421-0.675,0.848-1.346,1.288-2.008c2.21-3.325,3.176-7.017,3.209-10.984     c0.009-1.109-0.17-2.189-0.543-3.236C63.152,82.21,63.097,81.955,63,81.605z" />
			<path d="M104.273,112.236c0.078,0.797,0.106,1.604,0.249,2.389c0.147,0.808,0.347,1.618,0.634,2.386     c0.296,0.793,0.674,1.566,1.11,2.291c0.423,0.702,0.928,1.364,1.467,1.982c0.517,0.593,0.862,1.369,1.664,1.789     c-0.108,0.284-0.381,0.313-0.682,0.204c-0.147-0.053-0.288-0.166-0.395-0.286c-1.579-1.763-3.1-3.566-3.824-5.889     c-0.394-1.266-0.651-2.558-0.591-3.893C103.92,112.876,103.897,112.513,104.273,112.236z" />
			<path d="M107.73,122.941c-0.769-0.086-1.274-0.307-1.732-0.644c-0.931-0.686-1.601-1.6-2-2.666     c-0.354-0.946-0.619-1.938-0.809-2.931c-0.206-1.077-0.29-2.179-0.404-3.273c-0.03-0.288,0.029-0.585,0.19-0.892     c0.053,0.195,0.119,0.387,0.157,0.584c0.304,1.592,0.562,3.194,0.915,4.776c0.451,2.022,1.544,3.618,3.335,4.697     C107.463,122.639,107.521,122.728,107.73,122.941z" />
			<path class="st12" d="M98.293,75.864c-0.32,0.181-0.619,0.428-0.962,0.534c-1.911,0.587-3.811,0.673-5.658-0.263     c-0.121-0.061-0.281-0.111-0.338-0.213c-0.07-0.125-0.095-0.315-0.054-0.45c0.03-0.096,0.207-0.213,0.31-0.205     c0.24,0.02,0.487,0.079,0.708,0.175c0.825,0.36,1.684,0.434,2.568,0.364c0.843-0.067,1.688-0.123,2.532-0.173     c0.265-0.016,0.531,0.001,0.797,0.003C98.228,75.711,98.26,75.788,98.293,75.864z" />
		</g>
		<line class="st16" x1="72.407" y1="145.958" x2="35.903" y2="198.233" />
		<line class="st16" x1="25.347" y1="131.859" x2="6.581" y2="151.204" />
		<path class="st17" d="M18.21,146.639c1.08,7.113,6.802,12.815,13.316,15.783s13.791,3.664,20.917,4.265" />
	</g>
	<g>
		<g>
			<path class="st11" d="M446.854,109.54c-0.037-0.408-0.08-0.815-0.108-1.224c-0.022-0.327-0.071-0.674,0.396-0.869     c0.093,0.139,0.234,0.271,0.282,0.432c0.815,2.707,0.885,5.477,0.58,8.258c-0.086,0.78-0.406,1.539-0.661,2.293     c-0.073,0.216-0.269,0.419-0.46,0.559c-0.728,0.533-1.439,1.109-2.226,1.539c-2.356,1.288-4.725,2.554-7.126,3.756     c-2.597,1.3-5.238,2.51-7.851,3.777c-1.099,0.533-2.254,0.942-3.212,1.772c-0.59,0.511-1.37,0.791-2.035,1.222     c-3.219,2.09-6.351,4.327-9.658,6.264c-4.609,2.701-9.343,5.188-14.031,7.752c-1.37,0.749-2.779,1.428-4.15,2.175     c-0.742,0.404-1.431,0.905-2.164,1.326c-0.64,0.367-1.309,0.683-1.965,1.023c-0.558,0.29-1.12,0.574-1.671,0.875     c-0.328,0.179-0.598,0.471-1.032,0.145c-0.134-0.101-0.465,0.042-0.699,0.101c-2.503,0.629-5.034,1.044-7.621,1.068     c-1.796,0.017-3.528-0.382-5.255-0.804c-0.322-0.079-0.818-0.15-0.683-0.633c0.118-0.421,0.543-0.227,0.854-0.172     c4.392,0.78,8.713,0.327,13.011-0.708c0.997-0.24,1.893-0.614,2.78-1.137c2.265-1.337,4.559-2.628,6.894-3.837     c7.475-3.869,14.85-7.911,21.92-12.497c1.264-0.82,2.564-1.587,3.867-2.345c0.42-0.244,0.901-0.381,1.354-0.567     c0.174-0.072,0.357-0.128,0.521-0.219c3.377-1.875,6.734-3.786,10.132-5.621c2.531-1.367,5.12-2.624,7.669-3.958     c0.603-0.316,1.155-0.734,1.714-1.128c0.146-0.103,0.276-0.28,0.333-0.45c0.191-0.573,0.437-1.149,0.498-1.741     c0.202-1.946,0.22-3.9-0.025-5.847c-0.026-0.21-0.124-0.411-0.189-0.616L446.854,109.54z" />
			<path class="st12" d="M412.707,77.251c-0.171,0.038-0.312,0.069-0.572,0.127c1.274-1.533,2.556-2.937,2.922-4.902     c-0.685-0.536-1.699-0.616-2.078-1.539c0.92,0.547,1.888,0.627,2.899,0.459c0.089-0.015,0.248-0.02,0.265,0.018     c0.168,0.391,0.524,0.263,0.786,0.259c2.605-0.039,4.912-0.897,6.689-2.833c0.686-0.747,1.089-1.762,1.604-2.664     c0.184-0.321,0.318-0.671,0.472-1.001c0.489,0.11,0.52,0.414,0.484,0.721c-0.194,1.663-0.763,3.143-2.063,4.27     c-2.396,2.078-4.681,2.774-8.335,2.477c-0.399,1.615-1.229,3.047-2.334,4.336c0.517,0.902,0.623,1.861,0.672,2.824     c0.14,2.721,0.273,5.445-0.174,8.15c-0.174,1.056-0.416,2.103-0.689,3.138c-1.161,4.409-1.12,8.721,1.043,12.844     c1.096,2.089,2.277,4.134,3.433,6.222c0.295-0.098,0.53-0.164,0.755-0.253c2.164-0.862,4.316-1.748,6.246-3.093     c0.289-0.202,0.614-0.383,0.949-0.472c0.189-0.05,0.492,0.045,0.638,0.186c0.234,0.224,0.123,0.519-0.085,0.732     c-0.131,0.135-0.309,0.224-0.462,0.339c-2.018,1.512-4.296,2.515-6.613,3.446c-0.267,0.107-0.49,0.372-0.759,0.421     c-0.507,0.093-1.046,0.166-1.546,0.085c-0.361-0.059-0.36-0.456-0.046-1.09c-0.222-0.309-0.467-0.637-0.699-0.974     c-1.438-2.09-2.639-4.311-3.624-6.651c-1.277-3.034-1.48-6.191-0.964-9.4c0.327-2.035,0.821-4.043,1.17-6.075     c0.461-2.687,0.761-5.392,0.53-8.127C413.165,78.546,413.042,77.877,412.707,77.251z" />
			<path class="st13" d="M354.74,74.414c-0.086,0.254-0.121,0.471-0.225,0.648c-1.072,1.833-1.924,3.774-2.618,5.772     c-2.402,6.911-4.816,13.818-7.099,20.769c-1.606,4.89-2.756,9.911-3.619,14.99c-0.7,4.12-1.319,8.255-1.986,12.381     c-0.131,0.809-0.322,1.608-0.501,2.491c-0.406-0.273-0.321-0.596-0.312-0.863c0.064-1.813,0.092-3.63,0.235-5.437     c0.431-5.471,1.476-10.839,2.726-16.174c1.882-8.034,4.778-15.734,7.578-23.465c0.796-2.196,1.654-4.374,2.591-6.513     c0.57-1.302,1.335-2.52,2.034-3.763C353.787,74.818,354.139,74.483,354.74,74.414z" />
			<path class="st14" d="M366.07,60.482c0.317-0.938,0.582-1.774,0.881-2.598c0.918-2.538,1.946-5.028,3.321-7.357     c0.209-0.354,0.482-0.669,0.686-1.025c0.819-1.428,2.132-2.142,3.635-2.595c1.923-0.579,3.904-0.843,5.888-1.068     c3.594-0.406,7.199-0.565,10.805-0.222c2.631,0.25,5.161,0.935,7.557,2.082c1.264,0.605,2.277,1.535,3.133,2.612     c0.904,1.137,1.736,2.336,2.539,3.548c0.668,1.007,1.252,2.07,1.868,3.111c0.456,0.77,1.025,1.51,0.666,2.545     c-0.524,0.017-0.703-0.464-0.928-0.837c-0.736-1.225-1.425-2.48-2.171-3.699c-0.602-0.984-1.229-1.956-1.906-2.889     c-0.514-0.709-1.109-1.361-1.692-2.017c-1.111-1.247-2.583-1.923-4.096-2.5c-0.358-0.136-0.807-0.005-1.203-0.068     c-0.864-0.137-1.72-0.323-2.581-0.481c-2.196-0.403-4.412-0.32-6.626-0.27c-3.235,0.073-6.44,0.433-9.6,1.135     c-0.845,0.188-1.646,0.569-2.476,0.833c-0.273,0.087-0.575,0.082-0.947,0.129c-1.06,1.313-1.929,2.837-2.581,4.476     c-0.803,2.019-1.563,4.056-2.3,6.1c-0.232,0.644-0.805,0.823-1.276,1.146C366.572,60.639,366.363,60.533,366.07,60.482z" />
			<path class="st11" d="M446.837,109.503c-0.07,0.283-0.037,0.658-0.444,0.692c-0.408,0.035-0.663-0.233-0.815-0.578     c-0.447-1.015-0.363-2.042-0.009-3.059c0.461-1.325,0.907-2.656,1.412-3.964c0.695-1.8,0.712-3.34-1.462-5.076     c-0.807-0.644-1.697-1.262-2.65-1.622c-1.349-0.511-2.782-0.465-4.169,0.054c-2.08,0.778-3.839,2.028-5.161,3.805     c-2.242,3.012-3.562,6.425-4.003,10.163c-0.176,1.493,0.002,2.968,0.551,4.381c0.375,0.966,0.878,1.836,1.811,2.374     c0.084,0.049,0.141,0.147,0.276,0.292c-0.714,0.148-1.25-0.084-1.759-0.39c-0.655-0.393-1.09-0.991-1.439-1.658     c-0.831-1.586-1.082-3.299-0.925-5.049c0.404-4.498,2.057-8.481,5.15-11.783c1.746-1.865,3.882-3.129,6.425-3.575     c1.094-0.192,2.138-0.145,3.12,0.584c0.738,0.548,1.642,0.865,2.45,1.324c0.89,0.506,1.643,1.181,2.247,2.019     c0.883,1.225,1.103,2.544,0.619,3.986c-0.464,1.382-0.926,2.765-1.348,4.16c-0.165,0.547-0.259,1.124-0.312,1.694     c-0.043,0.467,0.073,0.926,0.453,1.263C446.854,109.54,446.837,109.503,446.837,109.503z" />
			<path class="st12" d="M400.171,68.185c3.055-1.862,6.355-2.394,9.8-2.515c-0.089-0.129-0.195-0.309-0.326-0.467     c-0.787-0.952-1.592-1.889-2.364-2.853c-0.289-0.361-0.548-0.761-0.74-1.18c-0.185-0.403-0.013-0.774,0.316-0.901     c0.312-0.12,0.544,0.023,0.769,0.425c0.213,0.381,0.413,0.78,0.688,1.113c1.24,1.503,2.496,2.993,3.764,4.472     c0.613,0.715,0.62,0.841-0.135,1.43c0.491,1.106,0.172,2.086-0.537,2.984c-1.576,1.998-3.488,3.596-5.856,4.513     c-2.237,0.866-4.541,0.998-6.774-0.099c-0.506-0.249-0.946-0.64-1.397-0.99c-0.145-0.113-0.243-0.297-0.338-0.462     c-0.138-0.242-0.145-0.522,0.12-0.639c0.147-0.065,0.461,0.002,0.559,0.124c0.382,0.473,0.911,0.684,1.42,0.95     c0.647,0.339,1.334,0.488,2.051,0.513c1.849,0.063,3.596-0.323,5.168-1.325c1.484-0.945,2.806-2.087,4.008-3.384     c0.876-0.945,0.724-1.949,0.323-2.992c-0.062-0.16-0.305-0.327-0.483-0.352c-0.618-0.085-1.253-0.202-1.865-0.138     c-1.687,0.177-3.368,0.452-4.96,1.067c-0.783,0.303-1.542,0.698-2.259,1.139c-0.961,0.591-1.463,0.528-2.01-0.457     c-0.774-1.393-1.485-2.821-2.277-4.203c-0.792-1.383-0.449-2.635,0.334-3.847c1.192-1.847,3.283-2.337,5.285-1.89     c0.53,0.118,1.036,0.348,1.551,0.532c0.102,0.036,0.24,0.071,0.285,0.15c0.096,0.171,0.143,0.371,0.21,0.559     c-0.171,0.047-0.353,0.154-0.511,0.126c-0.236-0.041-0.455-0.179-0.683-0.274c-1.225-0.509-2.465-0.704-3.751-0.219     c-1.366,0.515-2.159,1.609-2.224,3.107c-0.455,0.736,0.069,1.288,0.377,1.854c0.682,1.254,1.406,2.485,2.12,3.721     C399.909,67.915,400.036,68.026,400.171,68.185z" />
			<path class="st12" d="M375.416,75.65c-0.367-0.897-0.367-0.897,0.326-1.032c0.243,0.217,0.439,0.432,0.671,0.596     c1.599,1.127,3.377,1.83,5.305,2.065c1.788,0.218,3.588,0.41,5.386,0.444c2.563,0.049,4.831-0.815,6.698-2.635     c1.929-1.881,2.721-4.18,2.537-6.833c-0.068-0.033-0.09-0.043-0.111-0.053c-0.044,0.114-0.089,0.227-0.133,0.339     c-2.35-0.042-3.906,0.975-5.059,2.601c0.081,0.086,0.166,0.177,0.333,0.355c-0.396,0.21-0.815,0.63-1.122,0.559     c-1.082-0.248-2.144-0.62-3.18-1.032c-0.871-0.346-1.401-1.121-1.928-1.86c-0.301-0.422-0.599-0.852-0.84-1.31     c-0.119-0.227-0.189-0.542-0.139-0.788c0.242-1.198,0.882-2.122,1.999-2.662c0.44-0.212,0.609-0.144,0.973,0.279     c-0.428,0.127-0.904,0.199-1.314,0.405c-0.623,0.313-0.931,0.943-1.117,1.57c-0.078,0.263,0.133,0.645,0.284,0.935     c0.131,0.252,0.409,0.427,0.541,0.68c0.823,1.566,2.09,2.507,3.82,2.82c0.269,0.049,0.538,0.097,0.807,0.143     c0.025,0.004,0.053-0.009,0.055-0.009c0.555-0.588,1.07-1.188,1.643-1.726c0.842-0.79,1.858-1.238,3.004-1.4     c0.993-0.141,1.295-0.479,1.391-1.566c0.472,0.405,0.645,0.911,0.772,1.43c0.391,1.6,0.257,3.178-0.322,4.703     c-1.084,2.854-3.084,4.769-5.997,5.647c-0.909,0.274-1.87,0.476-2.816,0.512c-3.279,0.128-6.501-0.247-9.576-1.476     c-0.754-0.301-1.454-0.743-2.212-1.137c-0.344,0.284-0.694,0.587-1.058,0.871c-1.726,1.35-3.676,1.924-5.846,1.605     c-0.999-0.147-1.984-0.39-2.972-0.608c-0.237-0.052-0.462-0.17-0.686-0.271c-0.244-0.111-0.569-0.203-0.451-0.567     c0.1-0.311,0.397-0.237,0.635-0.191c0.751,0.145,1.497,0.317,2.25,0.45c0.592,0.104,1.189,0.189,1.787,0.24     c1.465,0.126,2.825-0.194,4.053-1.032C374.328,76.358,374.856,76.019,375.416,75.65z" />
			<path class="st12" d="M438.845,53.127c-1.449-0.88-2.797-1.694-4.138-2.52c-0.227-0.14-0.455-0.306-0.621-0.51     c-0.158-0.194-0.234-0.492,0.023-0.657c0.152-0.098,0.436-0.128,0.594-0.05c0.661,0.324,1.302,0.691,1.942,1.058     c1.305,0.75,2.591,1.535,3.912,2.256c0.565,0.308,0.621,0.839,0.766,1.346c0.009,0.03-0.188,0.12-0.327,0.206     c0.023,0.069,0.035,0.177,0.089,0.256c1.59,2.325,1.082,4.638-0.085,6.911c-0.927,1.806-2.356,3.166-4.062,4.222     c-1.836,1.136-3.844,1.179-5.878,0.757c-0.77-0.16-1.515-0.466-2.251-0.759c-0.279-0.111-0.499-0.37-0.753-0.568     c0.303-0.52,0.593-0.575,1.075-0.423c1.307,0.414,2.649,0.67,4.037,0.596c1.271-0.068,2.385-0.497,3.4-1.278     c1.998-1.537,3.405-3.477,4.151-5.897c0.275-0.891,0.446-1.766-0.195-2.596c-0.144-0.187-0.219-0.445-0.274-0.682     c-0.067-0.29-0.079-0.593-0.129-0.998c-0.088-0.001-0.297-0.033-0.496,0.002c-1.519,0.265-2.976,0.74-4.371,1.393     c-0.778,0.364-1.453,0.833-1.762,1.732c-0.219,0.637-0.555,0.735-1.162,0.462c-0.265-0.12-0.513-0.313-0.722-0.521     c-0.543-0.541-1.076-1.094-1.582-1.669c-0.434-0.492-0.83-1.019-1.237-1.534c-0.49-0.619-0.21-1.632,0.401-2.252     c1.053-1.068,2.357-1.78,3.858-2.054c0.065-0.012,0.143,0.044,0.145,0.045c-0.963,0.605-1.958,1.212-2.933,1.85     c-0.499,0.327-0.812,0.804-0.926,1.408c-0.076,0.401-0.052,0.759,0.252,1.07c0.249,0.254,0.467,0.539,0.714,0.796     c0.607,0.633,1.218,1.261,1.837,1.882c0.151,0.152,0.338,0.268,0.524,0.412c0.262-0.447,0.429-0.951,0.769-1.262     c0.496-0.454,1.079-0.862,1.693-1.126c1.003-0.431,2.062-0.73,3.098-1.085C438.393,53.286,438.562,53.226,438.845,53.127z" />
			<path class="st13" d="M387.091,44.398c-0.214-0.601,0.073-1.043,0.323-1.446c0.506-0.815,1.027-1.631,1.634-2.37     c0.729-0.887,1.511-1.74,2.347-2.525c1.071-1.006,2.414-1.425,3.858-1.316c1.578,0.119,3.152,0.328,4.718,0.565     c3.561,0.539,6.989,1.587,10.349,2.863c1.843,0.7,3.724,1.342,5.469,2.242c1.184,0.611,2.252,1.52,3.065,2.652     c2.084,2.901,3.712,6.036,4.828,9.438c0.009,0.026,0.018,0.052,0.026,0.078c0.142,0.506,0.063,0.85-0.239,0.923     c-0.427,0.103-0.588-0.222-0.711-0.529c-0.288-0.714-0.56-1.436-0.819-2.161c-0.896-2.51-2.238-4.776-3.744-6.952     c-0.616-0.891-1.383-1.626-2.286-2.226c-0.431-0.286-0.825-0.627-1.246-0.928c-0.153-0.109-0.33-0.192-0.507-0.256     c-2.473-0.893-4.947-1.786-7.424-2.666c-2.851-1.014-5.814-1.549-8.782-2.058c-0.512-0.088-1.026-0.193-1.542-0.223     c-1.697-0.101-3.265,0.265-4.575,1.424c-1.537,1.359-2.679,3.04-3.792,4.743C387.82,44.008,387.669,44.418,387.091,44.398z" />
			<path class="st15" d="M373.031,118.735c0.601,0.463,0.854,1.105,0.941,1.782c0.418,3.242,0.493,6.457-0.56,9.629     c-1.345,4.052-3.422,7.645-6.658,10.421c-4.219,3.618-9.122,5.586-14.732,5.555c-1.402-0.008-2.159-0.195-3.017-0.76     c0.184-0.001,0.368-0.012,0.551,0c6.819,0.419,12.828-1.532,17.756-6.36c2.755-2.699,4.519-6.047,5.597-9.762     c0.876-3.017,0.936-6.071,0.457-9.152C373.296,119.63,373.145,119.185,373.031,118.735z" />
			<path class="st12" d="M427.467,65.182c-0.421,0.17-0.694,0.28-1.016,0.409c-0.36-0.64-0.707-1.258-1.078-1.918     c-1.189,0.007-2.354,0.164-3.49,0.431c-1.169,0.275-2.313,0.665-3.459,1.032c-0.469,0.15-0.964,0.314-0.984,0.963     c-0.634-0.362-0.692-0.789-0.174-1.125c0.385-0.25,0.83-0.422,1.267-0.574c1.87-0.65,3.795-1.053,5.764-1.249     c0.216-0.021,0.431-0.051,0.74-0.088c-0.167-0.308-0.303-0.564-0.444-0.819c-0.954-1.734-1.908-3.467-2.862-5.201     c-0.013-0.024-0.025-0.049-0.037-0.074c-0.325-0.728-0.247-0.856,0.593-0.962c0.042-0.338-0.155-0.507-0.44-0.573     c-0.663-0.153-1.325-0.355-1.997-0.408c-1.406-0.11-2.779,0.157-4.125,0.557c-0.235,0.07-0.463,0.169-0.685,0.275     c-1.109,0.529-1.32,0.897-1.234,2.182c-0.132,0.036-0.286,0.077-0.453,0.122c0.268,0.794,0.506,1.525,0.763,2.25     c0.258,0.726,0.484,1.47,0.819,2.159c0.33,0.678,0.778,1.297,1.249,2.063c-0.253-0.025-0.462,0.017-0.559-0.068     c-0.264-0.233-0.54-0.487-0.703-0.792c-0.349-0.652-0.675-1.324-0.929-2.018c-0.453-1.24-0.839-2.505-1.269-3.753     c-0.131-0.379-0.317-0.739-0.531-1.229c0.295,0.046,0.502,0.078,0.758,0.118c0.236-1.072,1.11-1.502,2.019-1.83     c1.799-0.648,3.66-0.947,5.566-0.672c0.553,0.08,1.087,0.344,1.613,0.564c0.498,0.209,0.705,0.663,0.579,1.15     c-0.129,0.497,0.055,0.858,0.277,1.236c0.85,1.446,1.714,2.883,2.552,4.336c0.229,0.398,0.379,0.842,0.576,1.259     c0.056,0.119,0.129,0.247,0.23,0.326C426.978,63.746,427.025,64.52,427.467,65.182z" />
			<path class="st12" d="M366.529,62.414c-0.006,0.116-0.013,0.249-0.027,0.495c-0.133-0.149-0.253-0.224-0.246-0.286     c0.033-0.311,0.099-0.619,0.171-1.03c0.516-0.11,1.091-0.28,1.679-0.35c4.506-0.537,9.01-1.105,13.565-0.909     c0.49,0.021,0.982-0.002,1.472,0.016c0.993,0.037,1.839,0.519,2.664,0.991c1.612,0.923,3.169,1.942,4.785,2.856     c0.756,0.428,1.588,0.725,2.4,1.044c0.687,0.27,1.399,0.479,2.093,0.733c0.228,0.084,0.476,0.186,0.635,0.355     c0.123,0.13,0.192,0.397,0.15,0.57c-0.031,0.129-0.268,0.259-0.431,0.29c-0.175,0.032-0.382-0.022-0.556-0.09     c-1.885-0.738-3.768-1.484-5.649-2.233c-0.564-0.225-1.112-0.475-1.337-1.12c-0.033-0.094-0.127-0.185-0.215-0.238     c-1.217-0.723-2.291-1.725-3.73-2.013c-0.693-0.139-1.401-0.232-2.106-0.269c-2.709-0.139-5.409,0.038-8.105,0.3     c-1.496,0.146-2.995,0.274-4.487,0.455c-0.618,0.075-1.218,0.283-1.832,0.399C367.151,62.432,366.866,62.404,366.529,62.414z" />
			<path class="st15" d="M378.064,117.907c-0.141-0.337-0.315-0.664-0.418-1.012c-0.444-1.502-0.464-3.036-0.275-4.578     c0.354-2.891,1.224-5.637,2.313-8.321c1.614-3.976,3.353-7.892,5.462-11.632c1.621-2.875,3.404-5.637,5.54-8.162     c1.147-1.356,2.484-2.471,3.954-3.441c0.067-0.045,0.145-0.08,0.222-0.101c0.046-0.012,0.101,0.012,0.279,0.039     c-0.467,0.426-0.841,0.852-1.293,1.165c-1.534,1.059-2.726,2.454-3.86,3.904c-2.156,2.758-3.834,5.813-5.447,8.91     c-1.868,3.588-3.472,7.297-4.875,11.087c-1.238,3.346-2.06,6.791-1.686,10.415c0.058,0.562,0.149,1.121,0.225,1.681     C378.159,117.875,378.112,117.891,378.064,117.907z" />
			<path class="st15" d="M383.524,91.198c-0.326,0.315-0.638,0.539-0.851,0.835c-2.725,3.785-4.421,8.017-5.368,12.574     c-0.628,3.02-1.126,6.057-1.319,9.142c-0.154,2.459,0.009,4.893,0.443,7.315c0.146,0.812,0.28,1.628,0.388,2.446     c0.04,0.303-0.011,0.617-0.021,0.927c-0.111,0.034-0.223,0.068-0.334,0.102c0.001-0.14,0.024-0.284-0.002-0.419     c-0.43-2.298-0.966-4.576-1.081-6.927c-0.152-3.099,0.149-6.163,0.705-9.198c0.401-2.19,0.871-4.376,1.463-6.52     c0.975-3.532,2.603-6.766,4.787-9.707c0.193-0.26,0.437-0.493,0.695-0.69C383.223,90.927,383.445,90.951,383.524,91.198z" />
			<path class="st13" d="M355.199,75.615c-0.065-0.255-0.156-0.412-0.126-0.541c0.042-0.178,0.155-0.35,0.271-0.498     c1.65-2.086,3.279-4.19,4.968-6.244c1.448-1.762,3.082-3.347,4.828-4.812c0.168-0.14,0.332-0.31,0.528-0.383     c0.144-0.054,0.417-0.03,0.487,0.066c0.078,0.107,0.024,0.348-0.034,0.508c-0.042,0.116-0.182,0.199-0.283,0.291     c-2.985,2.729-5.571,5.815-8.002,9.041c-0.575,0.763-1.239,1.462-1.892,2.162C355.778,75.385,355.498,75.456,355.199,75.615z" />
			<path class="st13" d="M428.493,43.808c0.808,0.518,1.802,0.659,2.519,1.45c0.708,0.782,1.641,1.358,2.472,2.029     c0.256,0.207,0.561,0.418,0.37,0.813c-0.128,0.265-0.449,0.192-0.91-0.178c-0.705-0.566-1.419-1.12-2.114-1.696     c-0.858-0.712-1.804-1.248-2.903-1.458c-1.233-0.236-2.468-0.482-3.712-0.646c-1.458-0.192-2.889,0.035-4.288,0.472     c-0.157,0.049-0.31,0.145-0.466,0.147c-0.144,0.002-0.376-0.057-0.415-0.153c-0.06-0.146-0.054-0.417,0.042-0.511     c0.207-0.201,0.472-0.401,0.745-0.464c0.903-0.209,1.814-0.418,2.733-0.513C423.968,42.955,427.204,43.389,428.493,43.808z" />
			<path class="st15" d="M377.685,81.605c0.596,0.024,0.69,0.361,0.758,0.621c0.249,0.952,0.569,1.907,0.647,2.879     c0.183,2.296-0.212,4.531-0.84,6.747c-0.768,2.711-2.335,4.942-3.97,7.149c-0.076,0.102-0.19,0.176-0.29,0.266     c-0.293-0.226-0.124-0.421-0.02-0.587c0.421-0.675,0.848-1.346,1.288-2.008c2.21-3.325,3.176-7.017,3.209-10.984     c0.009-1.109-0.17-2.189-0.543-3.236C377.837,82.21,377.783,81.955,377.685,81.605z" />
			<path d="M418.959,112.236c0.078,0.797,0.106,1.604,0.249,2.389c0.147,0.808,0.347,1.618,0.634,2.386     c0.296,0.793,0.674,1.566,1.11,2.291c0.423,0.702,0.928,1.364,1.467,1.982c0.517,0.593,0.862,1.369,1.664,1.789     c-0.108,0.284-0.381,0.313-0.682,0.204c-0.147-0.053-0.288-0.166-0.395-0.286c-1.579-1.763-3.1-3.566-3.824-5.889     c-0.394-1.266-0.651-2.558-0.591-3.893C418.606,112.876,418.583,112.513,418.959,112.236z" />
			<path d="M422.416,122.941c-0.769-0.086-1.274-0.307-1.732-0.644c-0.931-0.686-1.601-1.6-2-2.666     c-0.354-0.946-0.619-1.938-0.809-2.931c-0.206-1.077-0.29-2.179-0.404-3.273c-0.03-0.288,0.029-0.585,0.19-0.892     c0.053,0.195,0.119,0.387,0.157,0.584c0.304,1.592,0.562,3.194,0.915,4.776c0.451,2.022,1.544,3.618,3.335,4.697     C422.149,122.639,422.207,122.728,422.416,122.941z" />
			<path class="st12" d="M412.978,75.864c-0.32,0.181-0.619,0.428-0.962,0.534c-1.911,0.587-3.811,0.673-5.658-0.263     c-0.121-0.061-0.281-0.111-0.338-0.213c-0.07-0.125-0.095-0.315-0.054-0.45c0.03-0.096,0.207-0.213,0.31-0.205     c0.24,0.02,0.487,0.079,0.708,0.175c0.825,0.36,1.684,0.434,2.568,0.364c0.843-0.067,1.688-0.123,2.532-0.173     c0.265-0.016,0.531,0.001,0.797,0.003C412.914,75.711,412.946,75.788,412.978,75.864z" />
		</g>
		<line class="st16" x1="387.093" y1="145.958" x2="350.589" y2="198.233" />
		<line class="st16" x1="340.033" y1="131.859" x2="321.266" y2="151.204" />
		<path class="st17" d="M332.896,146.639c1.08,7.113,6.802,12.815,13.316,15.783s13.791,3.664,20.917,4.265" />
	</g>
</g>
</svg>
