<?xml version="1.0" encoding="UTF-8"?>
<!-- Generator: Adobe Illustrator 27.5.0, SVG Export Plug-In . SVG Version: 6.00 Build 0)  -->
<svg xmlns="http://www.w3.org/2000/svg" xmlns:xlink="http://www.w3.org/1999/xlink" version="1.1" id="Lager_1" x="0px" y="0px" width="226.8px" height="226.8px" viewBox="0 0 226.8 226.8" style="enable-background:new 0 0 226.8 226.8;" xml:space="preserve"><rect fill="#FFFFFF" x="0px" y="0px" width="226.8px" height="226.8px" />
<style type="text/css">
	.st0{fill:#FFFFFF;}
	.st1{fill:url(#SVGID_1_);}
	.st2{fill:none;stroke:#000000;stroke-width:2;stroke-linecap:round;}
	.st3{fill:none;stroke:#000000;stroke-linecap:round;}
	.st4{fill:none;stroke:#000000;stroke-width:0.5;stroke-linecap:round;}
</style>
<rect y="0" class="st0" width="226.8" height="226.8" />
<g id="Färg_1_">
	
		<linearGradient id="SVGID_1_" gradientUnits="userSpaceOnUse" x1="23.7545" y1="-620.4952" x2="31.3269" y2="-609.2512" gradientTransform="matrix(0.9829 -0.1842 -0.1842 -0.9829 -52.0378 -398.6456)">
		<stop offset="0" style="stop-color:#FFFFFF" />
		<stop offset="1" style="stop-color:#EDEDED" />
	</linearGradient>
	<polygon class="st1" points="112.5,223.2 118.5,195.2 119,187.4 108.5,186.4 93.5,180.6 82.8,171.7 78.4,164.3 55.4,198.2  " />
</g>
<path class="st2" d="M62.4,189.6c0,0,18.3-28.6,20.5-32.9s9.2-58.2,9.2-58.2c0.6-6.5,4.2-15.1,5.2-17.9s6.8-22.7,6.8-22.7l10.5-26.4  " />
<path class="st2" d="M114.6,32.8c1.8-5.8,3.5-11.8,9.4-10.7c4.3,0.8,4.8,3.4,4.8,3.4" />
<path class="st2" d="M112.7,88.7c0,0,5.3-26.6,7.1-31.2s8.2-25,8.2-25" />
<path class="st2" d="M128.6,34.3c0,0,0-11.5,3.9-11.9s14-1,9.8,18s-5.2,18.8-9.7,48.7" />
<path class="st2" d="M131,94.7c0,0,9.3-11.4,12.6-11.4s8.3,3.7,7.5,7.7s-9.7,18.4-9.7,18.4" />
<path class="st2" d="M151.4,95.3c0.5-0.2,5.8,3.6,6.3,9.2c0.5,5.7-4.6,17.2-7.5,21.1" />
<path class="st2" d="M151.1,120.8c0,0-2.2,4.3-2.8,10.3c-1.1,12.1-13.6,42-26.4,48.9c0,0-6.7,29.6-7.8,36.6" />
<path class="st3" d="M80.1,166.8c0,0,10.9,20.6,37,20.3" />
<g>
	<path d="M130.9,26.6c0,0,0,0.4,0,1s0,1.5,0,2.6c0,0.5,0,1.1,0.1,1.7c0,0.3,0.1,0.6,0.1,0.9c0.1,0.3,0.1,0.6,0.3,0.7   c0.1,0.1,0.5,0.3,0.7,0.4c0.3,0.1,0.6,0.2,0.9,0.3c0.7,0.2,1.3,0.4,2,0.5s1.4,0.3,2.1,0.3c0.3,0,0.7,0,0.9,0c0.1,0,0.2,0,0.2-0.1   l0.1-0.1c0.1-0.1,0.2-0.2,0.3-0.3c0.4-0.4,0.8-0.9,1.1-1.4s0.5-1.1,0.7-1.6c0.3-1,0.5-1.9,0.6-2.5s0.1-1,0.1-1s0,0.1,0,0.3   c0,0.2,0,0.4,0,0.7c0,0.6-0.1,1.5-0.3,2.6c-0.1,0.5-0.3,1.1-0.5,1.7c-0.3,0.6-0.6,1.2-1.1,1.8c-0.1,0.1-0.3,0.3-0.5,0.4   c-0.1,0.1-0.2,0.1-0.3,0.2l-0.2,0.1c-0.5,0.1-0.8,0.1-1.2,0.1c-0.7,0-1.5-0.2-2.2-0.3s-1.4-0.3-2.1-0.5c-0.3-0.1-0.7-0.2-1-0.4   s-0.6-0.3-1-0.6c-0.4-0.4-0.4-0.8-0.5-1.1c0-0.3-0.1-0.7-0.1-1c0-0.6,0-1.2,0.1-1.8C130.6,28,130.9,26.6,130.9,26.6z" />
</g>
<g>
	<path d="M117.6,25.7c0,0,0,0.3-0.1,0.9s-0.1,1.5-0.2,2.5c0,0.5-0.1,1.1-0.1,1.6c0,0.6,0,1.2,0.1,1.7c0,0.2,0.8,0.5,1.3,0.7   c0.6,0.2,1.3,0.3,1.9,0.4c0.7,0.1,1.3,0.2,2,0.3c0.3,0,0.6,0,0.9,0c0.1,0,0.3,0,0.4,0c0.2,0,0.3-0.1,0.4-0.1c0.5-0.2,0.9-0.6,1.3-1   c0.3-0.4,0.6-0.9,0.8-1.3c0.4-0.9,0.6-1.7,0.7-2.3c0.1-0.6,0.2-0.9,0.2-0.9s0,0.1,0,0.2c0,0.2,0,0.4,0,0.7c0,0.6,0,1.5-0.4,2.5   c-0.2,0.5-0.4,1.1-0.7,1.6c-0.3,0.5-0.8,1-1.5,1.4c-0.2,0.1-0.4,0.2-0.5,0.2c-0.2,0.1-0.4,0.1-0.6,0.1c-0.4,0-0.7,0-1.1,0   c-0.7,0-1.4-0.1-2.1-0.2c-0.7-0.1-1.4-0.3-2-0.5c-0.3-0.1-0.7-0.2-1-0.4s-0.8-0.4-0.9-0.9c-0.2-0.8-0.1-1.4,0-2s0.2-1.2,0.3-1.7   C117.2,27,117.6,25.7,117.6,25.7z" />
</g>
<path class="st4" d="M121.7,58c0,0,6.6-0.8,10.8,2.8" />
<path class="st4" d="M121.3,60.6c0,0,4.7,2.1,11,1.9" />
<path class="st4" d="M106.5,56.1c0,0,6.6-0.8,10.8,2.8" />
<path class="st4" d="M106.1,58.7c0,0,4.7,2.1,11,1.9" />
<line class="st2" x1="109.6" y1="89.1" x2="113.8" y2="83.3" />
<line class="st2" x1="142.3" y1="107.7" x2="142.1" y2="110.6" />
<g>
	<path d="M118.2,24.2c0,0,0.1,0,0.4,0c0.2,0,0.6-0.1,1-0.2c0.8-0.2,2-0.4,3.1-0.3c0.6,0.1,1.2,0.1,1.7,0.3c0.5,0.1,1,0.3,1.4,0.5   s0.7,0.4,0.9,0.6c0.2,0.1,0.3,0.2,0.3,0.2s-0.1,0-0.4-0.1c-0.2-0.1-0.6-0.2-1-0.3c-0.4-0.1-0.9-0.2-1.4-0.3   c-0.2-0.1-0.5-0.1-0.8-0.1s-0.5-0.1-0.8-0.1c-1.1-0.1-2.2,0-3-0.1c-0.4,0-0.8,0-1-0.1C118.3,24.3,118.2,24.2,118.2,24.2z" />
</g>
<g>
	<path d="M131.6,24.7c0,0,0.1,0,0.4,0c0.2,0,0.6-0.1,1-0.2c0.8-0.2,2-0.4,3.1-0.3c0.6,0.1,1.2,0.1,1.7,0.3c0.5,0.1,1,0.3,1.4,0.5   s0.7,0.4,0.9,0.6c0.2,0.1,0.3,0.2,0.3,0.2s-0.1,0-0.4-0.1c-0.2-0.1-0.6-0.2-1-0.3c-0.4-0.1-0.9-0.2-1.4-0.3   c-0.2-0.1-0.5-0.1-0.8-0.1s-0.5-0.1-0.8-0.1c-1.1-0.1-2.2,0-3-0.1c-0.4,0-0.8,0-1-0.1C131.7,24.8,131.6,24.7,131.6,24.7z" />
</g>
</svg>
