<?xml version="1.0" encoding="UTF-8"?>
<!-- Generator: Adobe Illustrator 27.5.0, SVG Export Plug-In . SVG Version: 6.00 Build 0)  -->
<svg xmlns="http://www.w3.org/2000/svg" xmlns:xlink="http://www.w3.org/1999/xlink" version="1.1" id="Lager_1" x="0px" y="0px" width="226.8px" height="226.8px" viewBox="0 0 226.8 226.8" style="enable-background:new 0 0 226.8 226.8;" xml:space="preserve"><rect fill="#FFFFFF" x="0px" y="0px" width="226.8px" height="226.8px" />
<style type="text/css">
	.st0{fill:#FFFFFF;}
	.st1{fill:url(#SVGID_1_);}
	.st2{fill:none;stroke:#000000;stroke-linecap:round;}
	.st3{fill:none;stroke:#000000;stroke-width:2;stroke-linecap:round;}
	.st4{fill:none;stroke:#000000;stroke-width:0.5;stroke-linecap:round;}
</style>
<rect y="0" class="st0" width="226.8" height="226.8" />
<g id="Färg_2_">
	
		<linearGradient id="SVGID_1_" gradientUnits="userSpaceOnUse" x1="26.7642" y1="-625.0741" x2="34.8494" y2="-613.069" gradientTransform="matrix(0.9829 -0.1842 -0.1842 -0.9829 -52.0378 -398.6456)">
		<stop offset="0" style="stop-color:#FFFFFF" />
		<stop offset="1" style="stop-color:#EDEDED" />
	</linearGradient>
	<polygon class="st1" points="113.4,225.2 119.4,197.8 122.1,182.8 111.6,184.3 96.4,181.7 85.3,175.4 79.1,168.5 62.1,204.1  " />
</g>
<path class="st2" d="M80.5,170.7c0,0,14.1,15.9,38.5,12.7" />
<g>
	<path d="M104.1,20.8c0,0,0.1,0.4,0.2,1s0.3,1.5,0.5,2.5c0.1,0.5,0.2,1.1,0.4,1.7c0.1,0.3,0.2,0.6,0.3,0.9c0.1,0.3,0.2,0.5,0.4,0.6   c0.1,0.1,0.5,0.2,0.8,0.2c0.3,0.1,0.6,0.1,1,0.2c0.7,0.1,1.4,0.1,2.1,0.1s1.4,0,2.1,0c0.3,0,0.7-0.1,0.9-0.1c0.1,0,0.2-0.1,0.2-0.1   l0.1-0.1c0.1-0.1,0.2-0.2,0.3-0.3c0.4-0.5,0.6-1,0.8-1.6c0.2-0.6,0.3-1.1,0.4-1.6c0.2-1,0.2-1.9,0.2-2.6c0-0.6,0-1,0-1   s0,0.1,0.1,0.3c0,0.2,0.1,0.4,0.1,0.7c0.1,0.6,0.2,1.5,0.2,2.6c0,0.5-0.1,1.1-0.2,1.8c-0.2,0.6-0.4,1.3-0.8,1.9   c-0.1,0.2-0.2,0.3-0.4,0.5c-0.1,0.1-0.2,0.2-0.3,0.2l-0.2,0.1c-0.5,0.2-0.8,0.2-1.2,0.3c-0.7,0.1-1.5,0.1-2.2,0.1s-1.5-0.1-2.2-0.2   c-0.4-0.1-0.7-0.1-1.1-0.2s-0.7-0.2-1.1-0.5s-0.5-0.7-0.6-1s-0.2-0.7-0.2-1c-0.1-0.6-0.2-1.2-0.2-1.8   C104,22.2,104.1,20.8,104.1,20.8z" />
</g>
<g>
	<path d="M105.7,19c0,0,0.1,0,0.4,0c0.2,0,0.6-0.1,1-0.2c0.8-0.2,2-0.4,3.1-0.3c0.6,0.1,1.2,0.1,1.7,0.3c0.5,0.1,1,0.3,1.4,0.5   s0.7,0.4,0.9,0.6c0.2,0.1,0.3,0.2,0.3,0.2s-0.1,0-0.4-0.1c-0.2-0.1-0.6-0.2-1-0.3c-0.4-0.1-0.9-0.2-1.4-0.3   c-0.2-0.1-0.5-0.1-0.8-0.1s-0.5-0.1-0.8-0.1c-1.1-0.1-2.2,0-3-0.1c-0.4,0-0.8,0-1-0.1C105.9,19.1,105.7,19,105.7,19z" />
</g>
<g>
	<path d="M146.9,22.6c0,0,0.1,0,0.4,0c0.2,0,0.6,0,1,0c0.8,0,2,0,3.1,0.3c0.6,0.2,1.1,0.4,1.6,0.6s0.9,0.5,1.2,0.8s0.6,0.5,0.8,0.7   s0.3,0.3,0.3,0.3s-0.1-0.1-0.3-0.2s-0.5-0.3-0.9-0.5s-0.8-0.4-1.3-0.6c-0.2-0.1-0.5-0.2-0.7-0.3c-0.3-0.1-0.5-0.2-0.8-0.2   c-1-0.3-2.1-0.5-3-0.6c-0.4-0.1-0.8-0.2-1-0.3C147,22.7,146.9,22.6,146.9,22.6z" />
</g>
<path class="st3" d="M64.6,197.6c0,0,15.9-31.8,16.2-36.2s-1.5-30.4-0.7-35.3c0.8-4.9,6.3-29.2,7.7-31s0.8-2.3,3-2.2" />
<g>
	<path d="M97.5,77.1c0,0-2.9,12.4-5.7,24.8c-0.4,1.6-0.7,3.1-1.1,4.7c-0.4,1.5-0.9,3-1.3,4.4c-0.8,2.9-1.6,5.5-2.3,7.8   c-1.4,4.6-2.4,7.6-2.4,7.6s0.9-3.1,2-7.7c0.6-2.3,1.2-5,2-7.9c0.3-1.5,0.7-3,1.1-4.5c0.3-1.5,0.6-3.1,0.8-4.7   C92.8,89,95,76.5,95,76.5c0.1-0.7,0.8-1.1,1.4-1C97.2,75.7,97.7,76.3,97.5,77.1L97.5,77.1z" />
</g>
<path class="st3" d="M96.1,81.3c0,0,2.7-60.8,7.6-63.6s6.8-3.2,11.1,0.7c2,1.8-0.9,9.9-0.9,9.9" />
<path class="st3" d="M115,24.4c0,0,1.7,24.6,1.4,30s-3.3,33.1-2.4,36.4" />
<path class="st3" d="M118.9,92.7" />
<path class="st4" d="M102.5,52c0,0,5.7-2.1,12.2,0.5" />
<path class="st4" d="M102.3,53.7c0,0,7.5,2,12.7,0.5" />
<g>
	<path d="M145.2,24.5c0,0,0,0.4-0.1,1s-0.1,1.5-0.2,2.6c0,0.5-0.1,1.1,0,1.7c0,0.3,0,0.6,0.1,0.9c0,0.3,0.1,0.6,0.2,0.7   c0.1,0.1,0.4,0.3,0.7,0.4s0.6,0.3,0.9,0.4c0.6,0.3,1.3,0.5,2,0.7s1.4,0.4,2,0.5c0.3,0.1,0.7,0.1,0.9,0.1c0.1,0,0.2,0,0.2-0.1   c0,0,0.1,0,0.1-0.1c0.1-0.1,0.2-0.1,0.4-0.2c0.5-0.4,0.9-0.9,1.2-1.3c0.3-0.5,0.6-1,0.8-1.5c0.4-1,0.7-1.8,0.8-2.4   c0.2-0.6,0.2-1,0.2-1s0,0.1,0,0.3c0,0.2,0,0.4,0,0.7c-0.1,0.6-0.2,1.5-0.5,2.6c-0.2,0.5-0.4,1.1-0.7,1.7s-0.7,1.2-1.2,1.7   c-0.1,0.1-0.3,0.2-0.5,0.3c-0.1,0.1-0.2,0.1-0.3,0.1l-0.3,0.1c-0.5,0.1-0.8,0-1.2,0c-0.7-0.1-1.4-0.3-2.1-0.5   c-0.7-0.2-1.4-0.4-2.1-0.7c-0.3-0.1-0.7-0.3-1-0.5s-0.6-0.3-1-0.7c-0.3-0.4-0.3-0.8-0.4-1.2c0-0.4,0-0.7,0-1c0-0.6,0.1-1.2,0.2-1.8   C144.8,25.9,145.2,24.5,145.2,24.5z" />
</g>
<path class="st3" d="M119.3,91.9c0,0,20.9-69,26.3-70.4c5.4-1.4,7.4-1.4,10.6,3.5c1.5,2.2-3.4,9.3-3.4,9.3" />
<path class="st3" d="M154.8,30.8c0,0-4,23.9-5.6,29s-12.8,34.5-12.7,37.9" />
<path class="st4" d="M135.7,54.3c0,0,6-0.5,11.7,3.6" />
<path class="st4" d="M135.1,55.9c0,0,6.8,3.8,12.1,3.7" />
<path class="st3" d="M138.1,95.2c0,0,4.1,0.3,5.3,5.7c1.2,5.4-0.4,5.5,3.6,8.5c3.9,2.9,4.5,3.9,4.2,8.9  c-0.3,6.2-25.9,54.2-27.3,57.5s-9.3,41.9-9.3,41.9" />
<path class="st3" d="M115.3,88.1c0,0,1.2,0.7,2.8,0.7" />
<path class="st2" d="M129.9,94.4c0,0,1.8,6-4.2,12.3" />
<line class="st2" x1="85.1" y1="125.5" x2="89.2" y2="110.5" />
</svg>
