<?xml version="1.0" encoding="UTF-8"?>
<!-- Generator: Adobe Illustrator 25.2.1, SVG Export Plug-In . SVG Version: 6.00 Build 0)  -->
<svg xmlns="http://www.w3.org/2000/svg" xmlns:xlink="http://www.w3.org/1999/xlink" version="1.1" id="Lager_1" x="0px" y="0px" width="226.8px" height="226.8px" viewBox="0 0 226.8 226.8" style="enable-background:new 0 0 226.8 226.8;" xml:space="preserve"><rect fill="#FFFFFF" x="0px" y="0px" width="226.8px" height="226.8px" />
<style type="text/css">
	.st0{fill:#FFFFFF;}
	.st1{opacity:0.18;}
	.st2{fill:url(#SVGID_1_);}
	.st3{fill:url(#SVGID_2_);}
	.st4{fill:none;stroke:#000000;stroke-width:2;stroke-linecap:round;}
	.st5{fill:none;stroke:#000000;stroke-width:2;}
	.st6{fill:none;stroke:#000000;stroke-linecap:round;}
	.st7{fill:none;stroke:#000000;stroke-width:0.5;stroke-linecap:round;}
</style>
<rect y="0" class="st0" width="226.8" height="226.8" />
<g id="Lager_2_1_" class="st1">
	
		<linearGradient id="SVGID_1_" gradientUnits="userSpaceOnUse" x1="14.6148" y1="-467.9127" x2="41.6148" y2="-473.9127" gradientTransform="matrix(1 0 0 -1 0 -388.3983)">
		<stop offset="0" style="stop-color:#FFFFFF" />
		<stop offset="1" style="stop-color:#EDEDED" />
	</linearGradient>
	<path class="st2" d="M76.4,67.4c-1.3-0.3-58.7-14.7-58.7-14.7s-14.7,35.7,0,55l26-0.3l15.7,2.3c0,0,0-14.7,2-20s16-20.3,16-20.3   L76.4,67.4z" />
</g>
<linearGradient id="SVGID_2_" gradientUnits="userSpaceOnUse" x1="121.364" y1="-379.2319" x2="131.0176" y2="-402.5336" gradientTransform="matrix(0.1101 0.9939 -0.9939 0.1101 -363.5045 -0.0242)">
	<stop offset="0" style="stop-color:#FFFFFF" />
	<stop offset="1" style="stop-color:#EDEDED" />
</linearGradient>
<polygon class="st3" points="24.9,103.5 57.6,109.1 59.7,101.4 66.9,80 75.2,67.7 70,66.5 55.2,62.2 29.5,57.2 " />
<path class="st4" d="M40,59.8c0,0,48.2,9.9,57,12.7s40.9,17.8,44.5,19.9s11.1,3.6,14.3,9.2s7.7,19.4,7.7,19.4" />
<path class="st5" d="M33,104.7c0,0,27.4,3.2,37,8.9" />
<path class="st4" d="M68.9,112c0,0,11.6,24.5,30.8,34" />
<path class="st4" d="M145.9,113.4c0,0,24.4,15.5,28.7,17.6s20.4,22.7,20.4,22.7s7.3,12.9,7.7,13.8" />
<g>
	<path d="M140.9,137.2c1.7,1.1,3.5,2.1,5.3,3.1c1.8,0.9,3.7,1.8,5.5,2.6c0.9,0.4,1.9,0.7,2.8,1.1c1,0.3,1.9,0.7,2.9,0.9   c1,0.3,1.9,0.6,2.9,0.8c1,0.3,2,0.4,2.9,0.7l0.2,0.1l0.2,0.2c0.6,0.6,1.3,1.2,2,1.8l2,1.8l4.1,3.6l8.2,7.2l0.1,0.1l0.1,0.1   c0.3,0.5,0.7,1,1.1,1.4c0.4,0.5,0.8,0.9,1.2,1.4c0.8,0.9,1.6,1.8,2.5,2.7c1.7,1.7,3.7,3.2,5.8,4.3s4.5,1.5,6.8,0.8   c1.1-0.3,2.2-1,3.1-1.8c0.9-0.8,1.8-1.7,2.5-2.7c-0.3,0.5-0.6,1.1-1,1.6s-0.8,1-1.2,1.5c-0.9,0.9-1.9,1.7-3.2,2.2   c-1.2,0.5-2.6,0.8-3.9,0.6c-1.3-0.1-2.6-0.4-3.8-0.9c-2.4-1-4.5-2.5-6.5-4.2c-1-0.9-1.9-1.8-2.7-2.7c-0.4-0.5-0.9-0.9-1.3-1.4   c-0.4-0.5-0.8-1-1.2-1.5l0.2,0.2l-4.2-3.6c-1.4-1.2-2.7-2.4-4.1-3.6c-1.4-1.2-2.7-2.5-4-3.8s-2.6-2.5-3.9-3.9l0.4,0.2   c-1-0.3-2-0.5-3-0.8s-2-0.6-3-1c-1-0.3-1.9-0.7-2.9-1.1c-0.9-0.4-1.9-0.8-2.8-1.3c-1.9-0.9-3.6-1.9-5.4-3   C144.2,139.7,142.5,138.5,140.9,137.2z" />
</g>
<line class="st4" x1="152.3" y1="146.2" x2="163.3" y2="166.3" />
<path class="st4" d="M161.5,162.9c0,0,5,15.1,13.7,11.1c5.8-2.7,2.8-8.8,2.8-8.8" />
<path class="st4" d="M137.7,131.5c0,0,8.9,15.4,10.1,19.2c1.2,3.9,0.5,6.9-3.5,8.5c-3.9,1.6-8.2,1.3-10.9-2.1  c-1.3-1.6-15.4-19-15.4-19l-3.8-1.3" />
<path class="st4" d="M96.2,141c0,0,19.2,20.9,23.8,21.7s10-0.3,11.2-5" />
<path class="st6" d="M74.3,70.3c0,0-11.3,13.2-14.8,35.1" />
<g>
	<path d="M202.5,164.8c0,0-1.3-1-3.2-2.4c-0.5-0.4-1-0.7-1.6-1.1c-0.6-0.4-1.2-0.8-1.8-1c-0.3-0.1-1.1,0.3-1.7,0.7   c-0.6,0.4-1.2,0.9-1.9,1.4c-0.6,0.5-1.2,1-1.7,1.6c-0.1,0.1-0.2,0.3-0.3,0.4c-0.1,0.1-0.1,0.2-0.1,0.3c0,0.3,0,0.6,0.1,0.9   c0.2,0.7,0.5,1.3,0.8,1.9c0.3,0.6,0.7,1.1,1,1.6c0.7,1,1.4,1.7,1.9,2.2s0.8,0.8,0.8,0.8s-0.3-0.2-0.9-0.6c-0.6-0.4-1.3-1.1-2.2-2   c-0.8-0.9-1.7-2-2.3-3.6c-0.1-0.4-0.2-0.8-0.2-1.3c0-0.3,0.1-0.5,0.2-0.7c0.1-0.2,0.2-0.4,0.4-0.5c0.5-0.7,1.1-1.2,1.7-1.8   c0.6-0.5,1.3-1,2-1.4c0.4-0.2,0.7-0.4,1.1-0.6c0.2-0.1,0.4-0.1,0.7-0.2h0.2h0.2c0.2,0,0.3,0.1,0.4,0.1c0.8,0.3,1.4,0.8,1.9,1.2   s1,0.9,1.5,1.3c0.9,0.8,1.6,1.6,2.1,2.1C202.3,164.5,202.5,164.8,202.5,164.8z" />
</g>
<g>
	<path d="M178.5,167.8c0,0-1-1.3-2.5-3.2c-0.4-0.5-0.8-1-1.2-1.5s-0.9-1.1-1.4-1.4c-0.3-0.2-1.1,0-1.8,0.2s-1.4,0.5-2.1,0.8   c-0.7,0.3-1.4,0.7-2,1.1c-0.2,0.1-0.3,0.2-0.4,0.3c-0.1,0.1-0.2,0.2-0.2,0.3c-0.1,0.3-0.1,0.6-0.1,0.9c0,0.7,0.1,1.4,0.3,2   s0.4,1.2,0.6,1.8c0.4,1.1,0.9,2,1.2,2.6s0.5,1,0.5,1s-0.3-0.3-0.7-0.9c-0.4-0.6-1-1.4-1.6-2.5s-1.1-2.4-1.3-4c0-0.4,0-0.8,0.2-1.3   c0.1-0.3,0.3-0.5,0.4-0.7c0.2-0.2,0.3-0.3,0.5-0.4c0.7-0.5,1.4-0.9,2.1-1.2c0.7-0.4,1.5-0.6,2.3-0.9c0.4-0.1,0.8-0.2,1.2-0.3   c0.2,0,0.4,0,0.7,0h0.2l0.2,0.1c0.1,0.1,0.3,0.1,0.4,0.2c0.7,0.5,1.1,1.1,1.5,1.7c0.4,0.6,0.8,1.1,1.1,1.6c0.6,1,1.1,1.9,1.5,2.5   C178.3,167.5,178.5,167.8,178.5,167.8z" />
</g>
<path class="st7" d="M174.4,131.1c0,0-6,3-7.2,9.5" />
<path class="st7" d="M177.1,132.8c0,0-3.7,5.8-8.1,8.5" />
</svg>
