<?xml version="1.0" encoding="UTF-8"?>
<!-- Generator: Adobe Illustrator 27.5.0, SVG Export Plug-In . SVG Version: 6.00 Build 0)  -->
<svg xmlns="http://www.w3.org/2000/svg" xmlns:xlink="http://www.w3.org/1999/xlink" version="1.1" id="Lager_1" x="0px" y="0px" width="226.8px" height="226.8px" viewBox="0 0 226.8 226.8" style="enable-background:new 0 0 226.8 226.8;" xml:space="preserve"><rect fill="#FFFFFF" x="0px" y="0px" width="226.8px" height="226.8px" />
<style type="text/css">
	.st0{fill:#FFFFFF;}
	.st1{fill:url(#SVGID_1_);}
	.st2{fill:none;stroke:#000000;stroke-width:2;stroke-linecap:round;}
	.st3{fill:none;stroke:#000000;stroke-linecap:round;}
	.st4{fill:none;stroke:#000000;stroke-width:1.7;stroke-linecap:round;}
	.st5{fill:none;stroke:#000000;stroke-width:3;}
</style>
<rect class="st0" width="226.8" height="226.8" />
<g id="Färg_1_">
	
		<linearGradient id="SVGID_1_" gradientUnits="userSpaceOnUse" x1="-101.1411" y1="1858.6117" x2="-93.2529" y2="1846.8992" gradientTransform="matrix(0.9829 -0.1842 0.1842 0.9829 -190.7376 -1663.8517)">
		<stop offset="0" style="stop-color:#FFFFFF" />
		<stop offset="1" style="stop-color:#EDEDED" />
	</linearGradient>
	<polygon class="st1" points="78.1,196.1 82,169 83.2,153.9 74.3,154.2 60.4,151.2 48.4,144.6 46.3,140.2 23.3,174.1  " />
</g>
<path class="st2" d="M26.2,168.7c0,0,23-32.4,24.9-38.5s6.1-51.3,9.4-57.8" />
<path class="st2" d="M58.5,75.7c0,0-1.3-14.2,5.5-15.6" />
<path class="st2" d="M63.9,58.6c0,0,1.2-5.4,9.4-5.9c2.7-0.2,37.6-5.9,37.6-5.9s4.4-0.4,8.3,0.3s32.9,8.4,32.9,8.4" />
<path class="st2" d="M80,182.8c0,0,3.6-38,5.4-41s19.8-11.1,24.3-28.2s11.7-22.4,16.8-26.7" />
<g>
	<path d="M151.6,60.9l-32.8-8.8l0,0l0,0c-0.8-0.3-1.6-0.5-2.4-0.7s-1.7-0.3-2.5-0.3c-0.2,0-0.4,0-0.6,0l-0.7,0.1l-1.3,0.1l-2.6,0.3   L98,52.8l-21.1,2.3l21-3l10.5-1.5l2.6-0.4l1.3-0.2l0.7-0.1c0.2,0,0.5,0,0.7-0.1c0.9,0,1.9,0,2.8,0.2s1.8,0.4,2.7,0.7h-0.1l33,7.7   c0.6,0.2,1,0.8,0.9,1.4S152.3,61,151.6,60.9L151.6,60.9z" />
</g>
<g>
	<path d="M144.2,67.4c0,0-4.2-1.1-10.6-2.9c-3.2-0.8-6.9-1.8-10.9-2.9c-2-0.5-4-1-6.1-1.6c-0.5-0.1-1-0.3-1.6-0.4   c-0.3-0.1-0.5-0.1-0.8-0.2c-0.3,0-0.5-0.1-0.8-0.1c-1.1-0.2-2.1-0.3-3.2-0.3c-2.2-0.2-4.3-0.1-6.5,0c-2.2,0-4.3,0.1-6.3,0.1   c-4.1,0.1-8,0.2-11.3,0.3c-6.6,0.2-11,0.3-11,0.3s4.4-0.3,11-0.7c3.3-0.2,7.1-0.4,11.2-0.7c2.1-0.1,4.2-0.2,6.3-0.4   c2.2-0.1,4.4-0.3,6.6-0.2c1.1,0,2.2,0.1,3.3,0.2c0.3,0,0.5,0.1,0.8,0.1s0.6,0.1,0.9,0.2c0.5,0.1,1.1,0.2,1.6,0.3   c2.1,0.5,4.2,0.9,6.2,1.4c4,0.9,7.8,1.8,11,2.5c6.4,1.5,10.7,2.5,10.7,2.5c0.7,0.2,1.1,0.8,0.9,1.5   C145.6,67.1,144.9,67.5,144.2,67.4L144.2,67.4z" />
</g>
<line class="st3" x1="73.5" y1="58.9" x2="78.7" y2="59.7" />
<line class="st3" x1="74.1" y1="68.1" x2="79.4" y2="68.6" />
<line class="st2" x1="153.2" y1="56.3" x2="160.6" y2="57.7" />
<line class="st2" x1="153" y1="60.5" x2="162.6" y2="61.6" />
<line class="st4" x1="145.5" y1="66.7" x2="154.3" y2="67.7" />
<line class="st2" x1="130.2" y1="73" x2="139" y2="74.1" />
<path class="st3" d="M47.9,142.8c0,0,13.8,12.3,31.9,11.6" />
<g>
	<path d="M85.9,91.7c0,0,0,0.8,0.2,2.3c0.2,1.4,0.7,3.5,1.2,5.9s1.1,5.3,1.6,8.4c0.3,1.5,0.5,3.1,0.8,4.7c0.1,0.8,0.3,1.6,0.4,2.5   c0.1,0.8,0.2,1.6,0.3,2.5c0.1,1.7,0.2,3.4,0.1,5c0,0.8-0.2,1.7-0.2,2.5c-0.1,0.8-0.3,1.6-0.5,2.4c-0.4,1.5-1,3-1.8,4.2   c-0.7,1.3-1.6,2.3-2.5,3.2s-1.8,1.6-2.7,2.1c-0.4,0.3-0.8,0.5-1.2,0.7c-0.4,0.2-0.7,0.4-1.1,0.6c-0.7,0.3-1.2,0.6-1.5,0.7   c-0.4,0.2-0.5,0.2-0.5,0.2s0.2-0.1,0.5-0.3s0.8-0.5,1.5-0.8c0.3-0.2,0.7-0.4,1-0.6c0.4-0.2,0.8-0.5,1.2-0.8c0.4-0.3,0.8-0.6,1.2-1   c0.4-0.3,0.8-0.8,1.3-1.2c0.8-0.9,1.7-1.9,2.3-3.2c0.7-1.2,1.1-2.6,1.6-4.1c0.1-0.8,0.3-1.5,0.4-2.3s0.2-1.6,0.2-2.4   c0.1-1.6,0-3.2-0.2-4.9c-0.1-0.8-0.2-1.7-0.3-2.5c-0.1-0.8-0.2-1.6-0.3-2.4c-0.2-1.6-0.5-3.2-0.7-4.7c-0.5-3.1-0.9-5.9-1.3-8.4   s-0.7-4.5-0.8-6C86,93.3,86,92.7,86,92.3C85.9,91.9,85.9,91.7,85.9,91.7z" />
</g>
<g>
	<path d="M130.2,73.1c0,0-3.3-0.8-8.3-2.1c-2.5-0.6-5.4-1.3-8.5-2.1c-1.5-0.4-3.1-0.8-4.8-1.2c-1.6-0.4-3.3-0.6-4.9-0.8   c-1.6-0.2-3.3,0-5,0.1s-3.3,0.2-4.9,0.3c-3.2,0.2-6.2,0.4-8.7,0.6c-5.1,0.4-8.5,0.6-8.5,0.6s3.4-0.4,8.4-1c2.5-0.3,5.5-0.6,8.7-1   c1.6-0.2,3.2-0.3,4.9-0.5c1.7-0.1,3.4-0.4,5.1-0.3s3.4,0.3,5.1,0.6c1.6,0.3,3.3,0.7,4.8,1c3.1,0.6,6,1.2,8.5,1.8   c5,1,8.3,1.7,8.3,1.7c0.6,0.1,1,0.7,0.9,1.4C131.5,72.9,130.9,73.3,130.2,73.1C130.3,73.1,130.2,73.1,130.2,73.1z" />
</g>
<g>
	<path d="M85.2,86.4c1.4,0.3,2.9,0.4,4.3,0.4s2.8-0.2,4.2-0.5c1.4-0.3,2.6-0.9,3.8-1.6c1.2-0.7,2.2-1.6,3.1-2.6l0.4-0.5l0.6,0.3   c0.3,0.2,0.7,0.3,1,0.5s0.7,0.3,1.1,0.4c0.7,0.3,1.4,0.5,2.2,0.7c1.5,0.4,3,0.7,4.5,0.9c1.5,0.1,3,0.1,4.5-0.2   c1.5-0.3,2.8-0.8,4.1-1.5l0.4-0.2l0.4,0.1c0.4,0.1,0.9,0.3,1.4,0.4s1,0.2,1.5,0.3c1,0.2,2,0.3,3,0.4c2,0.1,4.1,0,6-0.6   c0.5-0.1,1-0.3,1.4-0.5c0.5-0.2,0.9-0.4,1.3-0.7c0.4-0.2,0.8-0.5,1.2-0.9l0.6-0.5l0.5-0.5c0.4-0.4,0.7-0.8,1-1.2   c0.3-0.4,0.6-0.8,0.9-1.3c0.3-0.4,0.5-0.9,0.7-1.4s0.4-1,0.6-1.5c-0.2,1-0.5,2.1-1,3c-0.2,0.5-0.5,1-0.7,1.4   c-0.3,0.5-0.6,0.9-0.9,1.3c-1.3,1.7-3.2,3.1-5.3,3.8c-0.5,0.2-1.1,0.4-1.6,0.5s-1.1,0.2-1.6,0.3c-1.1,0.2-2.2,0.2-3.3,0.2   c-1.1,0-2.2-0.1-3.3-0.3c-0.5-0.1-1.1-0.2-1.6-0.3c-0.5-0.1-1.1-0.3-1.6-0.4l0.8-0.1c-1.5,0.9-3.1,1.5-4.7,1.9   c-1.7,0.3-3.4,0.4-5,0.2c-1.7-0.2-3.3-0.5-4.8-1c-0.8-0.3-1.5-0.5-2.3-0.9c-0.4-0.2-0.8-0.3-1.1-0.5c-0.4-0.2-0.7-0.4-1.1-0.6   l1-0.2c-1.1,1.1-2.3,2-3.7,2.7c-1.3,0.7-2.8,1.2-4.3,1.4c-1.5,0.3-3,0.3-4.4,0.1C88,87.2,86.6,86.9,85.2,86.4z" />
</g>
<g>
	<path d="M88.8,87.3c0,0,0.3,0.5,0.5,1.3c0,0.2,0.1,0.4,0.1,0.7c0,0.2,0,0.5,0,0.8s-0.1,0.5-0.2,0.8s-0.2,0.5-0.3,0.8   c-0.1,0.3-0.3,0.5-0.4,0.8c-0.2,0.2-0.3,0.4-0.5,0.7c-0.4,0.4-0.7,0.7-1.1,1c-0.3,0.3-0.7,0.4-0.9,0.5c-0.2,0.1-0.3,0.2-0.3,0.2   s0.1-0.1,0.2-0.3c0.1-0.2,0.4-0.4,0.6-0.8c0.1-0.2,0.2-0.3,0.4-0.5c0.1-0.2,0.2-0.4,0.4-0.6c0.2-0.4,0.5-0.8,0.7-1.3   c0.1-0.2,0.2-0.4,0.3-0.7c0.1-0.2,0.2-0.5,0.2-0.7c0.1-0.5,0.2-0.9,0.3-1.3C88.8,87.9,88.8,87.3,88.8,87.3z" />
</g>
<g>
	<path d="M91.3,122.7c0,0,0.1,0.3,0.2,1c0.1,0.3,0.1,0.7,0.1,1.1s0.1,0.9,0,1.5c0,0.5,0,1.1-0.1,1.7s-0.2,1.2-0.4,1.9   c-0.2,0.6-0.4,1.3-0.7,2c-0.1,0.3-0.3,0.7-0.4,1c-0.2,0.3-0.4,0.6-0.5,0.9c-0.3,0.6-0.8,1.2-1.3,1.8l-0.3,0.4l-0.4,0.4   c-0.3,0.2-0.5,0.5-0.8,0.7c-0.5,0.5-1.1,0.8-1.6,1.2s-1,0.6-1.5,0.8s-0.9,0.5-1.3,0.6s-0.8,0.2-1.1,0.3c-0.6,0.2-0.9,0.3-0.9,0.3   s0.3-0.2,0.9-0.5c0.3-0.1,0.6-0.3,1-0.5s0.8-0.5,1.2-0.7c0.4-0.3,0.9-0.5,1.4-0.9c0.4-0.4,1-0.7,1.4-1.2s0.9-0.9,1.3-1.4   s0.8-1.1,1.2-1.7c0.2-0.3,0.4-0.6,0.5-0.9c0.1-0.3,0.3-0.6,0.4-0.9c0.3-0.6,0.5-1.2,0.7-1.8s0.4-1.2,0.5-1.8   c0.1-0.6,0.2-1.1,0.3-1.6c0.1-1,0.2-1.9,0.2-2.5C91.3,123,91.3,122.7,91.3,122.7z" />
</g>
<g>
	<path d="M154.8,67.5c0,0,0.1,0.3,0.1,1c0,0.3,0,0.7,0,1.1c-0.1,0.4-0.1,0.9-0.2,1.4c-0.1,0.5-0.3,1.1-0.5,1.7   c-0.1,0.3-0.3,0.6-0.4,0.9c-0.1,0.3-0.3,0.6-0.5,0.9s-0.4,0.6-0.6,0.8c-0.2,0.3-0.5,0.5-0.8,0.8c-0.2,0.3-0.6,0.5-0.9,0.7   c-0.3,0.2-0.6,0.4-0.9,0.6l-1,0.4l-0.5,0.2l-0.5,0.1c-0.7,0.2-1.4,0.4-2,0.4c-0.7,0-1.3,0.1-1.9,0.1c-0.6,0-1.2-0.1-1.7-0.1   s-1-0.2-1.4-0.3c-0.4-0.1-0.8-0.2-1.1-0.3c-0.6-0.2-0.9-0.3-0.9-0.3s0.4,0,1,0c0.3,0,0.7,0,1.1,0c0.4,0,0.9,0,1.4,0s1-0.1,1.6-0.1   s1.2-0.2,1.8-0.3c0.6,0,1.2-0.3,1.8-0.5l0.5-0.1l0.4-0.2l0.9-0.4c0.3-0.1,0.5-0.3,0.8-0.5s0.5-0.3,0.8-0.6c0.2-0.2,0.5-0.4,0.7-0.6   s0.4-0.5,0.6-0.7c0.2-0.2,0.4-0.5,0.5-0.7c0.2-0.2,0.3-0.5,0.5-0.7c0.2-0.5,0.5-1,0.7-1.4c0.4-0.9,0.6-1.7,0.7-2.3   C154.7,67.8,154.8,67.5,154.8,67.5z" />
</g>
<g>
	<path d="M163.2,61.2c0,0,0.4,1,0.5,2.5c0,0.4,0,0.8-0.1,1.3c0,0.2-0.1,0.5-0.1,0.7s-0.1,0.5-0.2,0.7c-0.1,0.2-0.1,0.5-0.2,0.7   c-0.1,0.2-0.2,0.5-0.3,0.7c-0.3,0.5-0.6,0.9-1,1.3s-0.8,0.7-1.3,1c-0.4,0.3-1,0.4-1.4,0.7c-0.5,0.1-1,0.2-1.4,0.3   c-0.5,0.1-0.9,0-1.3,0c-0.2,0-0.4,0-0.6,0c-0.2,0-0.3-0.1-0.5-0.1c-0.3-0.1-0.6-0.1-0.8-0.2c-0.4-0.1-0.7-0.2-0.7-0.2   s0.3,0,0.7-0.1c0.2,0,0.5-0.1,0.8-0.1s0.6-0.1,1-0.2s0.7-0.1,1.1-0.2c0.4-0.1,0.8-0.3,1.2-0.4c0.4-0.2,0.8-0.4,1.1-0.6   c0.3-0.3,0.7-0.5,1-0.9c0.3-0.3,0.6-0.7,0.8-1c0.2-0.4,0.4-0.8,0.6-1.2c0.2-0.4,0.3-0.8,0.4-1.2c0.1-0.4,0.2-0.8,0.3-1.1   c0.1-0.4,0.1-0.7,0.2-1c0-0.3,0.1-0.6,0.1-0.8C163.1,61.5,163.2,61.2,163.2,61.2z" />
</g>
<g>
	<path d="M161.8,57.5c0,0,0,0.1,0.1,0.2c0,0.1,0.1,0.2,0.1,0.4c0.1,0.3,0.1,0.8,0,1.2c-0.1,0.9-0.5,1.6-0.5,1.6s0.1-0.8,0-1.6   c-0.1-0.4-0.2-0.8-0.3-1c-0.1-0.1-0.1-0.2-0.2-0.3l0,0c-0.1-0.2,0-0.5,0.2-0.7C161.4,57.2,161.7,57.3,161.8,57.5z" />
</g>
<g>
	<path d="M129.7,74.1C129.7,74.1,129.7,74.2,129.7,74.1c0,0.1-0.1,0.2-0.1,0.3c0,0.1,0,0.2,0,0.4c0,0.1,0.1,0.3,0.1,0.5   c0.1,0.2,0.2,0.3,0.3,0.5s0.3,0.3,0.5,0.5c0.4,0.3,0.9,0.6,1.4,0.8c0.5,0.2,1.1,0.4,1.6,0.6c0.3,0.1,0.5,0.1,0.8,0.2   c0.2,0.1,0.5,0.1,0.7,0.2c0.9,0.1,1.4,0.2,1.4,0.2s-0.6,0-1.5-0.1c-0.2,0-0.5-0.1-0.7-0.1s-0.5-0.1-0.8-0.1   c-0.5-0.1-1.1-0.2-1.7-0.4c-0.6-0.2-1.1-0.4-1.6-0.8c-0.2-0.2-0.5-0.3-0.7-0.5s-0.4-0.4-0.5-0.6s-0.2-0.5-0.3-0.7   c0-0.2-0.1-0.4-0.1-0.6s0-0.3,0-0.4s0-0.1,0-0.1c0.1-0.3,0.3-0.4,0.6-0.4C129.6,73.5,129.8,73.8,129.7,74.1L129.7,74.1L129.7,74.1z   " />
</g>
<g>
	<path d="M144.7,69.3L144.7,69.3c0,0.1,0,0.1-0.1,0.2c0,0.1,0,0.2,0,0.3c0,0.1,0,0.3,0.1,0.4c0.1,0.2,0.1,0.3,0.3,0.5   c0.1,0.2,0.3,0.3,0.5,0.5c0.4,0.3,0.9,0.6,1.4,0.8c0.5,0.2,1.1,0.4,1.6,0.6c0.3,0.1,0.5,0.1,0.8,0.2c0.2,0.1,0.5,0.1,0.7,0.2   c0.9,0.2,1.4,0.3,1.4,0.3s-0.6,0-1.5-0.1c-0.2,0-0.5,0-0.7-0.1c-0.3,0-0.5,0-0.8-0.1c-0.6-0.1-1.1-0.2-1.7-0.4   c-0.6-0.2-1.2-0.4-1.7-0.7c-0.2-0.2-0.5-0.3-0.7-0.6c-0.2-0.2-0.4-0.4-0.5-0.7c-0.1-0.2-0.2-0.5-0.3-0.7s-0.1-0.4-0.1-0.6   s0-0.3,0-0.4s0-0.1,0-0.1c0.1-0.4,0.4-0.6,0.8-0.5s0.6,0.4,0.5,0.8C144.8,69.2,144.7,69.2,144.7,69.3L144.7,69.3z" />
</g>
<g>
	<path d="M152.9,62.4L152.9,62.4c0,0.1,0,0.1-0.1,0.2c0,0.1,0,0.2,0,0.3s0,0.3,0.1,0.4c0.1,0.2,0.1,0.3,0.3,0.5   c0.1,0.2,0.3,0.3,0.5,0.5c0.4,0.3,0.9,0.6,1.4,0.8c0.5,0.2,1.1,0.4,1.6,0.6c0.3,0.1,0.5,0.1,0.8,0.2c0.2,0.1,0.5,0.1,0.7,0.2   c0.9,0.2,1.4,0.3,1.4,0.3s-0.6,0-1.5-0.1c-0.2,0-0.5,0-0.7-0.1c-0.3,0-0.5,0-0.8-0.1c-0.6-0.1-1.1-0.2-1.7-0.4   c-0.6-0.2-1.2-0.4-1.7-0.7c-0.2-0.2-0.5-0.3-0.7-0.6c-0.2-0.2-0.4-0.4-0.5-0.7c-0.1-0.2-0.2-0.5-0.3-0.7s-0.1-0.4-0.1-0.6   c0-0.2,0-0.3,0-0.4c0-0.1,0-0.1,0-0.1c0.1-0.4,0.4-0.6,0.8-0.5c0.4,0.1,0.6,0.4,0.5,0.8C152.9,62.3,152.9,62.3,152.9,62.4   L152.9,62.4z" />
</g>
<g>
	<g>
		<path class="st5" d="M146.3,99.1c0.9-12.9,11.2-23.6,24.5-24.5c14.6-1.1,27.3,9.9,28.4,24.5s-9.9,27.3-24.5,28.4    c-9.4,0.7-18-3.6-23.2-10.6" />
		<g>
			<polygon points="146.3,102.9 162.2,119 152.4,117.7 146.4,125.5    " />
		</g>
	</g>
</g>
<line class="st2" x1="102.3" y1="86.3" x2="106.9" y2="84.7" />
<line class="st3" x1="76.7" y1="68.1" x2="102.1" y2="66.3" />
<line class="st3" x1="76.9" y1="59.5" x2="108.5" y2="58.4" />
</svg>
